<mxfile host="Electron" agent="Mozilla/5.0 (X11; Linux x86_64) AppleWebKit/537.36 (KHTML, like Gecko) draw.io/26.0.4 Chrome/128.0.6613.186 Electron/32.2.5 Safari/537.36" version="26.0.4">
  <diagram name="Page-1" id="biYda8x9eKevSHYpzYZL">
    <mxGraphModel dx="1368" dy="838" grid="1" gridSize="10" guides="1" tooltips="1" connect="1" arrows="1" fold="1" page="1" pageScale="1" pageWidth="850" pageHeight="1100" math="0" shadow="0">
      <root>
        <mxCell id="0" />
        <mxCell id="1" parent="0" />
        <mxCell id="jPGc2D4rUtxydF4NHdEW-1" value="" style="shape=image;aspect=fixed;image=data:image/png,iVBORw0KGgoAAAANSUhEUgAAAoAAAAHgCAYAAAA10dzkAAAAOXRFWHRTb2Z0d2FyZQBNYXRwbG90bGliIHZlcnNpb24zLjguMywgaHR0cHM6Ly9tYXRwbG90bGliLm9yZy/H5lhTAAAACXBIWXMAAA9hAAAPYQGoP6dpAAEAAElEQVR4nOzdd1iT5/oH8G8SRsIIYYe9QRAXIAoOcNTR1vacnlNtq516fu3pVNtaPXbYqe1prZ12nGqHttW2trWtdaAIKA5kKAKyN4SdBEL2+/7+oIlEIAQM4UWez3VxSZIn73snJuTOM+6HRdM0DYIgCIIgCGLcYI92AARBEARBEIRlkQSQIAiCIAhinCEJIEEQBEEQxDhDEkCCIAiCIIhxhiSABEEQBEEQ4wxJAAmCIAiCIMYZkgASBEEQBEGMMyQBJAiCIAiCGGdIAkgQBEEQBDHOkASQIAiCIAhinCEJIEEQBEEQxDhDEkCCIAiCIIhxhiSABEEQBEEQ4wxJAAmCIAiCIMYZkgASBEEQBEGMMyQBJAiCIAiCGGdIAkgQBEEQBDHOkASQIAiCIAhinCEJIEEQBEEQxDhDEkCCIAiCIIhxhiSABEEQBEEQ4wxJAAmCIAiCIMYZkgASBEEQBEGMMyQBJAiCIAiCGGdIAkgQBEEQBDHOkASQIAiCIAhinCEJIEEQBEEQxDhDEkCCIAiCIIhxhiSABEEQBEEQ4wxJAAmCIAiCIMYZkgASBEEQBEGMMyQBJAiCIAiCGGdIAkgQBEEQBDHOkASQIAiCIAhinCEJIEEQBEEQxDhDEkCCIAiCIIhxhiSABEEQBEEQ4wxJAAmCIAiCIMYZkgASBEEQBEGMMyQBJAiCIAiCGGdIAkgQBEEQBDHOkASQIAiCIAhinCEJIEEQBEEQxDhDEkCCIAiCIIhxhiSABEEQBEEQ4wxJAAmCIAiCIMYZkgASBEEQBEGMMyQBJAiCIAiCGGdIAkgQBEEQBDHOkASQIAiCIAhinCEJIEEQBEEQxDhDEkCCIAiCIIhxhiSABEEQBEEQ4wxJAAmCIAiCIMYZkgASBEEQBEGMMyQBJAiCIAiCGGesRjsAgiAIc9JqtWhpaUFjYyMaGhrQ2NiI5uZmdHZ26n+6urr6/C6TyaDVakFRlP4HANhstv6Hw+HA3t4ejo6OcHBwgKOjY5/fHR0d4eHhAS8vL3h7e8PLywvu7u7gcDij/MwQBEFcxaJpmh7tIAiCIEylVCpRXl6OkpISFBcXo6KiAg0NDQbJnlarhYuLiz4B8/T0BJ/P7zdp0/1rb28PKysrfbLHYrEAADRN6xNCjUYDmUxmkDhem0xKpVI0NTXpE9D29nZwOByDpNDb2xshISEIDw9HeHg4QkJCYGtrO8rPLEEQ4wlJAAmCYKTm5mbk5eWhpKTE4Keqqgo8Hs8gefLx8THocRMKhYxJqJRKJUQikUGPZH19vT6JLSkpgUKhQEBAgP4x6X6mTp0KDw+P0X4IBEHcgEgCSNzwHnjgAXz11Vd9ri8tLUVoaOh1H//LL7/E2rVrIRaLr/tYw7V161YcOHAAV65cAY/HQ2JiIt58801ERESMWkxDIRKJkJ2dbfBTX1+P0NBQTJgwoU9i5O3tre+hG+tomkZDQ0OfRLeoqAjl5eXw9fVFbGwsYmJiEBsbi9jYWAiFwtEO22TJyclIS0vrc71arYaV1fXPQtqyZQt++eUX5OXlXfexhuvAgQP49NNPkZ2djba2NuTm5mLq1KmjFg9BmILMASTGhSVLlmD37t0G17m7u49SNANTq9WwtrYe8v3S0tLw2GOPYfr06dBoNNi8eTMWLVqEwsJC2Nvbj0Ckw6dQKHD27Fmkp6fjwoULyM7ORmNjI8LDwxEbG4ukpCSsX78e06ZNA5/PH+1wRxyLxYKPjw98fHwwb948g9skEgny8vL0SfG3336LkpISeHl5ITY2FnFxcZg7dy5mzpwJLpc7So9gcP/617/wyiuvGFxnjuTPnGiahlarHVZcMpkMs2bNwp133ol//etfIxAdQYwAmiBucPfffz99++23D3j7wYMH6ZiYGNrW1pYOCgqit2zZQqvVav3t77zzDh0dHU3b2dnRvr6+9L///W+6s7OTpmmaTk1NpQEY/Lz00ks0TdM0APrnn382OJeTkxO9e/dumqZpurKykgZA79u3j05KSqJtbW3pXbt20TRN07t27aInTJhA29ra0hEREfRHH300pMfc3NxMA6DT0tKGdL+RIJfL6dTUVPqll17SP04vLy/6rrvuordv306npaXRUql0tMMcMyQSCZ2WlkZv376dvuuuu2gvLy/a1taWTkpKol966SU6NTWVlsvlox2mXlJSEv3UU08NePtgr/UNGzbQYWFhNI/Ho4OCgujnn3+eVqlUNE3T9O7du/u8/3bv3q1/b+Xm5uqP09HRQQOgU1NTaZq++t49fPgwHRsbS1tbW9MnTpygKYqi33zzTTooKIjmcrn05MmT6R9++MGkx9rfeQmCqZj1FYwgLOzIkSNYtWoV3n//fcyZMwfl5eX4v//7PwDASy+9BKBnFej777+PwMBAVFZW4tFHH8WGDRvw8ccfIzExETt27MCLL76I4uJiAICDg8OQYnjuuefwzjvvYPfu3bC1tcXnn3+Ol156CR9++CGmTZuG3Nxc/Otf/4K9vT3uv/9+k44pkUgAAC4uLkOKxRw0Gg0yMzNx4sQJnDx5EmfPnoWLiwuSk5Nxzz334PPPP0doaOgNM4RraXw+H3PnzsXcuXMB9PRclZaW4uTJkzh58iQ+++wztLe3Y+bMmUhOTsb8+fORmJjIuB43ACa91h0dHfHll1/C29sb+fn5+Ne//gVHR0ds2LABK1aswOXLl3H48GGkpKQAAJycnNDU1GRyDBs2bMDbb7+N4OBgCAQCPP/88zhw4AB27tyJsLAwpKenY9WqVXB3d0dSUtKIPA8EMSpGOwMliJF2//330xwOh7a3t9f//POf/6RpmqbnzJlDv/HGGwbtv/nmG9rLy2vA4+3fv592dXXVX969ezft5OTUpx1M7AHcsWOHQRs/Pz/622+/Nbju1VdfpRMSEgZ7qDRN0zRFUfSyZcvo2bNnm9TeHMRiMb1v3z565cqVtLOzM+3u7k7ffffd9KeffkoXFxfTFEVZLJbxjqIouri4mP7000/pu+++m3Z3d6ednZ3pVatW0fv27aMlEolF40lKSqKtra0N3n/r16+naXp4r/W33nqLjo2N1V9+6aWX6ClTphi0GUoP4C+//KJv09XVRXO5XDozM9PgeKtXr6bvvvvuQR8r6QEkxhLmfSUkiBEwb9487Ny5U39ZNy8uOzsbWVlZeP311/W3abVaKBQKdHd3w87ODqmpqXjjjTdQWFgIqVQKjUYDhUIBmUxmlvl1cXFx+t9bWlpQW1uL1atXG8wl0mg0cHJyMul4jz/+OC5duoRTp05dd2zGVFVV4bfffsPBgweRlpaG8PBwLFu2DH/88Qfi4+PHTN07XXkXXQ1AoKdXjf5rfRyLxdL3VupqAerKxTARi8XSL5b5v//7P2i1Wpw/fx4HDx7EK6+8glWrViE5ORnLli3DsmXLEBgYOOIxrVy5Eps3b9ZfFggEJr/Wf/zxR+zYsQNlZWXo6uqCRqMx69zQ3u+/wsJCKBQK3HTTTQZtVCoVpk2bZrZzEgQTkASQGBfs7e37XfFLURRefvll3HHHHX1u43K5qK6uxs0334xHHnkEr776KlxcXHDq1CmsXr0aarXa6DlZLJY+idDp7z69k0hdAvL5559jxowZBu1MSaieeOIJHDx4EOnp6fD19R20/VCVlZVh7969+Omnn1BUVIS5c+fitttuw6efforg4GCzn28oaJrWJ+e6H6VSqf9dpVLpEz2NRqP/0T3nAPSJXu+kr3cy2Pv/k81mw8rKSv+jSwxtbGzA5XLB5XJha2ur/53L5cLKysriQ98cDgcJCQlISEjA1q1bUV5ejt9++w2//PIL1q9fj6ioKNxxxx1YuXKlWVbF98fJyanPsXXDtMZe62fPnsVdd92Fl19+GYsXL4aTkxO+//57vPPOO0bPp0vOe/9/DfR+7e/998cff8DHx8egHVPKChGEuZAEkBjXYmJiUFxcPOAH34ULF6DRaPDOO+/oP1T2799v0MbGxgZarbbPfd3d3dHY2Ki/XFpaiu7ubqPxeHp6wsfHBxUVFVi5cqXJj4OmaTzxxBP4+eefcfLkSQQFBZl838G0tLRg37592LNnD3Jzc7F06VJs2rQJS5cuhUAgMNt5TEHTNORyObq6uvQ/MpkMMpkMCoUCWq0WbDbbIOmytbUFn8+HjY2NQcLWX/I2WHKmSzKvTSJ7/6hUKigUCnR0dBgkoxRFgcPhgMvlwt7eHvb29nBwcND/8Hg8iySHISEhWLt2rb500Z9//ol9+/bh9ddfR0xMDFatWoUVK1aM+Cp5U17rp0+fRkBAgEHvYXV1tUGb/t5/utgbGxv1PXemlImJioqCra0tampqyHw/4oZHEkBiXHvxxRdx6623ws/PD3feeSfYbDYuXbqE/Px8vPbaawgJCYFGo8EHH3yAZcuW4fTp0/jkk08MjhEYGIiuri4cP34cU6ZMgZ2dHezs7DB//nx8+OGHmDlzJiiKwnPPPWdSiZctW7bgySefBJ/Px9KlS6FUKnHhwgV0dHRg/fr1/d7nsccew7fffotff/0Vjo6OEIlEAHp6Xng83pCfF5lMhl9//RV79+7FsWPHMHPmTDz44IM4dOiQRRaW6BI9sVgMiUSi32VDJpOBpmnY2dnBwcEB9vb2EAqFsLe3B5fLBY/HG9FeNhaLBWtr6yGX6tEljnK5XD99oKurC83NzaioqEB3dzdYLJY+KXR0dISTkxMEAsGIJoYCgQB333037r77brS3t+OHH37Anj17sH79etx0001YtWoVbrvtthErJTTYaz00NBQ1NTX4/vvvMX36dPzxxx/4+eefDY6hW5yVl5cHX19fODo6gsfjYebMmdi2bRsCAwPR2tqK559/ftB4HB0d8cwzz2DdunWgKAqzZ8+GVCpFZmYmHBwcBlyE1d7ejpqaGjQ0NACAfkGYUCgcUzUbiXFmNCYeEoQlDVYG5vDhw3RiYiLN4/FoPp9Px8fH05999pn+9u3bt9NeXl40j8ejFy9eTH/99dc0ALqjo0Pf5pFHHqFdXV0NysDU19fTixYtou3t7emwsDD60KFD/S4C6W/C+N69e+mpU6fSNjY2tLOzMz137lz6wIEDAz4GXFMKA71KYpiKoig6PT2dvvfee2l7e3s6MjKSfv311+nKykqTjzEcFEXRMpmMrq+vpwsKCujMzEz60KFD9K+//kqfOHGCzs7OpktLS+nGxka6s7OT1mq1IxrPaNBqtbRUKqUbGxvp0tJSOjs7mz5x4gT966+/0ocOHaIzMzPpgoICur6+npbJZCO+qKayspJ+/fXX6cjISNre3p6+99576fT09GGdd7AyMIO91p999lna1dWVdnBwoFesWEG/++67BouuFAoF/Y9//IMWCAQGr/nCwkJ65syZNI/Ho6dOnUofPXq030Ugvd/HNN3zenzvvffoiIgI2tramnZ3d6cXL15stKRSf+Voev8tIAgmIjuBEMQ419HRgW+++QaffPIJRCIR7rvvPtx///2YOnXqiPQ80TQNqVSK1tZWtLW1oa2tDWq1Go6OjhAIBPqeLycnpzGzkGSkaDQaSKVSfU+oWCxGZ2cnrK2t4erqCldXV7i5uYHP54/Y/1VeXh6++uorfPXVV/D29sbDDz+Me++9F87OzmY/H0EQlkMSQIIYp/Ly8vDhhx/i22+/xbRp0/Dwww/jzjvvHNaQsTHXJnytra2gKEqfvLi6upJkbwi0Wi0kEon+uWxrawObzdY/lyOVEMrlcvzwww/45JNPkJeXh3vuuQePP/442fKMIMYokgASxDiiVqtx4MABfPDBB8jNzcWqVavw2GOPYfLkyWY9j0qlQlNTE5qamtDc3Nwn4RMIBIwtozLWUBQFsVhskBByOBy4u7tDKBTCw8MDNjY2Zj3npUuX8OGHH2LPnj2IjY3F448/jjvuuGNY2xgSBDE6SAJIEONAd3c3vvjiC7z99tvgcDh47LHH8NBDD5l1GK+rqwsikQhNTU1oa2sDn8/XJyAk4bMcXUKoS8ClUilcXV3h6ekJoVA45J1qjOno6MCuXbvw0UcfQavV4tlnn8VDDz0EOzs7s52DIIiRQRJAgriBicVifPTRR3jvvffg4+ODTZs24R//+IdZhltpmkZHRwcaGxshEonQ3d0NNzc3CIVCeHp6kiSAIbq7u/WJeUtLi37ltJeXF5ydnc0yVKzVavHjjz9i69ataGhowNq1a/Hoo49avEwQQRCmIwkgQdyARCIRduzYgY8//hjTpk3Dpk2bsHjxYrN82Hd2dqKurg51dXVQq9X6Uhfu7u5kCJDh1Go1WlpaIBKJIBKJYG1tDV9fX335lOtF0zQOHz6MrVu34uLFi/j3v/+NdevWwdPT0wzREwRhTiQBJIgbSFVVFd566y3s3r0bCxcuxKZNm5CYmHjdx1UoFKivr0ddXR2kUik8PT3h6+sLT09PsnhjjNJqtWhqakJdXR2amprA5/Ph6+sLHx8fcLnc6z7+6dOnsXXrVhw/fhwPPvggNmzYYJFt5wiCMA1JAAniBtDc3IzXXnsNn3/+Of7+979j48aN172wQ6vVoqGhAbW1tWhtbYWrqyt8fX3h7e1NevpuMCqVCo2Njairq0NbWxvc3d31/9fXm+BfunQJ27Ztw88//4x//etfeP755+Hh4WGmyAmCGC6SABLEGNbZ2Yl33nkH77zzDubPn4/XX38d0dHR133M6upq1NTUwNbWFv7+/vD19TV7eRiCmeRyOerq6lBTUwOlUgl/f38EBARc9xDx5cuX8Z///Aepqal4+umn8fTTT5tl2JkgiOEhCSBBjEFKpRKffvopXnvtNURERGDbtm2YNWvWsI9HURREIhEqKyvR3t4Ob29vBAYGwsXFxSL70xLMQ9M02traUF1djYaGBri4uCAoKAhCofC6VnSfOnUKGzduRElJCZ5//nk8/PDDsLW1NWPkBEGYgiSABDGGaLVafPvtt3jxxRfh4OCArVu34pZbbhl2kqZUKlFdXY3KykqwWCwEBQXB39+ffCATBpRKJWpqalBZWQmgZ//dgICAYb9OaJrG77//jk2bNkEmk+HVV1/FPffcQ0oFEYQFkQSQIMaIM2fO4LHHHkNbWxteffVVrFy5ctjzs7q7u1FaWora2lo4OzsjODgYQqGQ9PYRRtE0DZFIhIqKCnR0dMDPzw9hYWHDLvmj1WqxZ88evPjii3B1dcVHH32EhIQEM0dNEER/SAJIEAzX3NyM5557Dvv27cMTTzyBl19+edirNKVSKUpLS9HQ0AAvLy+EhYXBycnJzBET44FEIkFpaSkaGxvh7e2NsLAw8Pn8YR1LoVDgpZdewgcffIAVK1bgzTffJAtFCGKEkf52gmAojUaDDz/8EOHh4ZBIJDh27BgWLlw4rBW47e3tOHfuHNLS0sDhcDBv3jzExcWR5I8YNicnJ8TFxWHevHngcDhIS0vDuXPn0N7ePuRjWVtbY8GCBTh27BgkEgkiIiL0u4sQBDEySA8gQTDQ6dOn8dhjj0Emk+GDDz7AkiVLQNM00tLS4OXlhYiICJOO09LSgpKSEnR0dCAoKAjBwcFkNS8xIuRyOcrLy1FVVQVnZ2eEh4fD3d3dpPsWFxejsbERSUlJYLFYOHz4MJ544gk4ODjgo48+MkstS4IgDJEEkCAYpKWlBRs2bMD+/fuxefNmPP300wYT7dva2nDmzBkkz0tGUWcRWrpb4G7njhiPGHDYV+cDisViFBYWQiwWIyQkBEFBQbCxsRmFR0SMNyqVCpWVlSgvL4dAIEBUVFTfLeEoLVCdCXQ1QW7rjuMlnUhISICrq6u+iVKpxNtvv4033ngDy5cvx1tvvWVyQkkQxOBIAkgQDPHDDz/g0UcfxezZs7Fjxw4EBAT02+73tN9R0FaAPZ179Nd52nliY/xGzHSdiaKiIjQ1NSEoKAhhYWEk8SNGhUqlQmlpKSorK+Hp6YnIyEg4ODgAhQeBw88B0gYAQHbAw6Ct7REXMw2Iuq3Pcaqrq/HUU0/h9OnT+Pjjj3HnnXda+qEQxA2JJIAEMcpaWlrw6KOPIjU1FR999BGWL18+4GrclOoUvJz2Mp7kP4ldXbtQp60DADiyHDGPOw/x3HgE+AcgIiKCDPUSjCCXy1FcXIza2lr4O1KIOPUkuBoxAKDdLhSZoc9hftFG2KnbgeVf95sE0jSNffv24fHHH8f8+fPx0Ucfkd5AgrhOZBEIQYyiH374AVFRUaAoCgUFBVixYsWAyZ+W0mLb+W0Q02KcUp7CLbxbwAUXN3Fvwjr+Otiz7LFHuQeTJk8iyR/BGDweD1OnTkXy3LlQ1l9GStR/Uej1T6jYPOT7rkRo8x+wU7f1ND68sWd4+BosFgt33XUXCgoKoNFoMHHiRPz4448WfiQEcWMhPYAEMQpaWlrw+OOPIyUlBR999JHRxE8nS5SFh448BACwhjWe5T8LFlgQUSIclh9GvbYeALBr8S5MF04f8cdAEENSmQF8dSs67IJR4L0CEl4AWNDipsvrYE2rrra7/3cgaM6Ah6FpGt9//z0ef/xxLFy4EB999BHc3Nws8AAI4sZCegAJwsIOHDiAiRMnQq1Wo7CwEHfddZdJBZhbulsAAJ5sT9zvcD8AgAaNb7q+0Sd/AJBakzoygRPE9ehqAgA4d1cgvuJdABQAFs6FPAMp17dPu4GwWCzcfffdKCgogEqlQlRUFA4cODBycRPEDYokgARhIXK5HA8//DDWrFmD9957Dz/99BM8PT1Nvr+rjSuWcpfiEcdHUKupxdvSt9FCtWAud65Bu2+KvkFKdYq5wyeI6+Nw9bVe5nkr+Ip63FSwHs7d5UiL2IJ8n3ugZvMM2hkjFApx4MABvPfee1izZg0efvhhyOXykYqeIG44ZAiYICygqKgIy5cvh6OjI77//nv4+/ubfF+aplFXV4eCggKUyctwoOsAWqie3kBvjjfWOKzBB50foIPqAACwwIKnnScO/+OwQWkYghhVlBbYEQ2ZQoPUyNcxu+R1CORVAAAp1xv5vveik+eHidPnwtfPf0jbElZXV+Puu+9GV1cX9u3bh8jIyBF6EARx4yA9gAQxwr766ivEx8fj1ltvRVpa2pCSP5lMhszMTBQWFmLSpEmImBahT/4AoEHbgHxVPpZwl+ivo0FD1C1CTnOOWR8HQVwXNgdY8iYKfO6CT/tZffIHAHxFIxLL3sIkXz4Ki64gMzMTMpnM5EMHBAQgLS0NN998M+Lj4/HVV1+NwAMgiBsLSQAJYoR0dXXhvvvuw7PPPosff/wRW7duNXkbN5qmUVFRgdTUVDg6OmL+/Pnw8fHBTYE34d7Iew3aHlMcQ4h1CIKsggyu180ZJAimaHFPQItLHCK7Mgxv4HuDtfxr+My4HfPnz4ejoyNSU1NRUVEBUweprK2tsW3bNvzwww949tlncf/996Orq2sEHgVB3BjIEDBBjICLFy9ixYoV8Pb2xp49e+Dt7W3yfWUyGXJzcyGXyzF16tQ+9c56rwbWmW07G1NspmBn505QoACQ1cAEs1AUhbS0NPj5+SE0OEi/EwgcPIGAxJ4ewl5aWlqQl5cHOzs7TJ06Ffb29iafq6GhAStXrkRjYyP279+PyZMnm/vhEMSYR3oACcLMvv76ayQmJuKee+7BsWPHTE7+ru31mzdvXr/FbmM8YuBp5wkWrs6ROqM8AxvYINYmFiywILQTIsYjxmyPiSCuV3V1NbRaLYKDg3uSvaA5wKR/9vzbz1xVd3d3zJs3Dw4ODkPuDfT29kZKSgruvvtuJCQk4Ouvvzb3wyGIMY/0ABKEmWi1Wjz33HPYtWsX9u/fj4ULF5p8X5lMhry8PHR3d/fb63etlOoUrD+5HkDPnD8AmGA1AX+3+zt2dO7AG0lvYGGA6ecniJGkUqlw/PhxTJs2DUKhcMj3b2lpQW5uLuzt7YfcG3js2DGsWLECq1evxrZt28DhkIVRBAGQBJAgzEIsFuPuu+9GdXU1Dh48iNDQUJPvW1tbi0uXLsHX1xdRUVEmzxNMqU7BtvPb0NR9tW7a//H/D8Eewbhl1i1DfgwEMVLy8/PR2dmJhISEIa3u7U1XN7Ourg5TpkyBr6/v4Hf6S2lpKW6//XYEBATgu+++g0AgGFYMBHEjIQkgQVyn4uJi3HbbbQgLC8O3334LPp9v0v00Gg3y8/PR2NiImJiYYfWMaCktcppz0NLdAnc7d4TxwpCRnoHk5GQ4OjoO+XgEYW5SqRRpaWlISkoy+b1hjEgkQk5ODry8vDBp0iRYWVmZdD+JRIKVK1eirKwMBw8eRHh4+HXHQhBjGUkACeI6HDlyBHfddRceeeQRvPbaayYPL0mlUly4cAE2NjaIjY016969ly5dgkwmw8yZM4fd20IQ5kDTNM6cOQNHR0dMmjTJbMeVy+W4cOEC1Go14uLiTE4stVotNm/ejE8//RTff/89Fi9ebLaYCGKsIQkgQQwDTdN499138eKLL+Kzzz7DPffcY/L9ampqkJ+fj5CQEERERIDNNu9aLJVKhZSUlGH3Kt5IKIqCUqmEUqmEQqHQ//S+rFarQdM0aJoGRVEGvwMAm80Gi8UCi8Uy+N3a2hpcLhdcLhe2trb633WXbW1tzf5/OyZQWv0KXxHljJx6JRYuXAgbGxvznoaiUFxcjPLyckyaNAn+/qYXj967dy8efvhhvPrqq1i7di35okSMSyQBJIgh0mq1ePzxx3Hw4EH88ssvmD7dtFIrarUaFy9eRGtrK2JiYuDh4TFiMVZUVKCiogLz58+/oZMQmqYhk8kgkUgglUr7JHdKpRIAYGNj02+ixuVyYWVlpU/seid4uqRAlxD2ThApioJGozFIKnufW6VSAYDB+XS/8/l8ODk5wd7e/sZLPC7/AhxaD3S3gWJxcGLCVoR0nkVQ4t+BqNtG5JTNzc3IycmBu7s7Jk+ebPIc2qysLPztb3/D7bffjg8++IAsDiHGHZIAEsQQKBQKrFy5EkVFRTh8+LDJu3p0dnbi3LlzsLOzQ0xMDLhc7ojGSVEUTp48CX9//yEtSGEyXbInFoshkUggFoshFouh1WrB5/PB5/PB4/H6TfQsnQRTFNVvYiiXyyGVSiGVSsHhcCAQCCAQCODk5ASBQDC2k8KjLwCZ7+svlnksRY3LbCRfeQFs0MDyr0csCVQoFMjOzoZcLseMGTNMnv9aU1ODxYsXY+LEidizZ8+Ivy8JgklIAkgQJpJIJLj99tuhVCrx+++/w9XV1aT7NTU14cKFCwgKCkJkZKTFPuBbWlpw/vx5LFy4ELa2thY5p7n0TvZ6J3wURYHP5xskTY6OjmOu90ar1aKzs9Pg8UmlUrDZbIPHNmaSwoJfgB/u119UWPFxPOq/iK94D+5dhT1X8n2Atfn91vwzB5qmUVRUhMrKSsTFxcHT09Ok+7W1teGWW24Bj8fDL7/8AicnpxGJjyCYhiSABGGCxsZGLF26FL6+vti3b59JdchomkZ5eTmuXLmCqVOnDqlshbmcO3cOtra2mDp1qsXPPVQymQwikQhNTU3o6OgwSPZ0SRGfz79hh7QpioJUKjXo3dQlhc7OzvD09IRQKBxSDTyLoLTAf8MAeZv+qjy/h6CyckB85fuGbe//vafw8wiqq6tDXl4eJkyYgJCQEJOSZ5lMhuXLl6O+vh5//vknvLy8RjRGgmACkgASxCBKS0uxaNEiJCUl4fPPPzdpjpFWq0VeXh5aW1sRHx8PZ2dnC0Tal0wmQ2pqKmbPns242mc0TaOjowMikQgikQhdXV1wc3ODp6cn3Nzc4OjoeMMme6aiKAqdnZ1obW1FU1MTWltb4eDgAKFQCKFQCGdn59HvHTz5JnDyDf1FMS8Ap8Kfx7yi/8Bedc1+1P/4omf3jxHW0dGB8+fPw93dHVOmTDGph1itVmPNmjXIyMjAkSNHEBYWNuJxEsRoIgkgQRhx4cIF3HzzzXjooYewdetWkz5sFQoFzp8/DwCIj48f9XlFBQUF6OjowKxZs0Y9WdBoNGhpadH39FEUpe/Z8vDwMHkC/3ilVqvR3Nysf/7YbLb++XN3dze5Jp7ZFB4E9t+rv0gDOBW2Ga5dJYhq/KFvewv0AOoM531I0zQ2btyI3bt349ChQ4iLixvpMAli1JAEkCAGkJGRgVtuuQUvv/wy1q1bZ9J9xGIxzp07N6Seh5GmVqtx/PhxTJo0CT4+PhY/v1wuR1NTE0QiEVpaWsDj8fQ9WC4uLuO+l2+4KIpCe3u7vgdVLpfD3d0dQqEQnp6eZq0t2X8AWmBHNCBt0F9VL5iBfN+VWFC4AdaUwrC9nRvwTMmIzQHsT++e+BkzZpjcC759+3Zs2bIFf/zxB+bMsUzCShCWRhJAguhHamoqbrvtNuzYsQOrV6826T7Nzc3IyspCeHg4QkNDR723rbeamhpcuXIFCxYssEhSqlarUVdXh5qaGkgkEjg7O+uTPgcHB0Y9NzcCmqbR1dWlTwY7Ojrg5OQEf39/+Pr6jkzPamUG8NWt+osalg1ORL2JCY0/wb/9VN/2//wKiP6b+eMYBE3TKCsrQ0lJCaZPn25y+aX//e9/WLduHX777TckJyePbJAEMQosPF5AEMyXkpKCv/3tb/jwww/xwAMPmHQf3cTzKVOmwM/Pb2QDHAY/Pz9UVlairKwMERERI3IO3Zy+qqoqNDQ0wNHREQEBAfDy8hpzq5DHGhaLBUdHRzg6OiIsLAxKpRKNjY2orq5GQUEBfHx8EBAQYN45g11NBhfLPZfCVi2GX/vpvm0TnxyV5A/oeW7CwsLA5XJx/vx5kxdkrVmzBhwOB7feeit+/fVXLFiwwALREoTlkASQIHo5duwY/v73v+OTTz7BqlWrTLqPbqVvfHz8iBZ3vh4sFguTJk1CZmYm/P39zTo8qFKpUFtbi+rqasjlcvj5+WHOnDmknMYosrW1RWBgIAIDAyGRSFBdXY0zZ86Ax+MhICAAfn5+178zh727/le5tQtKPW5FYtmbYOGaQaWkjcC8Tdd3LjPQPeasrCwolUqEhIQMep8HH3wQVlZWuP322/Hzzz/jpptuskCkBGEZZAiYIP5y4sQJ3HbbbSYnf7q6Y9XV1Zg5c+aorfQdiuzsbABAbGzsdR+rs7MTFRUVqK2thZOTEwICAuDt7W35hQiESTQaDRoaGlBdXQ2JRAI/Pz8EBwebXDTZQOFB4M8NQGcjAOBCwL/BAoXY6k8N241w7b/h6OjowNmzZxEQEGByXc49e/bgkUcewW+//YZ58+ZZIEqCGHkkASQIAGlpabj11lvx4Ycf4v777x+0PUVR+snliYmJcHBwsECU108ul+P48eNITEyEi4vLkO9P0zSam5tRXl6OtrY2+Pj4IDg4mHElZgjjxGIxKioqUF9fD1dXV4SEhMDDw8O04eHCg8D++4C/evra7MNwJuRZLCh6Djx1x1+N/jrOCO7+cT06Oztx5swZ/WItUxYiffXVV3j88cfxxx9/YO7cuRaIkiBGFkkAiXEvMzMTS5YswY4dO/DQQw8N2l6r1eLChQvo7u7GzJkzR361pZkVFxdDJBJh7ty5Js8HoygK1dXVKC8vh0ajQVBQEAICAka9xA1xfRQKBaqrq1FZWQkrKyuEhIQgICBg4ISI0gL/DQXk7QAAGiykRWyBlzgbEU0Hr7bj+wBLtjEy+dORy+U4e/Ys7OzsEBcXZ9LiqC+++ALr1q3D4cOHkZiYaIEoCWLkkASQGNcKCgowZ84cvP766/j3v/89aHutVotz585Bo9EgISFhTNat02q1OH78OCZMmDDoXsY0TaO+vh5FRUXgcDgICwuDj48PKd1yg6EoCvX19SgtLYVWq0VkZCR8fHz6fkG4puhztcscFAv/hgVFG8Gh1Vfb3fsrEJJsmeCvg1qtxpkzZ2BtbY34+HiTksCPP/4Yzz//PDIyMjBx4kQLREkQI4NM1iHGLd1G8E899ZRJyZ9Go8G5c+dAUdSYTf4AgMPhYOLEicjPz4eXl1e/j0M31FtYWAi1Wo2IiAj4+/uT8i03KDabDT8/P/j6+qKmpgaFhYUoKytDZGTk1aFhSguc+1h/HzWbiyLvOzG57hvD5A8Aulst/AiGx9raGgkJCTh79izOnTuH+Pj4QeewPvroo2hubsaSJUuQmZnJyFX/BGEK0gNIjEttbW2YPXs2kpOT8fHHHw+a2OiSP5qmMXPmzDG/0IGmaZw+fRrOzs59ejHa29tRWFgIqVSK8PBwBAUFMaKgNWE5Wq0WlZWVKCkpgZOTEyIjI+EiKTCo+1fgvRwddqGYVfYG+rx7LLjjhzloNBqcPXsWLBYLM2bMGPT9TdM0/v3vfyM9PR0ZGRlwdXW1UKQEYT4kASTGHZlMhgULFsDHxwf79+8fNLm50ZI/HbFYjIyMDMyfPx/29vbo7OxEUVERmpubERISgtDQ0DHby0mYh1qtRllZGcrLy+Fhq0bkhU1wVDaiy8YDqZFvYG7JK3CS1xjeiecCPFvGqJW/phhqEqjVanHnnXeisbERKSkpsLe3t1CkBGEeJAEkxhW1Wo2//e1v6OrqwpEjRwZdxKCb80dR1A2V/Onk5eWhu7sbPB4PdXV18Pf3R0REBFncQRhQKBQovnASNS2d8G3PhNzaBXbqVkyt/bJv4+T/AMnPWTxGc9BoNDhz5gw4HA5mzJgx6JdDhUKBxYsXw9HRET///DP5wkSMKWQmNzFu0DSNNWvWoK6uDr/++qtJyd/58+eh1WpN6hEYa1QqFVgsFlpaWiCTyTBv3jxMmTKFJH9EH1wuF1MSb8K8uvcgs/VEC38S2LQWKs41vV48F2DuM6MTpBlYWVlh5syZ0Gg0OH/+PCiKMtqey+Xi119/RU1NDf71r3+B9KcQYwlJAIlx44UXXkB6ejr+/PPPQevW0TSN3NxcqFQqzJw584b6Zk/TNGpra5GSkgKZTIbg4GCoVCrY2dmNdmgEk7E5sJv/LFRWfIQ0H0aXrRApUf9FrXPi1b0/lr035oZ+r6VbGKJUKpGTkzNoUicQCHD48GGcPHkSL7zwgoWiJIjrR4aAiXHhu+++wyOPPIKzZ88iMjLSaFuappGfn4/m5mbMmTPnhtrHVqFQ4OLFi+jo6MCUKVPg5eUFiqJw4sQJBAcHIzg4eLRDJBisoqICFVfyMf/KZrCltWh0isFFvwfgrGrAlOgocCffPtohmo1SqURGRgY8PT0RHR096EKxwsJCJCQk4LPPPsOKFSssFCVBDB9JAIkbXnZ2NpKSkrB//37cfPPNg7YvKSlBRUUF5syZc8NM7KZpGnV1dcjPz4enpycmTZpksBesSCRCTk4OFi5ceP17xBI3JJVKhZSUFMTGxsLT3Q2ozgS6mqDiuuOSxA7NzS2YNGkSfH19b5hyQTKZDBkZGQgODkZ4ePig7f/44w+sWLECaWlpZtlukSBGEkkAiRuaSCRCXFwcnnrqKTz77LODtq+ursbly5cxe/ZsODk5WSDCkddfr9+1aJrG2bNnYW9vj8mTJ49ClATTXbp0CTKZDAkJCf3e3tDQgEuXLsHZ2fmGmksqkUhw6tQpREdHIyAgYND2b731Fj744ANkZWVBKBRaIEKCGB6SABI3LKVSieTkZISGhuLrr78etFeisbER2dnZmDlzJtzc3CwU5cjp3evn4eGByZMnG+3d6+zsxMmTJ5GUlAQ+n2/BSAmmk0qlSEtLQ3JyMhwdHQdsp1KpcOnSJTQ3N99QvYGtra04e/Ys4uLiBk3qaJrGvffei4qKCqSmpt5QU0iIGwtJAIkbEk3TeOihh1BYWIi0tLRBeyPa2tpw5swZxMTEwNvb20JRjpzevX6TJ082+THl5+ejs7MTCQkJN8QHN3H9aJpGZmYmnJycEB0dbdJ9bsTewIaGBuTk5CAxMREuLi5G28rlciQlJWHixInYtWsXeS8RjERWARM3pB07duDIkSP4+eefB/3wkclkOHfuHCZOnDjmkz9dr9+JEyfA4XAwb968IT2miIgISCQSiESiEYySGEtEIhGkUikiIiJMvo+3tzfmzZsHDoeDEydOoK6ubsyXSPH29sbEiRNx9uxZyGQyo215PB5+/vlnHDlyBO+9956FIiSIoSE9gMQN5/jx47j99ttx4sQJxMfHG22rVquRkZEBDw8Pk3s3mEqpVCIvLw/t7e2YMmXKsJPZyspKlJeX6z/AifFLq9UiNTUVoaGhCAwMHNYxGhoacPHiRbi4uGDq1Kljfkg0Pz8fLS0tmDNnzqDloc6dO4f58+fj4MGDWLBggYUiJAjTkB5A4obS1NSElStX4t133x00+aNpGtnZ2eByuYiKirJQhCNDLBYjLS0NLBYL8+fPv66ezMDAQHA4HFRUVJgxQmIsqqioAIfDMWnxw0C8vb0xf/58sFgspKWlQSKRmDFCy5s4cSK4XK5JNQJnzJiBHTt2YOXKlWhqarJQhARhGtIDSNwwKIrC4sWL4e7ujr1795pUt6uhoQFz584d06VP6uvrkZubi4iICISGhpplvlFLSwvOnz+P5HnJKJQWoqW7Be527ojxiAFnjBf6JUyjUChw/PhxzJgxwyyLomiaRmlpKUpKSjBt2jT4+PiYIcrRoVKpkJ6eDm9v70G/PNI0jXvuuQdtbW04fPgw2GzS70IwA0kAiRvGG2+8gd27dyM7O3vQVax1dXW4ePEi5s6da3RVI5PRNI0rV66goqICsbGxZi858fvJ33Gp/RK+6/xOf52nnSc2xm/EwoCFZj0XwTy5ubnQaDSYPn26WY8rEomQnZ2N4OBgTJgwYcwukOjs7ER6ejqmTJkCX19fo22lUiliYmKwevVqbNq0yUIREoRx5KsIcUPIyMjA66+/jn379g2a/HV0dCAvLw9xcXFjNvlTq9U4f/486uvrMWfOHLMnfynVKXir9i2EscPgzbk6nNzU3YT1J9cjpTrFrOcjmKWjowP19fWYOHGi2Y8tFAoxZ84c1NXV4fz589BoNGY/hyU4OjoiLi4OeXl5EIvFRtvy+Xzs378fr732Gk6dOmWZAAliECQBJMa81tZW3H333XjzzTcRExNjtK1CocD58+cxYcIEeHp6WihC89LtTqDRaDB37lyz1+zTUlpsO78NHVQHMpWZuIV3i8HtNGi8fOZlaCmtWc9LMANN07h8+TJCQkJGbH9oPp+PpKQkaDQaZGRkDLqqlqk8PT0RERGBc+fOQaFQGG0bExODbdu24e6770ZbW5uFIiSIgZEEkBjTaJrGgw8+iPj4eDz22GODts3OzoabmxtCQkIsFKF5tba2Ij09HW5ubkhISBiRuYs5zTlo6u6ZsJ6uSIcz2xmTrCcZtBErxfj80udmPzcx+urr69Hd3Y2wsLARPY+NjQ0SEhLg6uqK9PR0tLa2juj5RkpoaChcXV2RnZ096KKQxx9/HHFxcXjggQfGfFkcYuwjCSAxpr333nvIz8/HF198MehcopKSEsjlckyePHlMzjuqrKzE2bNnERkZicmTJ4/YZPKW7hb97yqocFR+FEt4S2ANw5IXe4r2kF7AGwGlBSozgPwfoSlPR0FBAaKiomBlZTXip2az2Zg8eTIiIyNx9uxZVFZWjvg5zY3FYmHKlCmQy+UoKSkZtO2uXbuQn59P6gMSo27k3+EEMUKKioqwefNmHD16FM7Ozkbbtra2orS01KTaXUxDURTy8/PR0NCg7zEZSe527gaXL6ovYobtDMzhzsEJxQn99RKVBDnNOZguNO8igZFC0zQ0Gg0UCgWUSiUUCoX+R6lUQqPRgKZpgx+g50O794+VlRVsbW3B5XL1P7rLVlZWY+vLRcEvwB/rge6eIcky4d/Bc46Br1QBwM9iYQQGBsLR0RHnz5+HVCrFpEmTxtRqWWtra0yfPh0ZGRlwdXU1umra2dkZe/fuxaJFi7BkyRJMmDDBgpESxFVkFTAxJmm1WsyaNQuzZ8/G22+/bbStUqnEyZMnER4ejqCgIAtFaB4qlQrnz5+HWq3GjBkzRmxOVm9aSoukfUmQqK7Wa/Pl+OIhh4fwnvQ9SOir12+dvRW3htw64jENhUqlglgshlgshlQqhVwu1yd8Wq0WbDa7T+LG5XLB4XDAZrP1iZ4uAaEoSp8QUhQFrVZrkDjqfqcoChwOR39cHo8HPp8PgUAAgUDAvFJDR18AMt/XX+y2dsWJqG2YVboVzt0VwPJvgKjbLBpSd3c3zp07BxsbG0yfPp15z9kgKioqUFpaiuTk5EELXj/99NPIzMzEqVOnSMF1YlSQBJAYk9566y3s2rULubm54PF4A7ajaRpnz54Fh8PB9OnTx1TvjFKpxJkzZ8DlchEXF2eRITmdTy5+go/yPjK47h92/wAHHOzv3q+/ztnWGS8mvDhqZWGUSiUkEok+4ROLxZDL5bCzs4NAIICTkxN4PJ5BsmdtbW321wFN01Cr1QZJoVwu18fW3d0NHo+nTwZ1sY3arhiXfwF+vN/gqqzAx8Ch1Iip+aznCp4L8GwZYOG6jxqNBhcuXIBCoUBiYuKYSgJpmkZWVhYoisKMGTOMvs7kcjmmTp2KNWvW4Nlnn7VglATRgySAxJhTVFSEuLg4pKSkICEhwWjbsrIyVFZWIjk5eUwN/SoUCmRmZsLBwQFxcXEWHw7rrxfQkeWItfy1+Lrra1RrqwEALPR8wG1P3m6RJFAul0MkEqGlpUWf7Nnb28PJyckgsWJa0qBSqQwSVYlEAplMpk8K3d3dIRQKjX6ZMRtKC/w3FJC3669qsw/HmZCnsaDwOfA04qtt7zsIBCeNfEzXhkhRuHDhArq6upCYmDjoft5MolarcfLkSQQFBSE0NNRo28zMTNx00024cOECIiMjLRQhQfQgCSAxpmg0GsyaNQtJSUl46623jLZtb29HZmYmZs2aNegcQSaRy+XIzMyEQCDAtGnTRm0uVEp1CtadXGdwXZJtEiZaT8TOrp2g8dccObDgaeeJw/84bPZdQmiahkQigUgkgkgkglQqhYuLCzw8PODs7AyBQDCmEvve1Go1xGIxOjo60NzcjPb2dvD5fAiFQgiFQjg5OY1Mj3VlBvDV1WF7GiykRbwMb/F5hDf9bth2zrPAgufNH4MJKIpCbm4uxGIxEhMTLZMcm4nub09iYiJcXFyMtn322WeRkZGB06dPk6FgwqJIAkiMKW+++Sa+/PJL5ObmGu0V0G1iHxAQMOLlLMypu7sbp0+fhpubG6ZOnTrqQ9Yp1Sl45cwr6FB2AACsYIWnHJ/CSeVJZKuyDdruWrzLLAtCtFotWltb9UmfRqOBh4cHhEIhPD09Gde7Zy4qlQpNTU0QiURobm6GlZWVPhl0c3MzX3KQ/yPw02r9xWrXJJR4LsP8ok3g0GrDtnOfBeaPTgII9HwByMvLQ1tbGxITEy0yB9ZcSkpKUFNTg3nz5hn9v5PL5Zg2bRoeeughbNiwwYIREuMdWQVMjBmFhYV45ZVXcOLEiUGHhIqKimBjYzPoEAyTdHd349SpU/D09GRMqZqFAQuh0Ciw6VTP9lUaaPCn4k/cxrsNl1WXoYRS37ZJNvzN7imKQlNTE2pra9Hc3AwbGxsIhUJMmzYNbm5uY2pF6HDZ2NjAz88Pfn5+oChKnwRfvHgRKpUKHh4e8PPzg6en5/U9Hw5XC6Cr2TwUet2JKbVf9k3+ACBg9vDPYwYsFgtTp07FpUuXcOrUKcyePXvMJIGhoaEQiUQoKipCdHT0gO14PB6+/PJLLFiwAMuWLSNDwYTFkB5AYkygKAqzZ8/G7NmzBx36bWtrw5kzZ5CUlDRmtnqTy+X65G/SpEmMSP50skRZeOjIQwbXPWT/EOq19TiiOKK/bjgLQmQyGaqrq1FTUwM2mw1/f394eXmBz+cz6jkYTTRNQyqVorGxETU1NaAoCv7+/ggICIC9vf3QD0hpgXcnAp2NuOx9FyR2gUgs24Y+z/YoLQLpD03TyM/PR1NTE2bPnj1mhoM7OzuRlpZm0lDwhg0bcOrUKZw6dWpcfOEhRh9JAIkxYffu3diyZQuKioqM9gBoNBqcPHkSgYGBY6b3T6FQ4NSpU3Bzc8OUKVMYl/hoKS0W/7QYzd3N+nl/QrYQDzs+jA87P0Qb1VNDztQFITRNo6mpCRUVFWhtbYVQKERAQAA8PDwY99iZhqZpNDc3o7q6GiKRCG5ubggODoanp+fQnrvCg+j69VmkTngNc4tfhpOitm+bUSgDYwxN07h48SJaW1sxe/bsMbMwpLS0FNXV1YMOBctkMkRFReHll1/GAw88YLkAiXGLJIAE43V0dCA8PByfffYZ/v73vxtte/nyZbS3t2POnDljIplQKpU4ffq0fsEHU2NOqU7B+pPr9QkgACzjLQOfzcde2V79dcYWhKjVatTU1KCyshJarRaBgYEICAgYMx/kTKNQKFBdXY3KykpYWVkhKCgI/v7+Ji+KOZvyK3h1pzCl6jPDG7jOwG3vMyr506FpGjk5OZBIJJg1a9boldEZApqmkZGRARcXF6NDwQBw4MABPPLIIyguLh5TC9eIsYkkgATjPf744ygvL8ehQ4eMJkhjbehXpVLh9OnTcHR0RGxsLGOTP51rF4TYseywznEd9nXvQ5mmzKBt7wUhSqVS3wvi6OiI4OBgeHt7k2EuM6EoCg0NDSgvL0dXV5d+4VOf5IjSAtWZQFcTmmhnZNcpsWDePNg2nAOqTwE0gKA5QOBsRgz7DoSiKGRnZ0Mmk42ZOoG6oeDBdvKhaRpLly5FWFgYPvjgAwtGSIxHJAEkGC03NxezZs3CxYsXja7mHWtDvxqNBqdPnwaXy8X06dPHTDL0e/nv+gUhAJBgm4DpNtPxYeeHoEDpr39zzptY5L8I5eXlKCsrg6urK8LDwwedB0Vcn/b2dpSUlKCtrQ2hoaEICQnpKSBeeBA4/BwgbQAFDlIjX0dgVzZCEm5jZE/fYCiKQlZWFhQKBWbNmmXRIunDVVZWhqqqKiQnJxuNt6SkBFOnTkVmZiamTp1quQCJcWdsfOoQ4xJFUXjsscewbt26QUu5lJSUwMbGBiEhIRaKbvh0pS04HM6oFHm+Hp72ngaXzynPAQDibeL113HAgZ3UDikpKWhqasKMGTMwc+ZMkvxZgIuLC2bOnIkZM2agqakJKSkpqMj8FdQPDwLSBgBApfsCAEBQ7c/A/vt6ksMxhs1m6987eXl5GAv9GCEhIbCxsUFpaanRduHh4Vi7di0ee+wxUBRltC1BXI+x88lDjDtfffUV6uvr8Z///Mdou66uLpSXlzOmdMpgSktL0d7ejunTp4+5wq8xHjHwtPPUL/igQOFP+Z9YwF0AO5YdplhPwXqn9dC2aTFlyhTMmTMHbm5uoxz1+OPm5oY5c+ZgyqRJqKxvwvHIrahzngkFxxHFwr9jUt1esKHpaXx4Y8/w8BjD4XAQHx+P9vb2QZMqJmCxWJg8ebJ+qN6YzZs3o7a2Fl9//bWFoiPGI5IAEozU0dGB5557Du+++67RUhc0TePSpUsICAiAQCCwXIDD1NjYiJKSEsyYMWNMTGC/FofNwcb4jQCurvot1ZSilWrFU45P4SbeTaDdaCgCFahj1YGiSQ/GaGGxWPBSVWBewXMIF/2GAu8VSI3cCntlI9w78/9qRQPS+p65gWOQra0tZsyYgZKSEjQ2No52OIMSCATw8/NDfn6+0V5Le3t7vPvuu9iwYQPEYrHlAiTGFZIAEoz0+uuvY+rUqYOu+m1sbIREIsGECRMsFNnwSaVS5OTkICYmBk5OTqMdzrAtDFiI7cnb4WHnARe2Cx60fxBubDdwWVwcVB3E2+VvY+OpjXjoyENY/NNipFSnjHbI41dnI9igENCejukV70PNsUMX1xtnQjZAZuN+tV3X8It4jzYnJyfExMQgJycHUql0tMMZVGRkJMRi8aAJ6x133IEpU6bg9ddft1BkxHhDFoEQjFNTU4MJEybg9OnTmDZt2oDtNBoNTpw4gYiICAQEBFgwwqFTKpVIT0+Hn5/fmEhWB0PTNMorylFYWAiWgIUG+waUl5bDi+OFXbJd+nam1gYkRkDhQeD3tUB3G2gAmaEb4dRdhYimgyj0uhO1LrMQ1bAfQa3Hwbr/t54VwGPYlStXUFtbi6SkJMavDK6urkZxcTHmz59vdEGIbhFccXEx/Pz8LBghMR6QBJBgnNWrV0Mul+Pbb7812q6wsBCtra2Mr/lHURTOnDkDa2trTJ8+ndGxmkImkyE3NxdyuRxTp06Fi6sLFv+0GBK5BGsd1+JX+a8oUhfp2xurDUiMkMKDPQs8/qrb2OAUh4t+D2Bh4bOwpuQAgBaHSOT6r4E9JcXUW9bA3pE/igFfP5qmkZWVBbVajYSEBEYvrtLVBnR3dx9067e7774b9vb2+N///meh6IjxgrnvEGJcKiwsxLfffotXX33VaLuuri5UVFSMiYUf+fn5UKlUiImJYXysxtA0jYqKCqSmpsLR0RHz5s2Du7s7cppz0NTdBAWtQIoiBUu5S2HVa5txGjRE3SLkNOeMYvTjCKXtKfnyV/KnZVmjwOcuRDX+oE/+AMC96wrmXXkeDsIQpKalo6KiYkysph0Ii8VCTEwMVCoVLl++PNrhGDWUBSGvvvoq9u7di6KiIqPtCGKoSAJIMMrmzZuxevXqQcu5XL58GX5+foxf+FFZWYmGhgbMmDFjTNQqG4hMJkNmZibKysowY8YMTJkyRf94Wrpb9O2yVdlQ0Aok2ib2OUbvdsQIqs7Ul3wBgHKPxbDWdsO/Ld2wnZ0rrP/5GaYk344ZM2agrKwMmZmZkMlkFg7YfKysrDBjxgzU19ejqqpqtMMxSrcgZLBkNTQ0FA899BA2b95sociI8YIkgARjnDlzBseOHcMLL7xgtF1rayva2toYP5eutbUVBQUFiI+PN7p/MZPRNI3KykqkpqbCwcFB3+vXm7vd1cs0aBySH0ISNwmOLMcB2xEjqNeCDrmVACWeyzCpbg9YuKZ3b8lWfRFod3d3zJs3Dw4ODkhNTUVlZeWY7Q20s7PD9OnTcfnyZbS2to52OEZNmDABbW1taGtrM9ruhRdewNGjR3H27FkLRUaMByQBJBiBpmls3LgR69evh6enp9F2hYWFCA0NZXQZFZlMhqysLERHRxvd+onJ1Go1zp07h9LSUn2vX3/7zF5bG7BKW4USdQlu4t0EoGcOoNBOiBiPGIvGP245XH3/FHkvh6f0ElxlJX3bOXoZXLS2tsaUKVMwY8YMlJaW4vz581Cr1SMd7Yhwc3NDdHQ0srKy0N3dPdrhDMjW1hahoaEoKCgwmnALhUKsW7cOGzduHLOJOcE8JAEkGOHPP/9EQUEBnnnmGaPtRCIRuru7Gb3jh26bKh8fHwQGBo52OMPS1dWF9PR00DSN5OTkPr1+vfVXG/CI4giiraPhy/EFADwX/xxZAGIpAYkA3xvtdiFoEEzHxPrvr2nAAvg+Pe364e7ujuTkZGi1WmRkZIzZIeHAwEB4e3vj/PnzjN5RIyQkBN3d3RCJREbbPfPMM7h8+TIOHz5sociIGx1ZBUyMOpqmER8fj7vuugtPP/30gO0oikJqaiqCg4MRFBRkwQiHpri4GPX19UhKShpzO30AQEtLC7KysuDv74+oqCiTV1OmVKdg2/ltaOruGYJcwF2ACTYTQAVQ0LK0AA3Ee8UjzjOOJIMjjC74FRkXy+AhvYwJogO9bvlrEdLyrwfdA5iiKBQWFqKmpgbTp083+iWAqbRaLdLS0uDj44OIiIjRDmdAFRUVqKqqwrx584wuFHvnnXewb98+nDt3bkwvKCOYgSSAxKhLSUnBXXfdherqaqO7flRXV6O0tBTz589nbIkHiUSCjIwMzJo1C87OzqMdzpDo5vsVFhZi8uTJ8Pf3H/IxtJQWOc05aOluQa24FvbV9jgsP4yL6ov6Nk42TtiSuIXUBRxBtbW1KLyUgwUlL8BKUn31Br4PsGTboMlfb9XV1cjPz0dUVBSCgoLGXOLR0dGB06dPY+7cueDzmVnqhqIoHD9+HOHh4UZrmnZ1dSEgIAD79+/HggULLBghcSMiCSAx6ubPn4/k5GS8+OKLA7bRarVISUnBxIkT4evra8HoTEdRFNLT0+Hh4YGoqKjRDmdIKIrCpUuXIBKJEB8fDxcXl+s6Xkp1CtadXIfJ1pOxhLcEO6Q7oILKoM27ye+SJHAEaDQaHD9+vOe94u3Vsyq4q6lnbmBAIjCM3tf29nacP38eQqEQkydPZuwXsIEUFhaiubkZc+fOZWzsdXV1KCwsxIIFC4yOHLz88stIT0/H8ePHLRgdcSNi5juBGDfOnTuHrKwsPP7440bbVVZWwtbWFj4+PhaKbOhKS0tBURSjh5r6o1Qqcfr0aYjFYiQlJV138qeltNh2fhsA4JL6EjqoDszh9t1lYtu5bdBS2us6F9FXaWkp7Ozset4rbE7PDh+T/tnz7zCH3l1cXJCUlASxWIzTp09DqVSaOeqRFRERAYqiUFpaOtqhDMjHxwc2NjaorKwcsE16ejoyMzORmpoKFouFX375ZdDjpqWlITY2FlwuF8HBwfjkk0/MGDUxlpEEkBhVW7duxcMPP2w06dBoNCgtLUVkZCRjh58kEglKS0sxbdq0MTXvTyKRIC0tDTweD7NnzwaPx7vuY+oKQ+sckh/CLNtZELAFBu2a5E2kOLSZyWQylJeXIzo62uzvld6vkbS0NEgkErMefyRxOBxMmzYNpaWljI2bxWIhMjISpaWl0Gg0/baRyWSYPn06br31VpOOWVlZiZtvvhlz5sxBbm4u/vOf/+DJJ5/ETz/9ZM7QiTGKJIDEqCkoKMDhw4exfv16o+1qamrA4/Hg4eFhociGhqIo5ObmIiQkZEzN+9PNjQoICEBsbKzZClVfW/C5XluPy6rLWMxd3Kdtak2qWc5J9CgsLISPj8+IvQ6trKwQGxuLgIAAnD59Gh0dHSNynpHg7OyM4OBg5ObmMnZVsIeHB3g8Hmpqavq9fenSpXjttdewc+dOAD1zPY355JNP4O/vjx07diAyMhJr1qzBQw89hLffftvssRNjD0kAiVHz5ptv4r777oO3t/eAbSiKQllZGcLCwhjb+6cb+g0PDx/tUEzW1taGzMxMREREICIiwqzPbX8Fn48qjiLcOhyBnECD678p+gYp1SlmO/e4Q2mBygwg/0e05p9Ac3PzoHvLXi8Wi6V/3WRmZqK9vX1Ez2dOTB8KZrFYCAsLQ1lZmdEkVTcV5sCBAwO2AXqK6y9atMjgusWLF+PChQtjtsYjYT4kASRGRVVVFfbt24cNGzYYbVdXVwc2m200SRxNuqHfmJiYMTP029rairNnzyIqKmpE6inqCkP31kV34aTiJG6xu0VfK1DnzfNvkrmAw1F4ENgRDXx1K+if1iC/oADhTQfBrThqkdOHhIQgKioKZ86cYfyOGzocDgcxMTGMHgr29vYGm81GXV3doG1Pnz6N6urqAW8XiUR9Cut7enpCo9GMmf8zYuSQBJAYFe+++y7+/ve/IzQ0dMA2NE2jtLSUsb1/vYd+mb4nsU5LSwvOnj2LSZMmjVgtxd6FoXvLVGbCBjaItYk1uF7ULSJzAYeq8CCw/z79nr/VrsnQsm0RXPtTz/WFBy0SRlBQEKKjo3H27Fm0tIyNvZ4FAgFCQkIYOxSs6wUsLS0ddNeP+Ph4vPvuu4MerzfdMZn4N5WwLJIAEhbX2dmJ3bt3Y+3atUbbNTY2QqPRwM/PzzKBDVFJSQlomh4zq37b2tpw7tw5TJkyZVg1/oZiYcBCvJv8Luysru6BrIUWhxWHcRP3JnBZXIP2184bJIygtMDh54C/9vZVc+xQ5PUPTKz/Dhz6r2G9wxt72llAQEAAJk+ejHPnzg26py1ThIeHM3oo2M/PDxqNBo2NjUbb3Xrrrdi9eze6urr6vV0oFPbZYaS5uRlWVlZjdotKwnxIAkhY3DfffIPw8HDMmDFjwDa63r/Q0FBG1u2SSCQoKyvDtGnTGBnftdrb23H27FlER0dbLKFeGLAQ789/3+C6InURRFoRkm2TDa7vb94gMYDqTH3PHwAUC/8GJ3kNhBJdLyoNSOt72lmIv7+/vidwLMwJZPpQMJvNRmho6KC9gBEREQgNDcU333zT7+0JCQk4duyYwXVHjx5FXFxcv/t6E+ML8z+5iBsKTdP48MMP8cQTTxgdgmhtbUV3d7fRqvijqaCgAIGBgWNi6FcsFuPs2bOIjIy0+N7EcZ5x8LTzNJj394f8D8ywnQE3thtYYEFoJ0SMR4xF4xrTuq6W2Om09UKl23xE1+9Fn3dTr3aWEBgYiMjISJw9exZisdii5x4OgUCAwMBAFBYWjnYo/QoICIBMJjOYq9fV1YW8vDzk5eUB6JlLffvtt+Pdd98FTdPYtGkT7rvvPn37Rx55BNXV1Vi/fj2Kioqwa9cufPHFF4PuuU6MD+ap+0AQJjpx4gRaWlqwYsUKo+3Ky8sRFBRkttIk5tTS0oKOjg7ExcWNdiiD6u7uxpkzZxAWFobg4GCLn183H3D9yfVggQUaNJqpZmSrsrGUtxR7ZHvwXPxzo7I3MEVRUCqVUCgUUCgUUCqVUCqVoCgKFEUZzJVis9lgs9mwtbWFra0tuFwuuFwubG1tLd8D7HB1Uv9ln3sQ0JYGvqLeaDtLCQ4OhlarxZkzZ5CUlAQ7O7vB7zSKwsPDcezYMbS0tDBur2MrKysEBQWhvLxcH9uFCxcwb948fRtdCS1bW1ukpqaisbHRoIRMUFAQDh06hHXr1uGjjz6Ct7c33n//ffzjH/+w7IMhGIlsBUdY1J133ong4GC8+eabA7aRyWQ4ceIEFi5caJbCxOZE0zTS09Ph5eXF+LIvGo0GGRkZcHFxwZQpU0Y1lpTqFGw7v01fIJrH4uFp/tNwCnHCkklLRvTcWq0WUqkUYrEYEokEEokEcrlcv5uFjY1Nn4SOzWbre6hpmtYnhb0TRpWqZ2s7W1tb8Hg8ODk5wcnJCQKBAHw+f+RWhVNaYEc0muCO7ICHsbDwWdhoZb0asAC+N7A2f9g7f1yvixcvor29HXPmzGHkl7jeSkpK0NjYiLlz5zJuYYRcLkdKSgrmz59vdJ/0DRs2oKqqCvv377dgdMRYRxJAwmJEIhECAgJQWFhotPzI5cuXoVAoGNnD1tDQgEuXLmHhwoWM/mCjaRpZWVlQq9VISEhgxDxFLaVFTnMOWrpb4G7nDmeZM6qrqjFv3jyzxqdQKNDU1IT29nZIJBJIpVJYWVlBIBDoEzQ7O7vr7sHrnRB2d3frE0yxWAyNRgM+nw8nJye4uLjA09MTXC538IOaeu6CX3HiciOCW1IQ3Np7jtdfCczyr4Go28x2vqGiKApnzpyBtbU1pk+fzrjEqjeNRoOUlBRMnjyZkeWmsrKywOPxEB0dPWCbsrIyTJw4ETU1NX3KvhDEQJj7CUbccHbt2oWkpCSjyZ9Go0F1dTVmzpxpwchMQ1EUCgsLMWHCBEYnfwBQXFwMiUSCuXPnMiL5A3qGg6cLp+svUxSFmuoaVFZWIjAo0CA5jPGIMXlYmKZpdHZ2QiQSQSQSQSwWQyAQwM3NDeHh4XBycoKdnZ3ZkxA2mw0ejwcejwdnZ2d9cV6aptHd3a1PBqurq3Hx4kUIBAIIhUIIhUI4OjoOLR5K27Ooo6sJcPBEpU0U2HwgsL7IsB3fG1iybVSTP6DnuYmLi0N6ejpKSkoYvVLeysoKERERKCoqglAoZMz7RSc4OBjnzp0z+ncnNDQUc+fOxa5du7Bp0yYLR0iMVaQHkLAIiqIQEhKCd955B3fccceA7aqrq1FRUYHk5GTG9RpUVVWhrKwM8+fPZ9yHRG8NDQ3Izc3FnDlzwOfzRzsco5qbm3Hm3Bl8rvgc1d1XC9p62nliY/xGLAxY2O/9aJqGWCxGXV0dRCIRlEol3N3dIRQKzd7bZg66XkmRSISWlhbY2tpCKBTC19cXAoHA+Gu98GBP2Ze/Vv4qrRyREvU2pvvz4BFzq0FiiIDEURv27Y9UKkVGRgamTZvGyN41HYqicOLECYSGhlp8odRgaJrGyZMnERwcbHRR3E8//YRnnnkG5eXljP77RDAHeZUQFpGRkYGuri4sW7bMaLuqqioEBgYyLvnTaDS4cuUKIiMjGf3HVSKRICcnBzExMYxP/gDgkvwSipRFmEIbzlFs6m7CupPr+mwTp1arUVFRgZMnT+L06dPQaDSYNGkSli5dihkzZiAgIIBxyR8AcLlcBAQEYMaMGVi6dCkmTZoEjUaD06dP4+TJk6ioqOh/a65rCj4DQJHXP+DWWQiP3+8HrvwBBM0BJv2z518GJX8AwOfzERMTg5ycHEaWW9Fhs9mIjIxEcXExNBqN0bYff/wxgoKCwOVyERsbi4yMDKPt9+7diylTpsDOzg5eXl548MEHh1QvkcViITAwEFVVVUbb3Xbbbejq6sKpU6dMPjYxvjH3k4y4oezZswcrVqwwWntKLBajs7MTvr6+FozMNBUVFeDxeIzuxVAqlTh37hzCwsLg5eU12uEMSktpseXMFvwp/xPTbKZByBH2afPymZehpbTo6urCpUuXcOTIEdTW1iI4OBhLlizBtGnTIBQKx8w2fEBPDTqhUIhp06ZhyZIlCA4ORm1tLY4cOYJLly5dLep7TcFnAJDw/FHnMgsT67/rucKCBZ+Hy8vLC2FhYTh37px+4Q0TeXt7w9bWFpWVlQO22bdvH9auXYvNmzfre9mXLl1qsPK2t1OnTuG+++7D6tWrUVBQgB9++AFZWVlYs2bNkGLz9fVFZ2en0fI61tbWWL58Ofbs2TOkYxPjF0kAiRGnUCjwww8/YNWqVUbbVVVVwdfXl3EFSlUqFUpLSxEVFcW4nkkdiqKQlZUFFxcXxq9O1skSZUGilKCdasdZ5VncwrulTxsbtQ2OZRxDamoq1Go1Zs2ahaSkJAQEBDB+HqYprKysEBAQgKSkJMyaNQtqtRqpqak4d+4cpMXpBj1/NIB8n1UIajkGB1UzRqPg83CFh4fD2dkZWVlZjNx+DejpaYuKikJpaal+hfe1tm/fjtWrV2PNmjWIjIzEjh074Ofnh507d/bb/uzZswgMDMSTTz6JoKAgzJ49Gw8//DAuXLgwpNisra3h6+s7aC/gqlWr8MMPPzA60SaYgySAxIg7dOgQ3NzcjO78odVqUV9fz8jCz6WlpXB2dmZcnbDeioqKoNFoMHXqVMYmqdfKasrS/35ScRLubHdEWUcBAAQsAe6wuwP/dvw3WjWtWLhwIWJjY+Hs7Dxa4Y44Z2dnxMbG6ssfpZVKkOO/Bt3WPVt2NQqmo4srRLjomn1+LVzweThYLBamTZsGjUaDoqKiwe8wSjw8PCAQCPrdIk6lUiE7OxuLFi0yuH7RokXIzOw/CU9MTERdXR0OHToEmqbR1NSEH3/8Ebfc0vfLzmACAgJQX18PrXbgHt+ZM2fCxcUFhw4dGvLxifGHJIDEiNu7dy9WrlxpNDERiUSwtbVl3M4acrkclZWViIqKGu1QBtTe3o7KykrExsaOrV6xXsvPlFDiqOIobubejFu4t+BJ/pNgg433O99Hh3MH4+pBjiQej4fJkydjfrgANIuDE1HbkO+zEvnedyOy4QdYUwrDO4xCwefhsLKyQkxMDCorKxm9XVxUVBQqKyshl8sNrm9tbYVWq+1TZsXT07PPfrs6iYmJ2Lt3L1asWAEbGxsIhUIIBAJ88MEHQ45LIBDA1tYWTU0DJ/wsFgsrV67E3r17h3x8YvwhCSAxojo6OvD7779j5cqVRtvV1dXBz8+Pcb1XV65c0f/RZiKtVoucnBxERETA0dFxtMMZkniveP3vbLDhwHIAn81HmHUYPuv8DD92/4gOqgN8Wz60DJ/nZnaUFvY2LMQ278OcklfQxJ8MhY0LlNZOoKCb78gC+D49K3/HCD6fj4iICOTk5BjtyRpNAoEAnp6eKC4u7vf2a/9G0TQ94N+twsJCPPnkk3jxxReRnZ2Nw4cPo7KyEo888siQ42KxWPD19UVtba3RditXrsTvv/8+JrbjI0YXSQCJEfXTTz9hypQpRuelqVQqNDU1MW7xh1wuR11dHaNrmBUVFcHGxgahoaGjHcqQxXnGwcnGCZ5sTzzs8DCm2EzBH/I/4Mh2hIy+urPF2xfexuKfFvdZEXzDKjwI7IgGvr4NkItho+mCwtoZk+q+QZ1zItIjXoSU+9d7Zck2xq38HUxoaChsbGwYPRQ8YcIE1NbWGvQCurm5gcPh9Onta25uHrD48tatWzFr1iw8++yzmDx5MhYvXoyPP/4Yu3btQmNj45Dj8vX1RVNT04BzFAEgIiICkyZNwk8//TTk4xPjC0kAiRG1Z8+eQRd/1NfXQyAQGN3qaDRUVVXB3d2dsT1rbW1tqKqqwrRp0xjXc2oKFlj4T/B/8LDjwyjTlOHjzo9xTnUOxepiLOYtNmjb3N2M9SfX3/hJYD9lXwq9l0MoyUVw63EkFb8ID2k+0iO2oHjhV6Am3DqKwQ6Pbj5gVVUVY4eCHR0d4e7ubrDowsbGBrGxsTh27JhB22PHjiExsf9e2O7u7j5lo3Qr1odTgtfBwQECgQANDQ1G261atYqsBiYGRRJAYsQ0NDTg9OnTWLFihdF2dXV1jOv902q1qKqqQnBw8GiH0i+NRoPc3FxMmDCBsQmqMVKpFOnp6eDKuOBH8HGRdRFa9AwJHpEfQZR1FHw5V18T9F8TBt88/+aNOxzcT9mXdrtQNDrFYWLDPgAAh8tH1MJ7MWvuPNQpHZCRkQGpVDpKAQ+fo6Mj44eCg4ODUVVVZRDf+vXr8b///Q+7du1CUVER1q1bh5qaGv2Q7qZNm3Dffffp2y9btgwHDhzAzp07UVFRgdOnT+PJJ59EfHz8sEtKmTIMvGLFCmRkZAyrl5EYP0gCSIyY33//HTNnzjS6N6VMJkNHR4d+Gy2mqKurg62tLWNX/l65cgU2NjZGt9VjIpqmUV5ejvT0dHh4eCApKQmLIxfj6D+PYsP0DQAACS1BhiIDt/BuAQtXezZp0BB1i5DTnDNa4Y+s6sxryr6wkO+7EmHNv4On/qunTN4OsDlwdnVDcnIy3N3dkZ6ejvLy8mH1KI0mpg8Fu7u7w9bWFnV1dfrrVqxYgR07duCVV17B1KlTkZ6ejkOHDumrFzQ2NhrUBHzggQewfft2fPjhh4iOjsadd96JiIgIHDhwYNhx+fj4oKOjA93d3QO2EQqFmDlzJn7//fdhn4e48ZEEkBgxBw8eHHTnj7q6Onh4eMDW1tZCUQ2OpmlUVFQgODiYkUOrY3XoV6vVIjc3F6WlpUhMTERUVJR+OIzD5sCV66pve0p5Co5sR0yxntLnOC3dLRaL2aKKDUt31LrMgtLaCSFNfxq2+6vsC4fDQVRUFBITE1FaWoq8vDzG9qb1p/dQ8FB2xrAUFouF4OBgVFRUGCTXjz76KKqqqqBUKpGdnY25c+fqb/vyyy9x8uRJg+M88cQTKCgoQHd3NxoaGrBnz57r+sJra2sLDw8Pg8S0P8uWLcPBgweNtiHGN5IAEiNCJpPh+PHjuO0245vSNzQ0MK73r62tDXK5nHHD0sDVJGqsDf0qFAqcPn0anZ2dSEpKgouLS5827nZXe1vVUOOw/DAW8RbBBjYDtrthUFrg0n79RTWbi0Lv5ZhY/z2s6Gsm/F9T9sXFxQVJSUmQSqU4ffo0FIprysQwmKOjIyZMmIDc3FxGJq++vr6Qy+WMS1B9fHxQX19vtM1tt92GlJQUoz2FxPhGEkBiRKSkpMDPz8/oCtru7m50dnYaHSIeDRUVFYzdaaKiogJWVlZjauhXLBYjLS0N9vb2mD179oA1/WI8YuBp56kf9r2svox2qh1J3CR9GydbJ1A0dePNA6zOBLpb9RdLPZfBQSmCt/i8YTs7t37LvvB4PMyePRv29vZIS0sbUyVAQkJCYGVlhYqKitEOpQ/dTi1Mi83T0xOdnZ1Gk7sJEybA19cXKSk3+MIpYthIAkiMCN3w72DFn11dXWFjYzNgG0tTKBRoampCYGDgaIfSh25LuokTJ46Zod/6+nqcOnUKwcHBiImJMbpnL4fNwcb4jQCgTwIPyQ8hwTYBzuyeHUAkSgnWHF1z45WF6bw6WV9m444Kj0WIrtuLPv/Lk5cPWPaFw+EgJiYGwcHBOHXq1KA9RExhyhZsOh9//DGCgoLA5XIRGxuLjIwMo+2VSiU2b96MgIAA2NraIiQkBLt27RpSfIGBgWhqamJUz6qNjQ1cXV0HLQpNhoEJY0gCSJgdRVH4/fffBx3+FYlEEAqFForKNLW1tXB1dWVcSRqgZ0s6gUDA2IUp16qqqkJeXh7i4uIQFhZmUtK6MGAhtidvh4edBwCgQduAS6pLWMJdYtDuhioLU3gQOLxJf7HA5274tp+BQF7dt23EzUYPxWKxEBYWhri4OOTl5Q26dyxTGNuCTWffvn1Yu3YtNm/ejNzcXMyZMwdLly41WHRxreXLl+P48eP44osvUFxcjO+++w4TJkwYUmz29vZwcXEZdOWtpRnbgUTntttuw++//87Y/ZeJ0UUSQMLszp8/D7VajVmzZg3YRq1Wo7W1lVEJIE3TqK6uZuR+xGNhS7reysvLUVBQgJkzZw75/3hhwEIc+ccRfH7T5+Db8HFMcQwh1iEItrpakueGKQujq/v31/Bvi0MUWhyjMKHxx2saDm3XD90q0IKCAsYNXw4kMjKy3y3YdLZv347Vq1djzZo1iIyMxI4dO+Dn54edO3f22/7w4cNIS0vDoUOHsHDhQgQGBiI+Pn7Amn3GBAYGorq6mlErrYVCIVpbW6FWqwdsM2vWLKhUKmRlZQ3Yhhi/SAJImN3Bgwdx8803G51D19LSAnt7e0b1tOn+mDIpKdUpLi6Gp6cnY7ek6628vBzFxcVITEyEq6vr4HfoB4fNAYfNgVQlhYyWIVWRipt5N4Pd60/WmC8Lc03dPwps5PuuRIToF3A1/dT2G+KuH66urkhMTMSVK1dQXl5upqBHjrOz84BbsKlUKmRnZ2PRokUG1y9atAiZmZn9Hu/gwYOIi4vDW2+9BR8fH4SHh+OZZ54ZMME0RigUQq1WM2oxiIODA+zs7NDSMvCqeGtrayxdupQMAxP9IgkgYXZHjx7FzTcbH6pqbGxkXKJVXV0NPz8/o/PURkNnZydqa2sRGRk52qEMqrKyEleuXEFCQgKcnZ2v61i9y72cVZ6FFawQZxNntN2Yck3dv2q3eaBY1ghuMdxpAnZuwPKvgSjjUyr64+zsjISEBFy5cgWVlZXXG/GIi4yMRG1tLTo7Ow2ub21thVar7bNgzNgwaEVFBU6dOoXLly/j559/xo4dO/Djjz/iscceG3JcHA4Hfn5+qK7uZ1h+FAmFwkGHgW+++WYcPXrUQhERYwlJAAmzEovFyM3NRXJy8oBtKIpCU1MToxJAlUqFxsZGRg7/FhUVwd/fHw4ODqMdilHV1dUoLCw0S/IHGJZ70UKLP+V/YgF3Abgs7oDtxpSuqxP4VRx7XPG6A9H134JNXzOkvWTrsJI/HV0SWFhYyLgE5loODg7w9/fHlStX+r392nmkNE0POLeUoiiwWCzs3bsX8fHxuPnmm7F9+3Z8+eWXw+oFDAgIQENDw6ALVSxJKBSiqanJ6NB0cnIycnJyIJFILBgZMRaQBJAwq1OnTiE0NNToNkdisRgsFqvfWnCjRSQSgc/nM662XkdHB5qbm42W02GClpYW5OfnIz4+3mz/r9eWhSnWFKNB24D53PkAelYKC+2EiPGIMcv5LK5XPb9i4d8g6K6EpzSvbztHr+s+lYuLC+Lj45Gfn4/W1tbB7zCKwsPD0dTUhI6ODv11bm5u4HA4fXq7mpubBywj5eXlBR8fHzg5Oemvi4yMBE3TgxZR7o+joyP4fP6gPW6WpHuv9X6uruXj44OQkBCcOnXKUmERYwRJAAmzOnnypNHeP6AnWXBzc2NUKRMmrkimaRqFhYUIDg4Gl8sd/A6jRCaT4cKFC5g0aZJZVygPVBZmus10eLB7Vgk/F/8cOEOYF8coAYkA3xtSrg+q3OYhuu7ba8q+DG3hx2Dc3d0xadIkZGVlQSaTmeWYI4HH4yE4OBiFhYX6ni0bGxvExsbi2DHD4fFjx44NuKhj1qxZaGhoQFdXl/66kpISsNnsYRd5N2XI1ZJYLBZcXV0HTeqTk5P77FBCECQBJMzKlASwra1t2IsDRoJWq0VzczPjEsCOjg6IxWKEhYWNdigDUqvVOHfuHHx9fUdk+PzasjAtVAuyVFm43eF2vJP0DhYGLDT7OS2GzQG9eBsu+9yDwNZUOCobet34Vyo4xIUfgwkICICPjw/OnTtndPXoaAsLC4NYLDbo2Vq/fj3+97//YdeuXSgqKsK6detQU1ODRx55BACwadMm3Hffffr299xzD1xdXfHggw+isLAQ6enpePbZZ/HQQw8NWIx8MEKhEM3NzYzatcTNzY0kgMSwMG+rA2LM0s3/S0pKGrANRVFob29HdHS0BSMzrrW1FTY2NuDz+aMdioGKigr4+/vD2tp6tEPpF03TyMnJAZfLxcSJE0fsPAsDFmKe3zzkNOegpbsFrjauaLvUhom2E5ElykJLdwvc7dwR4xEzNnoDKW3PApCuJjRRzpAIohFXfsCwDd+7J/m7jrl/A4mOjsaZM2eQk5OD+Ph4RvXE61hbW8Pf3x8VFRX6Yc4VK1agra0Nr7zyChobGxEdHY1Dhw7pv3g0NjYa1AR0cHDAsWPH8MQTTyAuLg6urq5Yvnw5XnvttWHHxefzYWNjg7a2Nnh4eFzfgzQTNzc3FBYWgqIosNn99+kkJSXh3nvvhUQiMRgSJ8Y3Fs2kwkbEmPbbb7/hmWee6beMg05bWxvOnz+PJUuWMOaD5+LFi2CxWJg8efJoh6Inl8uRkpKC+fPnM6pUTm9FRUWor6/H3LlzLb6by5/Zf6Kptgk7JDugRU9vjKedJzbGb2R2r2DhwZ7SL9IGUCwOTkzYipDOMwia+TfA3rVnYYiDZ8+w7wgmsyqVCunp6fDx8WHs6nKZTIYTJ05g4cKFw+6xGwkXL14EAEyZMmWUI+lB0zQOHz6MGTNmGJ1/Gx4eju3bt+PWW2+1YHQEk5EhYMJsTBn+bW1tZdT8P5qmGTn/r7KyEh4eHoxN/pqamlBRUYH4+HiLJ38p1SnYdHkTlJQSM21n6q9n/O4guqLPf5V+qXBfBA6tQkDdQeDHBwB5BzDpn0DQnBFN/oCeOXXx8fGoqKhAc3PziJ5ruOzt7eHh4cG48jVeXl6Drry1JDIPkBgukgASZmPq/D83NzfLBGQCiUQCjUbDuDmJ1dXVCA4OHrzxKFCr1cjLy8PEiRMtPmyupbTYdn4btNDikPwQ5nHnwZ7VkyQzeneQa4o+K6z4KBb+DdF1e8H+qwcThzf2tLMQPp+PiRMnIjc3l7HzAYODg1FdXc2oOXeurq5QqVSQSvsp1j1KyDxAYjhIAkiYhVwux8WLF41us6Sb/8ekZEskEsHDw4NRxZ8bGhpgY2PDqES5t8uXL8PR0XFUaibmNOegqbunfl6FpgLl6nLcxL1Jf7tud5AsEcO2vrqm6HOR1z/h3nkZ7l1Ff11DA9L6nnYWFBAQAEdHR1y+fNmk9h9//DGCgoLA5XIRGxuLjIwMk+53+vRpWFlZYerUqUOKz83NDTY2NmhoaBi8sYVwOBx4eHgwajWwm5sb2tvbje75m5iYiIsXL0KhUFgwMoLJSAJImMWlS5cgEAjg7+8/YJuOjg5wOBxG1dpj4vBvdXU1AgMDGTNM3ltTUxMaGhowderUUYnv2l0/DisOY7LNZHhxDGvlPZ32NLOGgnsVfRbzAlDvkoCJ9d8bbWcJLBYLU6dORUNDA5qajJ973759WLt2LTZv3ozc3FzMmTMHS5cuNVh40R+JRIL77rsPCxYsGFZ8AQEBjCtgLRQK0djYONph6Dk6OoLD4RitBxgQEAA+n49Lly5ZMDKCyUgCSJhFdnY2YmNjjSYFHR0dcHFxYUxiI5fLIZVKBywkOxo6OzvR0dEBPz+/0Q6lD93Qb3R0NOzs7EYlhmt3/eigOnBGeQa38G4xuF6qkjJrPuBfRZ9pAPm+qxDcfAT2qn62sHOw/GvRzs4OEydORF5entGh4O3bt2P16tVYs2YNIiMjsWPHDvj5+WHnzp1Gj//www/jnnvuQUJCwrDi8/PzQ0dHR5/t4UaTp6cnpFLpsHYUGQksFgvOzs4Qi8VG28TGxiI7O9tygRGMRhJAwiyys7MRE2N8RwamlSAQiURwcXGx+CIGY6qrq+Hl5cWomHQuX74MPp9vtJd3pF27OwgApCnS4Mp2RbR139JCjJkP+FfR5wbBDMhsPRDW9Ps1Dcxb9HnI4Q0yFKxSqZCdnY1FixYZXL9o0SJkZg48bL17926Ul5fjpZdeGnZstra28PLyYlQvoK2tLZydnQftNbUkgUBgNAEEgJiYGJIAEnokASTMQtcDaIxYLIZAILBMQCZg2n7EFEWhtraWkfsRd3R0oL6+ftSGfnV67w6io4IKR+VHsYS3BNa4WjNRNx8wpznHpGOr1Wq0t7ejubkZjY2NqK+vR319PRobG9Hc3Iz29vbhL5Zgc6BZtA0FPnchquEHWFO952GNTNHnoWCxWJg2bRrq6+v7HUZsbW2FVqvt01vu6ek54Fy40tJSbNy4EXv37oWV1fWVnA0ICEBtba3ROW6WxrRdQUxJAEkPINEbKQRNXDeFQoGCggKjCaBarUZXVxdjEkCNRoOWlhZGFaRua2sDi8Vi3OKP3lvSMaEem253kC2ZWyBR9Wxwn6fOwwzbGZhtOxupylSD9tfOGwR6Xo9isRgSiQRisRhisRgymQy2trawtrYGh8PRLwzSarXQarVQq9VQKpWwt7eHQCCAQCCAk5MTBAKBScW6y6wiYOtYDL/aa8qajGDR56HovQXbrFmz+m1zbfJP03S/Xwi0Wi3uuecevPzyywgPD7/u2HSlo9ra2sy63eD1EAqFuHLlCjQazXUnuObg5OSErq4uo/HExsbi8uXLUCgUjN5ekrCM0X/VEmPepUuX4OjoiMDAwAHbSKVS2NraMuaPTnt7O7hcLhwcHEY7FD3dghSmzJHUaWlpgUQiQXx8/GiHorcwYCEcbRyx5ugaAD29fX/I/8ADDg8gR5UDCS3Rt9XNG1QoFKitrUVdXR2kUil4PJ4+gfPz84NAIICtra3R8yoUCn3S2NbWhoqKCsjlcvD5fPj6+sLPz6/f17hcLkdZWRkSE+eAtShfvxOIJYo+D0VYWBiOHTuG5uZmg50u3NzcwOFw+vR4NTc39zuHtrOzExcuXEBubi4ef/xxAD093DRNw8rKCkePHsX8+fNNjovFYul73JiSADo6OsLW1hbt7e2M2BWEx+PB1tYWEolkwEoLQUFBcHR0RH5+PqZPn27hCAmmIQkgcd1MWQDCtOFfpsWjK0g9adKk0Q7FgK73Lzw8nHFb0sV5xsHTzhPN3c2gQaNWW4sidREW8Rbhh+4fwAILnnae8GP54ezZs2huboabmxtCQ0Ph4eExaLLXHy6XCy6Xa5D0KJVKNDc3o6amBkVFRfDw8EBwcDDc3d3174mCggJ4eXld3akhaI5ZngNzs7a2RlhYGAoLCw3it7GxQWxsLI4dO4a///3v+vbHjh3D7bff3uc4fD4f+fn5Btd9/PHHOHHiBH788UcEBQUNOTahUIj8/HxER0cz5kuSQCCARCJhRAIIXB0GHigBZLFY+nmAJAEkSAJIXLecnJwxN/+PaQtSOjs7oVQqGdO7oVNfXw+lUjmsD+yRppsPuP7kerDAAg0aR+VH8RT/KQRyAiFgC7Ccvxy5ObkIDAzE5MmTR2T1sq2tLfz8/ODn54fu7m5UV1cjOzsbXC4XoaGh4PF4EIlEwyqDMhqCg4NRUVGBhoYG+Pj46K9fv3497r33XsTFxSEhIQGfffYZampq8MgjjwAANm3ahPr6enz99ddgs9l9pld4eHiAy+UOe9qFm5sblEolOjs7GbNvtynz7iyJzAMkhoIkgMR1Kyoq0n8IDEQsFht8mIw2sVjMqMUWuqEtJhWkpigKV65cwYQJExgVV2+6+YDbzm9DU3cTpLQU2cps3OdwH2xtbREdHg0/Pz+LzdGys7NDZGQkwsLCUFtbiytXrkCpVCIgIIAR8ydNweFwMGHCBBQVFcHLywtsds9awRUrVqCtrQ2vvPIKGhsbER0djUOHDunfR42NjYPWBLweVlZWcHd3h0gkYlQCyKTVyU5OToMWzY6OjsZnn31moYgIJiMJIHHdSkpKjE701mq16OrqYkyPm0qlQnd3N6N6JEUiEaMSUgCoq6sDAEbWJOxtYcBCzPObh+ymbDTVNoFuosFmsTFxwsRR67m0srLSn7uwsBDV1dWws7NDcHAwY4YvjfHz80NpaSnq6+sN/v8fffRRPProo/3e58svvzR6zC1btmDLli3XFZdQKER1dbVZFpaYg0AgQHd3N1QqFSNKNwkEAnR2dkKr1Q74pS08PBwlJSUWjoxgIlIGhrguHR0daGlpQVhY2IBtZDIZOBwOYxaAiMVi2NnZMeIPNtCzsKCjo4NRBalpmkZFRQVCQkL0PUBMJu+WQ1mmBE/Kw6zEWYiJiUFxcfGo7nGrVqtRXFyMadOmISEhAZWVlTh16hS6urpGLSZTsdlsBAcHo7y8HDRNj3Y4ep6enhCLxVAqlaMdCoCeuZE8Hg8SiWTwxhbA5XLB4XAgk8kGbBMWFobm5mZGDV0To4P5f9kJRistLYW7uzucnZ0HbNPV1QUHBwfG9Hwwbf5fU1MTnJ2dGZMgAz2rpGUyGeN7/3SJ6smTJyEQCJCcnAxXV1d4eXnBwcEBJSUl0FJaZImycKjiELJEWRYrDF1SUgIHBwd4eXnB1dUVycnJEAgEOHnyJCoqKhiVWPXH398fMpkM7e3tox2KHpfLhZOT05irv2cpLBYL9vb2RhNAFxcXuLm5obS01IKREUxEhoCJ6zLY8C/Q0wNob29voYgGx7QFKUzcj7iyshIBAQGMqG82EJqmcfnyZdTX12PmzJkG9RNZLBYmTZqEk2kn8WLhiyjpvjrk5WnniY3xG7EwYOGIxdbV1YWKigrMnTtX/8XHysoKkyZNgpeXFy5cuIDu7m5MnDiRMV+MrmVlZYWAgABUVlYOuKp0NOjKwTBlygSTEkAAcHBwGLSXWTcMTFYCj2+kB5C4LqYkgLoeQKZgUgKo1WrR0tLCqARQqVSisbHRaF3H0UZRFPLy8iASiTBnzpx+i2dnibOQpchCHCvO4Prm7uYR3ye4oKAA/v7+/fY0u7m5Yc6cOWhsbEReXp7JPYEff/wxgoKCwOVyERsbi4yMjAHbHjhwADfddBPc3d3B5/ORkJCAI0eODPlxBAQEoLGxkTFDrkBPAtjS0sKYXUF0pWCYwsHBwWgPIEDmARI9SAJIXBdTewCZkgAybQFIZ2cn2Gw2HB0dRzsUvdraWjg7OzPm/+xaNE0jNzcXHR0dmD17dr+9y1pKi23nt+GY4hiCrIIQYhVy9f7oSbhGap/g5uZmtLa2YsKECQO2sbe3x+zZs9HR0YGcnJxBk8B9+/Zh7dq12Lx5M3JzczFnzhwsXbp0wFW36enpuOmmm3Do0CFkZ2dj3rx5WLZsGXJzc4f0WBwdHeHs7Iza2toh3W8k8fl8sFgsSKXS0Q4FQM/KW5lMNqrzTXuzt7c3uQeQGN9IAkhcl9LSUpN6AJkyBCyRSMDj8RizAEQsFsPJyYlRw4A1NTWMGV67Fk3TuHTpEjo6OpCYmDhgaZWc5hw0dTehm+5GqiIVN/NuBrvXn7uh7hNsKoqicPnyZUyYMGHQQtM8Hg+JiYno6OhAfn6+0SRw+/btWL16NdasWYPIyEjs2LEDfn5+2LlzZ7/td+zYgQ0bNmD69OkICwvDG2+8gbCwMPz2229DfkwBAQEjWt5lqFgsFqOGXW1tbcHj8RgTj6lDwGQOIEESQGLYaJpGSUmJ0RXAuv1TmdKbxKThX4B58XR1dUEmk8HLy2u0Q+nXlStXIBKJkJiYaHTRTO/9f88pz4ENNqbb9J3v1N8+wdejqqoKNE2bXH6Gy+UiMTERjY2NKC4u7reNSqVCdnY2Fi1aZHD9okWLkJmZadJ5KIpCZ2fn1Z1IhkAoFEImkzFq9TLThl2ZFI+DgwOUSqXRHkldDyDTFyIRI4skgMSwSaVSdHV1wd/ff8A2XV1dsLGxYUyPm0QiYVTCxbQEUCQSwc3NjZGLP1pbW1FeXo6EhIRBd/TQ7f8LAFpo8af8TyzgLgCPxRuw3fVSqVS4cuUKoqOjh1Q6x87ODgkJCSgrK0Nra2uf21tbW6HVavuUCfL09DR5New777wDmUyG5cuXmxyXjrW1Ndzc3Bi18tbJyYkxPW4As+LR/b01lrD7+fmhs7MTnZ2dFoyMYBqSABLD1tDQAB6PZ7Qqv1wuZ9QOCLohVybQ9cowJR6AmSuSAUCj0SA3NxeRkZEm7QIR4xEDTztPsNAztF6iKUGtthbzufMBACywILQTIsYjxmwxXrlyBS4uLsOq58jn8xEZGYnc3FxoNJp+21w7TYCmaZOmDnz33XfYsmUL9u3bN+w9a3Urb5lCIBBAKpUyaiEIUxJAoGd6gUKhGPB2JycncLncQXcNIW5sJAEkhq2xsRHe3t5GP4QUCgVj6tvRNA25XM6Y+YhSqRRsNpsx8ahUKrS3tzMyASwsLASPx0NwcLBJ7XX7BAPQJ4F/yv9EnE0cPNk9Cdpz8c+Bw76OLe4oLVCZAeT/CGlRKqqrqzFx4sRhHy44OBhcLheFhYUG17u5uYHD4fRJwJqbmwdNNvft24fVq1dj//79WLhw+GVvPD090d7eDpVKNexjmJO9vT3YbDZjFoLY2dlBLpczZkiVy+UaTQBZLBa8vb3R2NhowagIpiEJIDFsjY2Ng84VUyqVjEkA1Wo1KIoadHK+peiGf5myAKSpqQl8Pp9RPbZAzxBoTU0Npk6dOqTnSrdPsIddT69XK9WK88rzuN3hdryT9M711QEsPAjsiAa+uhX0T6uRn30GQe1pcKxNHfYhWSwWpk2bhpqaGoOhYBsbG8TGxuLYsWMG7Y8dO4bExMQBj/fdd9/hgQcewLfffotbbrll2HEBPQkOn89HU1PTdR3HXHQLQZgy747L5YKiqAF7by1tsAQQALy8vEgCOM4xb6IPMWY0NDQMmgAqFArGJBQKhQIcDgfW1tajHQoA5s1HZOLwb++h3+EsJNLtE5zTnIOW7ha42riiPb8dUTZRyBJloaW7Be527ojxiDG9N7DwILD/Xv1FkVMMpFw/xBd9AFR+Diz/Boi6bcixAj0T+HVDwfPmzdPPxVy/fj3uvfdexMXFISEhAZ999hlqamrwyCOPAAA2bdqE+vp6fP311wB6kr/77rsP7733HmbOnKnvPeTxeMOecqCbc8iU3WF08+6YsGLdysoKHA4HCoWCEX9fbG1tTUoAyRDw+EYSQGLYTOkBVCgUjElymDQcDfT0AIaEhAze0AJomkZLSwtj4tG5cuXKkIZ++8NhczBdeHUF8J9NfyLlfArelbwLLXrqAJq8OwilBX57Sn9Ry7LCZZ+7Edn4I6y13T1X/vYUMOEWYJjDy8HBwWhsbNQvKAGAFStWoK2tDa+88goaGxsRHR2NQ4cO6ZOfxsZGg1Itn376KTQaDR577DE89thj+uvvv/9+fPnll8OKy9PTE5WVlSbPPRxpAoEA5eXlox0GgJ4eSV2vGxNqenK53EF7R0kPIEGGgIlhMzUBZErSxaThaIqiIJVKGZMcd3d3Q6PRMGpBikqlQlVVFaKjo82WcKRUp2Dj5Y2QU3Ik2Cborzd5d5CqU4D86t64Fe6LYaVVIKAt7WobeXtPu2FisViIjo5GVVWVwZy7Rx99FFVVVVAqlcjOzsbcuXP1t3355Zc4efKk/vLJkydB03Sfn+Emf0BPj5tGo4FcLh/2McyJaQtBTBl2tRQyBEyYgiSAxLDpFoEYw6Ski0nJqEKhAEVRjFkAIpFIwOfzweFcx6IIM6usrISzs7PZkmTd7iAUKBySH0IyNxkOrJ5hZZN3B6m8uv2awsoJxcLbMKl+D1igB2w3HAKBAM7OzqisrLyu45gTh8OBo6MjY1a72tnZgaIoxiRdpgy7WoopsZBFIARJAIlhG6wHkKIoxiWATFkAoouFCUNpALPK4wA9eyRXVlYiNDTUbMfU7Q4CAJWaSpSpy3AT9yb97SbtDtLrv6vI+054Si/BraufAs5m+G8NDQ1FZWUltFrzb1c3XEwqd8JmsxmVdHG5XMbsmczj8aBUKo32jpI5gARJAIlhE4vFcHZ2HvB23fAVk5IuJiWjTIkFYGZBaisrq2HXrevPtbt+HFYcxiSbSfDmeBttZyBgNgCgwy4I9c4zMLFhn9F218PDwwNWVlaMWXkLMKvgMcCspItJQ8C6v7nGyvY4OzszZhU1MTpIAkgMW2dnp9GVmWq1Gmw2e0i7IowkJvVGMikWmqYZ1wNYW1sLPz8/s/aQXrvrh5gSI1OZiVt4txhtZyBoDmieM/J9ViGk+TDsVH137gDPBQiac93xslgs+Pn5MWofXl3plbFS786SmBSL7u+usbI0Dg4OZCeQcY4Zn8zEmKPVaiGXy42ueNNqtYzaUoxJvW5MikUulzNqAYhcLkdzc7PZy41cuzsIAKQr0uHMdsZk68mm7Q7C5qA+6T3IbVwR1vRb/22WvTfsFcDX8vPzQ3NzM2MSCycnJ6jVasYsBGHSEDCTYgF6StMYSwAdHR3R3d3NqCkGhGWRBJAYFt0+k8YSQI1Gw5gEkKZpxs0BZEoC2NXVBTs7O8YsAGlpaYFAIBh0v9+h6m93EBVUOCI/gsW8xbCGNf4R/g8cqTqCLFFWv4tBNBoNCiRcRPm5wMre1fBGR+/rqgHYHzs7OwgEAjQ3N5vtmNeDw+HAzs7O6D6zlsSkXjcmxQKYlgACgEwms1RIBMMw49OZGHN0HwDGVrEyKQHUaDTQarWMKkrNlDl3TEpGgcHnll4P3e4g285v0y8IuaS+hFm8WVhgvwAf5X2kb9tfbcCysjLweDz4zlgExN8KVGcCXU2AgycQkGi2nr/enJ2dIRaL4e/vb/ZjDweTEh1T6t1ZCpfLhVarhVqtZkQx6MESQN3f7q6uLpP21yZuPMz4dCbGnM7OzkF7jZiUACoUCrDZbMbEw6Q5gExMAIOCgkbs+NfuDlIjrcEvl3/BaofVyGRlQkL3JBS62oDbk7djYcBCdHd3o6ysDLNmzeqZm8jimGWu32CcnJxQXV094ucxFVl40T9ra2uw2WwolcoxkQBaWVmBx+OReYDjGBkCJoalq6tr0K25mJQAqlQqRpVdYVLSxaRkVFcge6TnI+p2B1kcuBg/lv6Iem09CtQFWMxbrG9zbW3AgoICeHt7j1jv5ECYtvCCSXPdmBQLi8WCra0tY5JjDocz6N7EDg4OjBnOJyyPJIADeOCBB8Bisfr8lJWVmeX4X3755agPAe7cuROTJ08Gn88Hn89HQkIC/vzzT5Pu29nZOeiWR0xKACmKYsxqZCbWR2RKLKbMLTWn3rUBj8qPIsI6AgGcq3vL6moDnik7g6amJkRFRVkkrt50zwVTemqY1OtmSr07S2Kz2YyJxcrKatAFHo6Ojia9rgIDA/t8Fvr6+porVDzwwAP429/+ZrbjDYdSqcQTTzwBNzc32Nvb47bbbkNdXd2oxjTSmPHpzFBLlizB7t27Da5zdzdSImKUDHfOia+vL7Zt26YvtvvVV1/h9ttvR25uLiZOnGj0voP1ANJaLeTV1aBkMsjOnYddXCwAoPtCNjQtLbBydx/wOtYILEagaRpsNhu0VgvZ+fPoPnceAGA3Ywbs46frz0mpVOj49juoamth4+cHwYrlkOflDdh+SDFotei+kI3uvyb0Wxk5hq7tQM/LYLebGoumpQUyNgvOXV2QXCkGx9UFAAvatjaD33ufw5RzDze+jvZ2OLDZkP5xaERfDzq9a/510p1IU6ThFt4t+Ey8E3MvB8KpmweJnQKtHq2ICo8alUSZxWLp6+/1N1dLS9E4X9mO5k4FPBy5iA9yAYfNGnKb/trFBjgju7oDzZ0KuNnbAiygtUkOa3kXtBTd5xgqDYWvMquQVdUOnjUbUd5O8OBzIeT3PWfvc+mP3aU0Gt+1dH/3vswoQ5VYhQAXO9ybEAgbK7bRx6ylaJytaMOZ8jYANBKC3TAzxNWkcw5ES9FQaChklrXATcICaKBVNrTHYy5aikaHXIvG2nY0QzDg+U1NAAHglVdewb/+9S/9ZaYsGutNq9WCxWIN68v+2rVr8dtvv+H777+Hq6srnn76adx6663Izs5m5GM1B5IAGmFrawuhUNjvbb/99hu2bNmiHxa6//77sXnzZn2P1/bt27F7925UVFTAxcUFy5Ytw1tvvQUHBwecPHkSDz74IADohyRfeuklbNmyBSwWCz///LPBtyGBQIAdO3bggQceQFVVFYKCgrBv3z58/PHHOHv2LHbu3IkHH3wQu3fvxltvvYXKykoEBgbiySefxKOPPjrg41u2bJnB5ddffx07d+7E2bNnB00AdUOq/ZEePYqmN7ZCPGUKtDwean75Bey/ejupXkVk+7vOSiiE5382gb9okdHzDxVFUaC6ulAya7bB+do++QRsgQBer7wM+cWLaN/9JdDrG3zztm0Gx+ndfigx6p4TjUgEjYMD8MLzqFy8BMJNG/scp3dbnd7Py2C3DyUWAOje8CwkPx2Aurzc6P2shELwb7kZ0j8OGT33cOOTHj2KmsxMsLq70XDwtyE/ruG4tuZfpjITc+kEPFp+C6QN+QBk8HONgKatCxlHP0L4u++NSByDcXJy6nexw+HLjXj5t0I0Sq72yHk5cfHSsigsifYyuc1A7dgsgLpm5DmcT2F5CIXZb54wOMbWQ4X4LKMSvUeqf714daux3ufs71y99Rdff/57pBhRAN5NKUGnuudv6euHirAg0gOX66X9PmYA2HggH+Jutf62D1PLIbCzxrY7Jg16zv7oHs99AXL8lleOQrHhFn6mPh5z0MUy20UGuQb4/XDzgOe3sbGBWq0e4EiGHB0d+/08pGka//3vf/HJJ5+gsbER4eHheOGFF/DPf/4TQE9S9n//9384ceIERCIR/P398eijj+Kpp54CAGzZsgVfffUVgKufh6mpqQCAefPmoaOjQz9alpeXh2nTpuk/47788kusXbsWe/bswYYNG1BSUoLS0lL4+Pjg+eefx969eyEWixEdHY0333wTycnJ/T42iUSCL774At988w0WLuxZ9LVnzx74+fkhJSUFixcv7vd+Yx0zxsTGmCNHjmDVqlV48sknUVhYiE8//RRffvklXn/9dX0bNpuN999/H5cvX8ZXX32FEydOYMOGDQCAxMRE7NixA3w+H42NjWhsbMQzzzwzpBiee+45PPnkkygqKsLixYvx+eefY/PmzXj99ddRVFSEN954Ay+88IL+jTUYrVaL77//HjKZDAkJCYO2H2hIVXr0KOqfWguNSASazQLonmSKEosNEq+BrtM0NaH+qbWQHj1qUtymkuXmQlNb2+d8ujjqn3wK7V/sMkj+BqJrb2qMvZ8TAKA5Pc+bRiTq81ivbauje16a/vtfo7cPFlN/x6dsbMA2YUhPIxKh/YtdRs89WPwDxae7n4rNhlWv/6ORej3oXFsb8OZzoei4cBYukyeDbW0NtrU1XKZMR2vuWYgbyvHFU0+MSByD4fF4fYZdD19uxL/35PRJokQSBf69JweHLzea1MbYsa5N/gBArmXBlm14jK2HCvFpumHyd63Gv9pvPVTY77mMxdcfXcIJ9CSqvWM+Vtjc72N+ZE8OHtmTY5D86Yi71XhkkHP2p/dzp6UNYxnK4zGH3rHQgH5LwoHOb44h6+effx67d+/Gzp07UVBQgHXr1mHVqlVIS0sD0PNZ4evri/3796OwsBAvvvgi/vOf/2D//v0AgGeeeQbLly/HkiVL9J+HiYmJJp+/u7sbW7duxf/+9z8UFBTAw8MDDz74IE6fPo3vv/8ely5dwp133oklS5agtLS032NkZ2dDrVZjUa8vmt7e3oiOjkZmZuZ1PDvMRhJAI37//Xc4ODjof+68804APT1lGzduxP3334/g4GDcdNNNePXVV/Hpp5/q77t27VrMmzcPQUFBmD9/Pl599VX9C97GxgZOTk5gsVgQCoUQCoWDLqi41tq1a3HHHXcgKCgI3t7eePXVV/HOO+/or7vjjjuwbt06g5j6k5+fDwcHB9ja2uKRRx7Bzz//bNI8p/4SQFqrRdMbW6H/FGCxwBrqxPW/2je9sRW0mQqU0lotxD8dAMvMc3NEr78xaIx9nhOgp1SIVqt/bnSPtd+2+gPRAE339FAOdDuMP28DHZ9ms6/vuel1btHrbww5vt5x0dbWYPfukRiB10NvvWsDcjSAazsLsroqqCRiOE+cBufoGKjE7ZDVVQEAJE1NkI3CXDwOh2PwQa2laLz8WyH6e3fprttysABbDhpv8/JvhVBpqAGP1R/qryRH1/6lXy/j84xKo/fp7fOMykHP1Ts+bT9ZqEpD/XUcVk88JpzX1Me35WBBv+fsz7X/DxT6TwAHezzmcG0sdK/nZaDzDyUBfO655ww+D99//33IZDJs374du3btwuLFixEcHIwHHngAq1at0n/2WFtb4+WXX8b06dMRFBSElStX4oEHHtB/Hjo4OIDH4+lH3IRCIWxsbEx+3Gq1Gh9//DESExMREREBkUiE7777Dj/88APmzJmDkJAQPPPMM5g9e3afKV06IpEINjY2fRZ4eXp6QnTNl9kbCRkCNmLevHnYuXOn/rKublJ2djaysrIMevy0Wi0UCgW6u7thZ2eH1NRUvPHGGygsLIRUKoVGo4FCoYBMJjNaO89UcXFx+t9bWlpQW1uL1atXG8zRMGV3h4iICOTl5UEsFuOnn37C/fffj7S0tEGTQN1ci97DB90XsqHs6AD+GhqmrKwBFgvaYRRf1nZ0QHo+Sz9P8Hp0X8iGSi4HaHpYsQxEKxYPGuO1zwkAaLhcsChKH4vusQLo03bIMRl53vqLBQBoDgcUh3Pdz422o6PnFyPH6S++3nFRNjagafSJxZyvh2sleSfhnTnv4PjOLwCOEixYo+1SFnwW3ALQQP3x38Gy0s2xVePnt7dhxfNbzB6HMWq1Gp2dnfr32/nKdrR3yWFrZGpSh6ynB8xYm/YuOfZklg96rN5sOTQcrHv+BQBxtxLWI9SV0N4lx9myZsQHuRhcv+dMFazZPednswAHaxrdZvp+0CFT9HvO/lz7/yCwAZxsaP1zc62BHo85XBsL3wbQ0jCI5drz19bWokP3vh3Es88+iwceeEB/2c3NDYWFhVAoFLjpppsM2qpUKkybNk1/+ZNPPsH//vc/VP9/e/cd1uZ5vg340kISEpLYey8DxmbYLOOZ4YwmbYaT/JK0aZs6s1/TxNlN0qxmNHHSkSbNaJO0dbPTNK6zPbAZxmbYYMCA2XtKCAGa7/v9QSQjAwIzpBdzn8fBYSMeSTdCoEvPbGnB2NgYjEYjUlJS5vaNnsHNzQ2rVq2yfV5WVgaWZREXF2fXzmAwwNvb+8yrO8SyLGd2jlgMFAAdkMlktgUSEzEMgyeeeAJXXnnlpK9JJBK0tLTgkksuwW233YannnoKXl5eyM/Px8033zzjfAsejzdpu4eprjMxRFrfwb355pvIzMy0azfT5FU3Nzfb97hmzRocPXoUf/zjH2fsOWRZFsPDw/jiiy/sv/DkE5PaDuXMPKQ8lYbeHuDM25+ra8Z7bxumqG8+ZlXjNPc5sZaG3h6HbRespmluv+3//XLe9ztbU9Y3oa6xmBj0XfGj2V1vAWXn/t+Ul4dunVzLpOe9k0y8399nLNCNqqvndFu/z3DOEWL9NYfxRY39Zd6w//7vXbWwvftT3ed0znzsro5kcXXk9I/N2dz22Zrq55juY1/LxPtvb2/Hl19+iVtvvXXG2/bx8Zn0emh97dmzZw+Cg4PtvmadI/7hhx/i7rvvxs6dO5GdnQ0PDw+88MILKC4udnh/1hGmia+HU70WSqVSu5DGMAwEAsGUizemG2kLCAiA0WiEWq226wXs7e09q+HopYYC4BykpaWhtrZ2ynAIACUlJTCbzdi5c6ftSWzt7rZyc3Obcom+r68vurpOz9Oor6/H6Oiow3r8/f0RHByMxsZG3HDDDWf77dhhWXZW+1jx+Xx4eHjgkksusV02WlKKtttus33ev/VCgM+Hz5dfzamW0L/+dcF6AGte+TOGsrIQ/Nbf5n17E81U45mPCQCYvLzQ+ss7Ef3kU3a3A2BS24WsaapaAKDp4YcQ9NbfIHbScWNn1jexrs4f3wh5VTUUZWUzXm+hffD04+g9VQ0AkAYEwz9rA8DjoafwAMZ6Om3t/GISnd4D2Nraiu7ubmRkjL/CH2kaxM/fPbogt/3A1ng8/3XtrNsHSFncnsDgt2XOWRn595vWTuox+2dRs63mZ9ZY8GIlH4OGheupmeo+p3Lmz+GOBAvye3ioGJy+S3S2t322zqzl8jAGFhbY02Zfy8T7z8nJwXXXXTfn+0xMTIRYLEZrays2btw4ZZtDhw4hJyfHbkFiwxkLzqZ6PbTuuNHV1WULZceOHZuxptTUVFgsFvT29mL9+tlt1J6eng6RSIRvv/0W11xzje1+T5w4gd///vezuo2liALgHDz22GP4wQ9+gNDQUGzbtg18Ph8VFRWorKzE008/jejoaJjNZvz5z3/GZZddhoKCAvz1+xd4q4iICOh0OuzduxerV6+Gu7s73N3dsWXLFrzyyivIysoCwzB44IEHZrXFy+OPP45f/epXUCgUuPjii2EwGFBSUgK1Wo177rlnyus8/PDDuPjiixEaGorh4WG8//77OHDgAL76aubAxufzwbKsXW2KjLUQe3rC3NMDsCz4JjNYkRCCs90YlceD0N8fijlut3ImRcZaiL4/Au6sa3FAMIsaz3xMAIDR6wE+f7yWCd8rgEltJ+HzbfMBJ5nhcZuqFgCAxQK+2Ty/x+b7+2ZZFpbe3rOqb2JdfKMR4PHsa1ng58N0rrj3Qby+/WawGIPP6jUYrCgFAPikrEXrF58ALAsezx1X3PugS056EAqFtvvNivGDl1yKbutk/zPwAPgrxAB46NFO3yZAKcGNOdF4s6B12ts6k5kZH1o0WMaXzvh5uKFPZ5xywchU98mbYmXxdG0DlBJkxfhN2sLkxpxoPP1lnW0+ot7Mg8GyMAEwQCGe8j6ncubPgc8bf1ymqsXR97MQzqyFYQETA1stU92/dXusufLw8MC9996Lu+++GwzDIDc3F1qtFoWFhZDL5bjpppsQExODf/zjH/j6668RGRmJf/7znzh69KjdaT8RERH4+uuvUVtbC29vbyiVSsTExCA0NBSPP/44nn76adTX12Pnzp0z1hQXF4cbbrgBP/nJT7Bz506kpqaiv78f+/btQ3Jysl2nhZVSqcTNN9+MHTt2wNvbG15eXrj33nuRnJxsWxV8LqJFIHOwdetW/O9//8O3336LtWvXIisrCy+99BLCw8c3kE1JScFLL72E559/HitXrsSuXbvw7LPP2t1GTk4ObrvtNlx77bXw9fW1vcvYuXMnQkNDsWHDBlx//fW499574e7uPmNNv/jFL/DWW2/hnXfeQXJyMjZu3Ih33nnH4ZFaPT09+PGPf4z4+Hicd955KC4uxldffTVpPsdUppo8zBMI4P/wQ99/whuf1H+28ye+b+//8EML9mLPEwiguuoqsAscHgJ+8/CMNU56TACAsQB8Ptjv//Bav9cp29puiAfwePD62U+n/zocP27T3T6PYYD5PDYT7jvgNw+fdX0T6+KbzWAnhqtFeD5MR+bhAaW/P5RxiWBZYKi+GkP14z2CytjxObFKf3/InLRJ9UTWYS0rAZ9n29LkzN8w6+ePX56Exy933Oa3lyXCTcif9ramIuCPhwtr2yd+uBLb18/+6L7t6yPHg6CDNhPrmyosuQn5398OCz5vPJDOZLZ/iR6/PGnWAe3Mn8NU2+ZMvO/pvp+FcGYtvAkLdaa7/4XYIP+pp57CY489hmeffRYJCQnYunUrdu/ebXvtue2223DllVfi2muvRWZmJgYGBiZtT7Z9+3bEx8djzZo18PX1RUFBAUQiEd577z2cPHkSq1evxvPPP4+nn356VjW9/fbb+MlPfoIdO3YgPj4el19+OYqLixEaGjrtdV5++WX86Ec/wjXXXIN169bB3d0du3fvPmf3AAQAHsuV84XIkvLJJ5/g+eefx5EjRyZ9zboPXPf3+wD6f/YZBCrV+LvSCVt8THXZYu371tPTg8riYoQ+8+ykrWAc7QM4lYXYB7Dx0UeQ8Mc/IeDBB1y+D2DTjnvgt3s3ZHVTb5Ew8T4Wex/AioMHYWKBgE8+OevvayEYDAZ8sXs3uvMPYrSrEQDgHhgC/3VboCk+jJ+/+JJT6jhTeXk5xGLxpMVZrtgHcIWKwRXhDN5pls+4D+BEi7EP4LN7qpBoPoXfHBVAZ+bZaj7bfQABLMw+gBE6fN7CR43GPlS5Yh/A9V4jGDEDe9oE097/2rVr8dBDD005n52c+ygAkjnZs2cPHnroIVRUVEz5ddZiwYkDBzAyMoJk/wCXnwTS29uLyspKbNm0yeUngYz19qKAseCSiy6CaJoVs848CeQ4n4cAiQT+o2MuPwmko60NJysqsIaFU04COdPx48eh1+uxMjER//n97zA2OAyplwcit/4Acg8PrF692mm1TLR//37Ex8cjKCho0tecfhJIdwdEejW2btno8pNATCYTvvjiCwyoEtGsMbj8JJAvv/kWFmUIfHz9XH4SyHeHiqCHCH4hUdPef3JyMp5//vkph0XJuY/mAJI5kcvlDo8Q4gkEcI+IwNjAAGQZp5emyTInL1Ob6rKFZl1dzRMIIM/Ohnyaza75bm7w/ulNdpc5an9WNQgEkGVmwJ1lwdu9G0azedoAaG07023NtxYAkJWWAh4eUJ6xbcJ87nuu9am8vDBisUB+6aVOH3oZGhpCW1sbNm3aBJlcjhufOn0KjE6nw/79+xEZGTnlcWyLyWKxYHh4eNotnQR8HrKjHW9vMZs207U78/M6ZhDDw+bph2Y3RGH7hqg53dfZMhqN4PF4+NmGmEnbdTi6fQGfh3UxPlgX4zOv+z/zNiVCPlbH+MLXd+Fud661eEqF8Pb2QrSDx3h4ePis96Al5w6aA0jmxMPDAzqdzmEboVAIs9nspIocEwgEMx6M7iw8Hg9isXjSyQ6uwqVa3N3dIRQKodVqnXq/LMvixIkTiIyMnPIFUS6XIyoqCpWVlZO2aVpsWq0WQqFwVnOBnUGv17vkTOSp6PV6iMVizuzVZrFYODNnzGw2244mnY5Op4OHC+a0Em6gAEjmZDaHiHMpAIrFYhgMBqe/eE9HIpHMarsdZ5BIJJwJgDweb9pzbxdTV1cXhoeHJ20eO1FcXByGh4fttmlyBo1GA5VKxZmQYw1dXMClMGrdQosrj81sAuDw8DAFwGWMAiCZE7lcDoPB4HBjay4FQIlEApZlYTQaXV0KAG6FLi7VAgAqlQqaKc5sXiwWiwVVVVVISEhwuL2LSCRCQkICqqqqnNqbPDQ0NOOJPs7EpdDFpVqsbzC5Us9MAdBoNMJoNNIQ8DJGAZDMifVdo6NhYC4FQIFAAKFQyJmgw6XQxaVagPEAODg46LT7a2hogEgkQlhY2Ixtw8LCIBKJJm1ku5gGBwcnnVHqSlwLXVyqRSQSLZkhYOvfbuoBXL4oAJI5sc5HcjQMLBAIOBMAAW4FHS7Nu/Pw8MDY2NiMxxQ6i5+fH0ZHR50yDDw2Noa6ujokJyfPaoiVx+MhOTkZdXV1GBsbW/T6hoaGMDo6ajsVwdVMJhPGxsY4Exq4FEa5VAswcwAcHh4Gj8fjzNxS4nwUAMmc8Pl8yOXyGXsAubLwAuBWAORSLWKxGBKJxKnDro6IRCIEBgaira1t0e+rpqYGAQEBZ3VIvLe3NwICAlBTs0gHuk7Q2tqKoKAgl5w8MhWNRgOpVMqZeW5cCl1cmhsJzK4HUC6Xc2ZuKXE+CoBkzmbaCkYkEoFhGM6EQC6FLi4tAgHGh12dvfDCkbCwMLS1tS3qc2dwcBCdnZ2TNleejcTERHR2dkKtVi9CZeMsFgva29sdnl7gbBqNhnPzEbkSurgURs1mM1iWnbEHkOb/LW8UAMmceXl5YWBgYNqvu7m5gcfjUeiaApfCKOD8hRcz8fHxgZubGzo6Ohbl9q3bvsTExMxpCMzd3R0xMTGLui1MR0cH3Nzc4OPj2j3lJhoaGoJKpXJ1GTZcmgPIpQBoMBjA4/Hg5uY2bZuBgQF4eXk5sSrCNRQAyZwFBQU53BKDa/vdcSl0icViGI1GzvSOci0A8ng8REdH49SpU4sSsNrb26HX6xETEzPn24iJicHY2Bja29sXsLJxLMvi1KlTiImZvMGxK1m3pOECi8UCo9HIqdDFlVpmsz9iV1fXlCfLkOWDAiCZs8DAQHR2djpsw6VeN66FUaFQOONm2s6iVCoxMjLCmYUgABAaGgqj0Yje3t4FvV2z2Yzq6mokJibOuE+aI0KhEElJSaiurl7wxU69vb0wGo0ICQlZ0NudD5PJhJGREc4EQJ1OB6FQSEPAU5hNLZ2dnQgMXPyziQl3UQAkcxYYGDjjprhc6nXjUi3WDY+50usmkUgglUoXdU7b2RIIBIiNjUVlZeWCBqz6+nq4u7sjODh43rcVHBwMd3d31NfXL0Bl48xmMyorKxEbG8uZLUUAQK1Wc2oBCG2QPb3ZBMCuri4KgMscBUAyZzMNAQPcCl3W3kiunAbCtWFXPz8/9PT0uLoMO1FRURCLxQu24nZkZAQNDQ2z3vZlJtZtYRoaGjA6OroAFY6vTBaLxYiKmvk8XWfq6emBn5+fq8uw4dKCFOspIFzpAZxNLTQETCgAkjmbTQ8g14ZdGYbhzDCnK448cyQgIADd3d2cCcjAeMBKTU1FS0uLwwVHs1VVVYXg4OAFHcZUqVQIDg5GVVXVvG+rv78fLS0tSE1N5UzPFjAecLq7uxEQEODqUmy4NB/RZDKBYRjOBEDqASSzQQGQzNlSGwIWCoUQCAScqce69QrDMK4uBQDg6+sLg8Ew4xnPziaXy5GQkIDy8vJ5DQX39/ejr68PCQkJC1jduISEBPT29qK/v3/Ot2E2m1FeXo6EhATObc8xPDwMg8HAmQ2pGYaBVqvlTA+gXq+HUCic15zShTSb4WgKgIQCIJkzawB01GPEpUUgACCTyTiz8MK6CStXApdAIICvry+6u7tdXcok8x0KZlkWlZWViIuLW5ReGolEgri4uHltC1NdXQ2JRMK5oV8A6O7uhq+vL2fmJA4PD9s2o+cCnU7HqRM1ZuoBZBiGAiChAEjmLjAwECaTyeHQnLu7O0ZGRjgzrMileXc8Ho9T9QCnh4G5ZuJQ8Fzqa2lpgcViWdRwFRUVBYvFgpaWlrO+bnd3N1pbWzk39GvFxeFfpVLJmceKS8PRLMtidHTUYSAdGBiA2WymALjMUQAkcyaTyeDt7Y3m5maHbSwWC2d6Abk2745r9fj7+0Oj0XBmmHwiuVyO1NRUlJSUnNV8QKPRiJqaGqxcuXJRe7AEAgGSkpJQU1NzVvNMBwYGUFJSgtTUVM70aE2k1+uh0Wjg7+/v6lJsuBS4AG7VYzAYYLFYIJPJpm3T3NwMHx8fTvVaEuejAEjmJS4uDnV1ddN+XSAQQCqVcmbY1drjRj2SU5NIJPD09Fy0EzjmKzg4GCtXrsThw4dn/bjV1tZCqVQ6JcAEBARAqVSitrZ2Vu01Gg0OHz6MlStXLsi2NIuho6MDXl5enFngAIyfSMKV+X8sy3KqHp1OB6lU6vDNTl1dHeLi4pxYFeEiCoBkXmYKgMB4z83IyIiTKnJMqVTCZDJxpoeLawtBACA8PBwtLS2cCclnioiIQHx8PAoLCzE4OOiw7fDwMJqbm7Fy5UqnDBfyeDysXLkSTU1NM87tHBwcRGFhIeLj4xEREbHotc0Fy7JoaWlBWFiYq0uxYRiGU0fSjY2NwWQycSoAztSTTAGQABQAyTzNJgByaeGFQCCAXC7nTK+bXC6HUCjk1AbMQUFBGBsb41RNZ4qJicGKFStQWFjo8KSQEydOIDw8HAqFwmm1KRQKhIeH48SJE9O26e3tRWFhIVasWDGv4+gWm1qtxtjYGKf2i1Or1RAKhZwZLtdoNPDw8ODMApmRkREKgGRWKACSeZltDyBXAiDArWFXHo8Hf39/Ti28EAqFCA0NRVNTk6tLcSgqKgqrV6/GkSNH0NDQMKnHsqenB2q1GitWrHB6bStWrIBarZ60sTbLsmhoaMCRI0ewevVqTq74naipqQmhoaGc2d4EGF+Q4u/vz5kFIFwa/gXGewAdzf8DKACScRQAybxYA6Cj4UIKgI5xceVtZGQkOjs7OTNUPp3Q0FBkZ2ejsbER+fn5tucZwzCorKxEQkIC3NzcnF6Xm5sbVqxYgRMnTtiG93U6HfLz89HU1ITs7GyEhoY6va6zodfr0dnZicjISFeXYoeLK5K5MhwNzDwEzLIsBUACgAIgmaeYmBgMDw87PELMOgeQK3PKrPPuuFKPr68vRkdHORWSPTw84OPj43CFN1d4e3tj8+bNUCqVOHDgABoaGtDQ0AA+n4/w8HCX1RUREQEej4fGxkY0NDTgwIEDUKlU2LRpE7y9vV1W12xZV4p6eHi4uhSb4eFhjI6OcuZIOpZlORUAGYaZcQi4u7sbOp2O01MPiHNQACTz4u7ujtDQUIfDwFKpFDwejzMLQRQKBQwGA2d6t0QiEXx8fDjXCxgdHY2mpqZ5nb7hLEKhEKtWrUJWVhYaGhpQXV2N2NhY8Pmu+xPH5/MRHR2NqqoqNDQ0ICsrC8nJyZwaTp2O2WxGU1MToqOjXV2KnZ6eHvj4+HDmMdTr9TAajU6dY+rI6OgoeDwepFLptG3q6uoQFhbmsA1ZHigAknmLi4tzuO0Fn8+Hh4cHZ/a7EwqF8PDwoGHgGfj6+kIul6OhocHVpcyaj4+PbX+zY8eOoby8HFqt1ul1aLValJeXo6KiAu7u7ra6loqGhgbI5XLOHP1mxcXhXw8PD84EUo1GA4VC4fCNDw3/EisKgGTekpKSUFlZ6bAN1+bdca2egIAADA4Owmg0uroUGx6Ph8TERJw6dYozG3nPZGhoCJ2dncjJycHGjRsBAHl5eTh8+DC6uroWdbsd6/FaRUVFyMvLA4/Hw6ZNm5CdnY3Ozk7OvAGaicFgwKlTp5CYmMiZhRbA+Ibeg4ODnAuAXBn+BTCr7XEqKiqQmJjonIIIp3HjbQtZ0tLS0vDGG284bKNSqTi1ubBSqURfX5+ry7CRSqVQKBTo6enh1OIAb29veHt7o66uDsnJya4uxyHreb9RUVG2VZCpqalISEhAc3MzKisrcezYMYSEhMDPzw8qlQpisXhe92kwGKDRaNDb24v29nYIBAKEhYUhNTXVbuPkyMhIVFZWIjs7C50nq6HTqCFXeSI4IQl8Pje2D7Gqq6uz/dy5pKenBwqFglNDl1w8IWWmDcVLS0tx2223OakiwmUUAMm8paen49ixY7BYLNPuhaVSqVBdXQ2WZTnRq+Dp6WlbvcyFeoDTw8BcCoAAkJiYiLy8PERHR3P66KjOzk7odDpkZmbaXS6RSLBixQrEx8ejv78fbW1tqKysxMjICCQSCVQqle1DoVBAJBJBIBDYnhcsy8JiscBkMkGr1UKj0dg+9Ho9ZDIZvLy8sGbNGvj4+Ez5fIqLi8M3X32Ffz71KAZqTveWy728seWntyI2M2dxH5xZGh0dRXNzs633lEu4NvxrXQASHx/v6lIAnK4nKSlp2jZmsxnHjh1Denq6EysjXEUBkMzbihUrwLIsTp48Oe0fHw8PD5jNZoyOjs64R5UzqFQqMAwDjUYDT09PV5cDYDwANjQ0OAzSrqBQKBAUFISTJ08iLS3N1eVMyWKxoKqqComJiRCJRFO24fF48PX1tc1rM5lMGBoasoW5trY2u4VKEwOglUwmg0qlgre3N6Kjo6FUKqe9v4may46io3A/vFamYbCuGqzFAgDQDQ7g85eeweX3PMyJEFhTU4Pg4GDOLGqwslgs6O3tRWxsrKtLsVGr1WBZljNDwCMjI2AYxuHP7uTJk+DxeC7ZG5NwDwVAMm9CoRApKSkoLS2dNgAKBAIoFApoNBpOBEA+n2/bgJkrAVCpVEIsFqO7u5tz58ImJCRg7969iIyM5MzjNdGpU6cgFovPqvfUuvp64uIMi8Vi9wGMP3cnfpwthrHgmzf+DL1uGMrYRKhWrIK6qtyuzTdvvoLotZkuHQ5Wq9Xo7OzEeeed57IaptPd3Q2xWMypDZd7enrg7+/v0pXmEw0NDcHDw8NhPaWlpUhJSeHUG0ziOtx45pIlLz09HaWlpQ7bcHHhBZdW3vJ4PISFhaGlpcXVpUzi7u6OuLg4lJeX24IRV4yNjaG+vh7JycnzHs4XCARwc3ODVCqFXC6HXC6HVCqFm5vbnF8026orodeNnwvcX1oIz8TVEEjth9L1w1q0VTteSLWYLBYLysvLERcXx8lh/paWFoSHh3NmugbAvSHp2SxIKS0tpeFfYkMBkCyI2QRApVLJqQDo7+9v21iWK8LCwtDf38+ZPRMnsu6r52jLH1eorq5GYGAgvLy8XF3KlNqrTgc7fX8vRjpa4J2S4bCds9XW1oLP53NqiNVqZGQE/f39nJobOzo6iuHhYc5sSA1QACRnjwIgWRDp6ekz9g55eXlBrVYv6lYcZ0MkEsHb25tTvYASiQQBAQGc7AXk8/lIS0tDY2Mj1Gq1q8sBAAwODqKrq4vT21qced5Mf/kRyEMiIPHxc9jOWdRqNRobG5GWlsaZ4cyJWlpaEBAQYLeq2tW6u7vh7e09q/mfzsAwDNRqtcPpGRaLhRaAEDvc+20nS1JCQgJYlnXYO2TdoJRLvYBcGwYGgPDwcLS2tnImKE+kUCgQGxvLiaFg67YvsbGxnNoa5Eyhifbb51jGRqCuOQ6f9GyH7ZzBYrGgrKwMcXFxnFv4AYwHm9bWVpce6TcVLg7/8vn8GReAsCxLC0CIDQVAsiCEQiEyMjKQn58/bRsejwdvb28MDAw4sTLHAgIC0N/fD5PJ5OpSbPz8/CAQCNDZ2enqUqbElaHgtrY2GAwGzp9pGpqUDInc/jxdTU0FBBIpPCLHh1wlcg+EJjk/AJ48eRJCoZCzj2FnZyeEQiGnhlpNJhP6+/s5FQD7+/un3YLIKj8/HxkZGZw5tYS4HgVAsmA2bdqEAwcOOGzj4+OD/v5+5xQ0CzKZDHK5HL29va4uxYbH4yEqKgqNjY2uLmVKE4eCe3p6XFKDyWRCdXU1kpKSOL+ikc8X4MJb/p/dZazFgoHyI/BevRY8oQgX3vL/nL4CuKenB01NTUhNTeXk0C8ANDY2IjIyklOLP3p7eyGXyzmxm4HVwMDAjEcNHjhwAJs3b3ZSRWQp4OZvPVmSrAFw4r5pZ/Lx8cHAwACnhje5OAwcFhYGrVbLmbl2Z1IoFEhJSUFJSQmGh4edfv/19fWQy+UICgpy+n3PRWxmDi6/52HIPE+frqFrbQSjH0PGz253+h6Aw8PDKCkpQUpKCieHfoHx+Z3Dw8MICwtzdSl2uDb8yzDMjAGQZVkcOHAAmzZtcl5hhPOoL5gsmKysLAwODqK+vn7aw8YnzgPkyqrNgIAAHD58GAzDcKYnRCQSISwsDI2NjZydtB0SEgKtVovi4mJs2LABbm5uTrnfkZERNDY2Yv369ZzqGZpJbGYOotdmoqOmynYUnDwoBAUFhRge1kLT2uyUI+KMRiOKi4sRGRmJkJCQRbmPhdDY2IiwsDDOLLQAxsNWT08PsrKyXF2KjUajgUAggIeHx7Rt6urqoFarJ52SQ5Y3CoBkwUgkEmRlZeHAgQPTBkAej2cbBuZKAPT09ASfz8fg4OCMwyjOFBUVhf379yMhIYGTe7MB44t/tFotSktLkZmZ6ZQAfeLECYSEhHBqU+DZ4vMFCE1aZXeZh5sIX/x7F9r37bFdJvfywZaf3rLgPYMMw6CkpAQeHh5ISEhY0NteSKOjo+jq6uLckOXg4CD4fD6nNkPv7++Ht7e3wzdDBw4cQHZ2NqdWUhPX40Z3BzlnzGYeINcWgvB4PNupIFxiHeI8efKkq0uZFo/HQ3p6OkZHR1FdXb3o99fX14f+/n5Oh5ezUV9ciPJdb0Hk5QOp/+nhbN1gPz5/6RnUFxcu6P1VV1dDr9cjLS2N072nNTU1CAoKglwud3Updrq7u+Hv78+px866AMQRGv4lU6EASBbU5s2bZ5wH6Ovri4GBAZdvIzKRdR6go7pdYcWKFejo6IBWq3V1KdMSiUTIzMxEa2srmpqaFu1+GIZBZWUl4uPjIRaLF+1+nIVhLNj3zhuw6MegPlEGn7Qs4Ixgsf/dN8AwC/N70tTUhNbWVmRkZHBqWPVMQ0ND6Ozs5FzIZ1mWc/P/LBbLjCMX1vl/XOtNJa5HAZAsqMzMTNs8wOl4eHjAzc2NU6uB/fz8YDQaMTg46OpS7MhkMkRERDild20+5HI5MjMzUVVVhdbW1kW5j5aWFjAMg6ioqEW5fWfrqKmCbnD8d0BTVwWeQAhFtP0ebcMD/eioqZr3fbW0tKC6uhqZmZmc61U7U01NDSIiIjg37WFwcBBGo5FTW9L09fVBLBbPOP9Po9EgI2Py6TNkeaMASBaURCJBdnY29u3bN20bHo/HuZW3AoEAISEhnDyBIy4uDv39/ZwaNp+Kt7c3MjMzUVFRgfb29gW9baPRiJqaGiQnJ3Nmoc586TQTVngzDPrLiuC9ag34buLp281Be3s7KisrkZmZCW9v75mv4EIDAwMYGBiYdg6xK7W0tCA0NJRT2w5ZeyQdDUnv27cPWVlZNP+PTHJu/CUlnHLxxRdjz549Dttwccg1IiICnZ2dnNoUGgDEYjFiYmJQXV3NqcdrKr6+vsjIyMCxY8fQ1tY2r9tiGBYdtWrUHe1G6eHjUKk84e/vv0CVup5cZb+QYLSzDfrBPnglpzlsdzZaW1tx7NgxZGRkcGqB01RYlkV1dTViYmI4N8RvMpnQ2dnJqRNJWJZFT0/PjL8Te/bswSWXXOKkqshSQgGQLLjLL78c3333HUZGRqZt4+PjA7PZjKGhISdW5phCoYBCoVjw3quFEB0dDZ1O57KNl8+Gn58fMjMzcfz48Tn3qDaU9+IfDxfis5fLsf+DSvT0d+LUt0Y0lHNnw+75Ck5IgtzLPpT1lx2GInoFRAoVgPETQhiWmdM8wObmZlRUVCAzM5NTw5bT6e7uhk6nQ3R0tKtLmaStrc3294ErNBoNzGazw2A/MjKC7777DpdddpkTKyNLBQVAsuDi4+MREhKC7777bto2fD4ffn5+nBoGBsbP4W1paeFcT5tIJEJcXNyS6AUExnsCs7OzceLECdTW1p5VzQ3lvfjq9RMY0RgAsFAlGKBrFWG4y4KvXj9xzoRAPl+ALT+9xe4yk1YD7aka+H5/TrBeN4yPn3oEb95586xXBFvP5K6qqkJ2djZ8fX0XvPaFxrIsampqEB8fz7mjyliWRUtLC6d6/wDYev8cTYn49ttvERYWhvj4eCdWRpYKCoBkwfF4PFx++eXYvXu3w3ZcmwcIAMHBwdDpdNBoNK4uZZKIiAhYLJZ5D606i7e3N3Jzc9HS0oLS0lKYzeYZr8MwLA59cHoBkcTPApGCgfbU6SHB/A/rwTDcD8GzYT0hZGJP4GBlGcSePnAPOn0Cxmy3hTGbzSgpKUFLSwtyc3M5P+fPqq2tDRaLBREREa4uZRKNRoPR0VEEBwe7uhQ71i1pHNm9ezcuv/xyTm1bQ7iDAiBZFNYA6OjIN39/f2i1WoyNjTmxMseEQiFCQ0PR3Nzs6lImEQgEWLFiBU6ePDmrMMUFSqUSGzduhF6vR35+/ow/6656zfc9fwD4LJQr9NDWuYE1n34B06kN6KrXLGLVzhWbmYPtf/kbrn7kaUjkcjAmIwYqSuCTngWc0buzz8G2MKOjo8jPz4fBYMDGjRuXzEbZZrMZJ0+exIoVKzi5wKepqQkhISGc6pkcHR2FVqt1GAAtFostABIyFe79tpFzwrp162AymXDkyJFp27i5ucHLywtdXV1OrGxmkZGRaG9vh8FgcHUpk4SEhMDd3Z3z28JMJBaLkZOTA5VKhby8PIdb7eg0px9zebgJrIWHkbbJe9aNaLn3s5kPPl8APp8PvU4HANA2nARrNkMVl2TXTjfQj+JPP5x0/YGBARw8eBAqlQo5OTmcW0ThSFVVFdzd3Tl5LJ3BYEBHRwciIyNdXYqd7u5ueHl5OTx+8ciRIzCbzcjJce4502TpoABIFoVQKMQll1wy4zBwcHAw5xZdKBQKeHt7c7IXkMfjITU1Fa2trejr63N1ObPG5/OxevVqxMXFobCwEE1NTZPmBTaU9yL/w/HhX74bA0WMAUM1YgCTh69kiqUTcGbLbrsXlkV/2WF4JadBIJHatSv8aJdtKJhlWTQ1NaGoqAjx8fFYvXo1J3vRptPX14e2tjakpqZycpiyubkZ3t7enFr8AYxv7TNTYN69ezcuvfRSTvVcEm5ZOn8pyJJz+eWX4/PPP3fYJjg4GBqNxuGKYVeIiopCU1OTwyFsV5HJZEhMTMSxY8eWzFAwMB5eo6KikJmZibq6OhQVFWF0dBTA6YUf+pHxLXiUcUbo+4UwDE5+8ZJ7ihEYq3Jm6U5x5nYvYz2dGO3qgNeqNZPa7n/3Deh0wygqKkJ9fT2ysrIQGRnJyRA1HZPJhPLyciQmJkImk7m6nEkYhkFTUxPnNh4fGRnB0NAQgoKCHLb7/PPPafiXOEQBkCyarVu3oq6uDnV1ddO2cXNzg7+/P+d6Af39/SEUCtHZ2enqUqYUGRkJd3d3VFXN/5QIZ/P19cWWLVsglUqxf/9+NDU149AHp58jIoUF0iAThk5O3cuXe00s+PylE3Rma8ptYcqL4RERA7Gn/WIOnsoH+/fth7u7OzZv3sz5Pf6mUl1dDZlMxrnhVauOjg4IhULO7T3Z3t4OPz8/h8O/tbW1qK+vx9atW51YGVlqKACSRaNUKnHppZdi165dDtuFhISgra2NU9ub8Hg8REZGoqGhwdWlTInH4yElJQVtbW1LaijYSiQSITU1FWvWrEFNdQ2kMRoIJAxs2740ucEyZv/nSSoX4aJbVyI6lft72s3FVNvCmEeGoamthE/6+DwuobsMQZsvhufKVAR6uCMlJYXT5/pOxzr0m5KSwsleS5Zl0djYiKioKE7Vx7Is2traZhz+3bVrF37wgx9wbuiacAsFQLKobrzxRuzatcthuAsICIDBYODc1ithYWHQ6XScPYLNOhRcXl7OudNLZsvX1w+e5mhY9Hz4547Ac5UeQncLhhsn926s2xZzzoY/q9jMHORsu97uMnXVcYjkHvDL3oTQS66GaUSHti8+hv8S2Nx5Ktah36SkJE4O/QLji2p0Oh1CQ0NdXYodjUYDg8GAgICAaduwLItdu3bhxhtvdGJlZCmiAEgW1SWXXIL+/n4UFxdP20YgECAwMJBzw8AikQjR0dGc3nw5MjISMplsSa0KtrKe9lH2ZTvUJyQYPCaBe6AZ4APSADMA+8dcrloeZ5lmXnktZNYhXx4P8rBI8AQCeIRFoadwH/qOHIJMoURwQpLjG+Io69AvF/f8A05vSh0dHc253tX29nYEBQU5PI/48OHDGBwcpOPfyIwoAJJFJZFIsG3bthmHgUNDQ9HR0cG5RRdcP4Jt4lBwb+/SOSHD/rSPcSIVA6OWB021GIoYA/xzRyHxMwFgz9mFH1OxDgXLgsMRevFV8EpKRV9JIQzqAYi/nyO4+aZbwOdPHwK4qre3l9NDvwB3j6RjGAYdHR2zGv7dtm3bktoKiLgGBUCy6G688Ua8//77DocpfXx8wOPxODefbSkcwSaTybBy5UqUlZVxalPt6Zx52gcACCQMPCKNGKqWYqzLDd0HZdC1iuC50gDfrFGsvswXHM0LC4plWfT29qLHxCBk81YYOlvQsucj6Foa0FdaBK/EFFx81wOIzVx6e7uNjY2hrKwMK1eu5OzQ78Qj6bjW+9fX1wcej+dwwY/JZML7779Pw79kVmiDILLo1q9fD6lUim+++QaXXnrplG14PB5CQ0PR0tLCuVV3ERERaGxsRFtbG8LCwma+gguEh4dDrVbjyJEjyM3NdThE5Gp2p318TxlvwFiPEMah7+tmeRhpdQNvRI64C9zRrW3EwL42REVFITQ09Jzb28xsNqOtrQ2NjY0wmUyIjIxEdnY2+Jdeio6aKug0ashVnugZM2LU1cXOgcViQXFxMfz9/Tl3pu5EXD6Srrm5GWFhYQ57Tr/++mu4u7sjNzfXiZWRperc+itKOInP5+P666/Hrl27pg2AwHjQ+u677zA2NgapVDptO2ezHsFWU1OD4OBgToYrHo+HVatWobCwEMeOHUNaWhpnh9jOPMXDzdMMiZ8Z3Qfte4XSLwlHxg+iwOfzYLFY0NHRgcbGRlRXVyMkJATh4eFQqVROrHzhaTQatLS0oL29HTKZDLGxsZOeY6FJq2z/9xkbw969ezEwMLBkzvllWRbl5eUQCARYtWoVZ5+XFosFJ0+eREJCAuc20x4bG0NPTw+Sk5Mdttu1axduuOEGztVPuIkCIHGKG264AZmZmRgeHoaHh8eUbdzd3eHr64vW1lbEx8c7uULHQkJCcOrUKTQ3N3NubpCVQCDA2rVrkZeXh1OnTiE2NtbVJU3J/hSP8W1fhhvcwBjsX7RC471s+/0JBAKEhYUhNDTUFpry8/Mhk8kQGBiIgIAAKJVKzoYLK5ZlMTQ0hO7ubnR1dWFkZAQhISG2o/Jmql8qlSI2NhaVlZXYuHEj579fAKivr8fg4CA2bNjAyTdPVs3NzRCJRJw8kq61tRV+fn5wd3efto1Wq8V///tfh8dvEjIRBUDiFMnJyUhMTMS///1v3HrrrdO2i4iIQEVFBWJjYzn1LpbH4yEhIQHl5eUICwvj3PwgK4lEgszMTOTn58PDw8PhdhGuEhirgkwlxojGAPcQM/giFsPN9tu+TLfog8fjwdPTE56enkhKSkJ3dze6u7vR0NAAoVCIgIAABAQEwMfHhzNhw2KxoL+/31ar2WyGn58fYmJiEBAQcNbPpZiYGLS2tqK1tZXTw6nA+IKKuro65ObmQiLh7ipuk8mEuro6TvacMwyD5uZmrFq1ymG7f//730hMTMTKlSudVBlZ6igAEqe59dZb8dprr+GWW26Z9o+sv78/eDweuru7ZzzqyNn8/f3h4eGBU6dOISEhwdXlTEulUiE1NRWlpaVYv3495zaD5fN5WH9tLL7+WyWUcQaoq8QAY/98mM1pHyKRCKGhoQgNDQXDMLaQdfz4cRiNRnh5eUGpVEKlUkGlUsHd3X3RX9xZlsXo6Cg0Gg00Gg2GhoYwODgINzc3BAQEIDU1FT4+PvN6cyMQCJCUlISKigoEBQVx9s2IVqtFaWkpUlNTOT9Uf+rUKXh4eMCPg3srdnd3g8fjOZwbzbIs/vrXv+KXv/ylEysjSx2P5erSRnLO0el0CAoKwnfffYeMjIxp29XV1aGvrw/r1q1zYnWzMzg4iMLCQpx//vmc7tEAgJqaGnR0dGDDhg0Oj41yFoZhxxeAaA2QKcRoaq9Hd0c/egrFAMaDmdxTjNxrYue14TPLstBqtRgcHMTQ0BA0Gg20Wi2EQqEtELq7u0MsFkMikdg+ZhvKGIaBXq+3fRgMBlvoGxoagtlshkKhgEqlglKphJeXFxQKxYKGT5ZlUVBQMH4fPMa2SCQ4IYkT28MYjUbk5eUhJCSE02+WAECv1+O7775DTk4OvLy8XF3OJAUFBfDz83M4paO4uBgXXnghOjo6IJfLnVgdWcooABKnuuOOO6DX6/H3v/992jYGgwHffPMNNm7cyLneK2D8j61UKp1xSMbVWJbFkSNHYDabx1eUunBIvaG8F4c+qLet/hW6M/BfP4KYgFXw9FLZQmFgrGpRzvm1WCzQarUYGhrC0NAQxsbG7AIcMH4utVgsBp/PB5/PtwU2lmXBMAwYhoHBYIDRaAQAuwAplUqhVCqhVCqhUCicMvxcmX8QDb39aP3iY5iGtQAAiYcCF9x8B+KyXbcKlGEYFBUVQSgUIiMjg3NDqmc6fvw49Ho9MjMzXV3KJFqtFnl5edi6davDN3E/+9nP4O7ujr/85S9OrI4sdRQAiVNVVFQgKysL7e3tDt9tl5WVgc/nIyUlxXnFzZL1j/KWLVs4u5+ZlclkQn5+PhQKhcvmN1k3fZ7IO20UFgMfmiqJy8/3ZRgGRqPRFgYZhrGFPgC2MMjn822hz83NzaWBur64EJ+/9Ax81+ZCIJWi++C3dl9fc9mV2Hjjz51eF8uyKCsrg1arxfr16zm/XY9Op8P+/fuxadOmaRenudKxY8fAsixSU1OnbTMwMICQkBAcOXJkxlXChEzEnVn2ZFlYtWoV1q5di7/97W8O28XExKCtrQ16vd5Jlc2eQqFASEjIkjh+TSQSITs7GxqNxvZi4kwMw2L/v07aXSb2MUPsZYG2frxH48C/asEwrnsfyufzIZFIoFKp4O/vj8DAQAQFBSEkJAQhISEICgpCYGAg/P39oVKpzmq4eDEwjAX73nkDADBQUQKpXyCkAcF2bUp2f4raw/lOrYtlWRw7dgwajQbZ2dmcD3/A+DSJkJAQToY/vV6Ptra2GXcd+Nvf/obMzEwKf+SsUQAkTvfLX/4Sr776KiwWy7RtFAoFfH190dDQ4MTKZi8hIQF9fX3o6upydSkzkkgkyMnJQX9/PyoqKpwaAjvq1DCMmE9fwGOhWmGAtl4Mxjj+50c/YkJHndppNS11HTVV0A32AwAYgx6DlWXwScvGmUel7P3ba2CY6X/HFhLLsqioqMDAwABycnI4Pz8WALq6utDX18fZOYoNDQ3w8/NzOA3GYrHg1VdfpcUfZE4oABKn+9GPfgSTyYQ9e/Y4bBcXF4fm5maHR8i5ikQiQXJysm3FKddJpVKsW7cOPT09qKqqcloIbD9pH+xkYSaAB+ha7VeudtZSAJwtncb+sRqqqwKPx4My1j7IjGmH0FFTtej1sCyLEydOoKenBzk5OZzaxH06RqMRx48fR3JyMifDqtFoRFNT04x7ef7vf/+DxWLBj370I+cURs4pFACJ04lEItxxxx146aWXHLazbuPR2NjopMrOTkhICDw9PVFZWenqUmbF3d0d69atQ0dHByorKxc9BDaU96JiX5vtc76IgTLWAE2NGGDte6tYbq8T4BS5ytP+ApZFf1kRvJLTwXcT231peHBgUWthWRaVlZXo6urCunXrHG5UzCUVFRXw9PTk5KbPANDU1ASVSjXjquSXXnoJt99++5IYbifcQwGQuMTtt9+O0tJSFBUVOWwXFxeHxsZGmM1mh+1cgcfjYfXq1ejp6UFnZ6ery5kVmUyG3Nxc9PT04Pjx44sWAq0LP8xGxnaZItYIg1oAQ//kF6uQWM9Jl5GpBSckQeJhPyw42tUOfX8vvFal212+/903UV9cuCh1sCyL48ePo6enB7m5uZxfEGXV2dmJ3t5erF69mpMrlM1mMxobGxEXF+ewXWFhIcrLy3HHHXc4qTJyrqEASFzC09MTt99+O5599lmH7Xx9fSGVStHa2uqkys6OdSi4oqLCtp0I11lDYH9/P8rLyxc8BDIMi/3/tF/4IZRbIAsxYahm8nCbRCZEUDwFwNni8wW44ObJL/r9ZYehiIqHm/L0Y6kf1uLzl55Z8BDIMAzKysrQ39+P3NzcJdPzZzAYUFFRwdmhXwBoaWmBVCqFr6+vw3bPPvssbr/9ds5vsk24iwIgcZm7774b3377LU6cODFtGx6Ph9jYWJw6dcq2LQfXLLWhYGB8TmBubi40Gg2OHj26oD2snbVqGEYn3t74eb+6FhHMo5P/5Gy6ccWi7P13LovLzsWay660u8w0PISh+mr4pGdPar/v3TcWbEGI2WxGSUkJhoaGkJubuyTm/FlVVlZyeuiXYRg0NDQgLi7OYe9kZWUlvvvuO9x9991OrI6caygAEpcJDAzETTfdhOeee85hu6CgIPD5fLS1tTls5yrWoeDe3t4lMxQMjPde5ubmwmQy4dChQxgdHV2Q222rG7S/Hz8zRB4MtA3289MEbnD5HoBL2cYbf44f3P0gxO6nh17VJ8ohVnlBFmx/RrBuoB/Fn3447/scHR3FoUOHYDKZOH++75m4PvQLAG1tbeDz+QgMDHTY7rnnnsNPf/pTTp71TZYOCoDEpe677z589NFHaGpqmrYNj8fDihUrcPLkSYdbx7jSUhwKBsZPv8jOzoa3tzfy8vIwMDD/RQO6/gnfP3+8909b5wbWbP+iG73an8LfPMVn5WLLz2+zfc6YjBg4XgKftCzgjL0KCz/aNa+h4IGBAeTl5cHb2xvZ2dmcOF5wtgwGA44fP45Vq1ZxNrRaLBacPHkSCQkJDgNqY2MjPv74Y9x3331OrI6ciygAEpeKjo7G1VdfjRdeeMFhu+DgYIjFYodB0dWW4lAwML4R8qpVq5CQkICioiI0NzfP+bYaynvRVNFv+9wjwgjGzMNIu2hSW7k3N1+IlxoPL2+7z7WNtWDMJqjiJ28MvO+d1+c0FNzc3IyioiIkJCRg1apVLt0Iey4qKirg5eWF4ODgmRu7SGNjI8RiMYKCghy2e+GFF7Bt2zZERUU5qTJyrlpav8XknPTggw/i7bffRnd397RteDweEhMTUVdXx8l9AYGlOxRsFRERgaysLNTU1KCiouKs51xaV/6aDOMBgy9m4BFthKZaDGByj0bIClr4sRCCE5Ig9/I5fQHLoq+0EF4rUyCQ2M/P0w0OoPjTD2Z92wzDoKKiAjU1NcjKykJERMQCVe08nZ2d6Ovr4/TQr8lkQn19PRITEx3W2N3djXfeeQcPPvigE6sj5yoKgMTlkpOTccEFF8zYC+jr6wulUon6+nonVXb2JBIJVq1ahePHjy+poWArHx8fbNiwAQMDAygqKpr1JtcMw+LQB/Y/F2WcAfo+IYzqydu+SGQiBMdRAFwIfL4AW356i91l+t5ujHS2w3v12kntCz/696yGgo1GI4qKijAwMICNGzfCx8dnxutwzVIY+gWA+vp6KJXKGVf+vvDCC7jggguwcuVKJ1VGzmUUAAknPPnkk3jttdccbvdi7QVsbGzk5BnBVsHBwfD29kZpaSlnVy47IpPJsH79eohEIuTl5UGr1c54na56DUY0pwOvSGmBNNCMoZPiKdtvujGeVv4uoNjMHORsu97usoFjxZCHR0PsNTm47Z9hVbBWq0VeXh5EIhHWr1+/ZLZ5mYhhGJSWlsLHx4fTQ79jY2NobGycsfevtbUVr732Gp566iknVkfOZRQACSekpKTgiiuuwOOPP+6wnaenJ/z8/FBbW+ucwuaAx+MhNTUVer0eVVWLfxTXYhAKhVi7di1CQ0Nx8OBB1NfXO9wvcEQ7sbeThSpBD12TGyx6+z8xYpmQVv4ukswrr4XM8/R8QPOIDpqTFfBJz5nUdnigf8pj4liWRX19PQ4ePIjQ0FCsXbt2yZ4yUVVVBb1ej5SUFM4O/QJAXV0d/P394enpuEf8t7/9La688kqsXr3aSZWRcx0FQMIZTz75JN577z1UV1c7bJeQkIDW1lbodDonVXb2RCIRMjMz0dbWhpaWFleXMyfW1dc5OTloaWnBoUOHMDw8PGVbd/npFaHSIDMEUhbDjZNXiV70Cwp/i4XPF+C8n91qd5m66jhEMhnk4dGT2p95TNzw8DAOHTqE1tZW5OTkYMWKFZwOTo60tLSgra0NmZmZEIkmL0DiCp1Oh9bWViQkJDhsV1VVhffffx9PPvmkkyojywEFQMIZ0dHRuPnmm/Gb3/zGYTsPDw+EhYU53ECaC2QyGdauXYvKysoF2V7FVby8vLB582Z4eXkhLy9vUm9gQ3kvvnu3BgDAE7BQxhswdFIM1mIfHuSeYjrxY5HFZuYgaeP5ts9Zixn9x47AJzUDPIF9T96Ydmi8zfe9ftYtXjZt2jTjGbRcNjAwgMrKSqxdu5bzx9OdOHECYWFhkMvlDtv95je/wS9+8Qta+UsWFAVAwimPPvoovv322xnPCE5ISMDg4KDDlcNc4Ovri8TERBw9enTBNlp2BYFAgJUrV07qDbSu/LXO//OIMsIyxsNY1+Rhw9xrYmnenxOEJdsPEeqaG2AaGYFn4iq7y6UKpa3Xr6WlBTk5OUhKSoJAIHBmuQtqdHQUR48eRVJS0owLKlytu7sbg4ODM/b+FRYWYu/evXjkkUecVBlZLigAEk7x9/fHPffcgwcffNDhnDM3NzckJiaisrKSs5tDW0VGRiIgIABHjhxZ0CPXXOHM3sAjB48DGP85CaQM5JFGaGokmLjti0zlRvP+nOjMfQEBoL+0EKqEVRC6f9/TxONhlCdAXl6e3c90KTObzThy5AgCAwM5v12NxWJBZWUlEhMTHW6ozbIsHnzwQdxzzz3w9/d3YoVkOaAASDjn3nvvRXV1Nb788kuH7cLDw+Hm5sbpbWGA8bl0q1atglAoRHl5ucNguxRYewNjgldC5DsG36xRiBQWKOMNGOsSwjRk34N03k8TKfw50aR9AQEYBvuha22Cd2oGxJ7eCLnwh+jq60eUvw8SExOWdK8fMB6UysvLIRQKkZyczPm5i/X19XBzc0N4eLjDdl988QVqamqwY8cOJ1VGlhMKgIRzFAoFHnnkEdx///0ON322BqtTp05hZGTEiRWePT6fj7Vr10KtVqOurs7V5SwIvlmC3nwZDINC+GWNQupvhq5t8oT7seHZ7SVIFsZU+wICwFB9NeShEQi+8IcY6+5A/Ufv4ssXn8Zr22+c1xFxXFBXVwe1Wo21a9dy/pSSkZERnDp1CqtWrXIYVE0mEx544AE88sgjUCgUTqyQLBfc/k0hy9btt98OhmHwl7/8xWE7T09PhISELInj18RiMTIzM1FfX4+uri5XlzMvRqMF9Ud7wDI8aOvcYBrlwaTlwy9jDKpEPfhup/c/lCmm3guQLJ7YzBxcfs/DkHv5QCCRwnfNOgSf9wMY1AMwaYcwUFEC9vupE3rdMD5/6ZklGwI7OztRX1+PzMxMiMXcf65VVlbajo105JVXXgHLsrjjjjucVBlZbnjsUh+PIuesffv24YorrsDJkycRGBg4bTuDwYC9e/ciLS0NAQEBTqxwbjo7O1FeXo7169cvyXf2e149juaK06uaZSFGeEQZ0Z0vg1DKQBlnhNjHDF2zGxi1HD9+MpcWf7jA+PFidWg41YCRzlb0lh6GWTeMsEuvhrr6GLQN9ntpyr28sf0vfwefv3SGg7VaLQ4dOoTU1NQZz9Dlgu7ubpSVleH88893OPevq6sL8fHx+O9//4vNmzc7sUKynFAPIOGsLVu24OKLL8b999/vsJ1YLLYtCFkKiyyCgoIQExOD4uJiTp9oMpUzwx9PyEIRZ4TmpBhgeDCPCDBQLkX/UXeIPS3wztSisbGB8wt1ziUWiwWnTp3Cd999B7Vag9jgAHTs/womrQYsY0F/eTG8Vq8F/4z98XSDA1NuDs1Ver0excXFiImJWRLhz2w2o6KiYsaFHwBw33334dJLL6XwRxYVBUDCaS+++CI+++wzHDx40GG78PBwSKXSJXPyRlxcHLy8vM7qvF1XMxotduEPABQxBpiG+dD32m/74sZzR1rKWqzNWIO2tjbs3bsXjY2NSyKgL1VmsxmNjY3Yu3cv2trakJaWhpycHLD6Mbt2I+3NMGoG4bkybdJtnCopdla582IwGFBYWAgvLy/ExcW5upxZqaqqgkwmm3HhR15eHv773//ixRdfdFJlZLmiAEg4LSQkBI8++ijuvPPOGReEpKamoq2tDX19fU6scG6s9cpkMhQWFjr83rii6GP71dZCGQN5mAmaGjEmbvsSscobP/5dDmLS/OHv749NmzYhMTERbW1t+Prrr3HixAnOL9pZSkZGRnDixAl8/fXXaGtrQ2JiIjZt2gR/f3/weDzIVZPnmvWXFkEZmwiRh9Lu8rIv/sv5uYAmkwlFRUXw8PBAamoq51f8AkBfXx/a2tpmPJbOZDLhl7/8JR577DFOn19Mzg0UAAnn/frXv4bZbJ5xQYhMJkNiYiKOHTu2JHqa+Hw+1qxZA6lUiqKiIs6HQE2ffU+ScoUeI+0imHX2c8bMJsZuzh+Px0NISAg2bNiArKwsjI2NYd++fSguLkZvb++S3xbHFViWRW9vL4qLi7Fv3z6MjY0hOzsbGzZsQEhIiF3IGN8Wxn5vQOOQGtrGWvikZU267W/e+DMYhptD9tbwJ5VKkZ6ezvkVv8B4zeXl5UhMTJzxZJJXXnkFFosFd911l5OqI8sZ9397yLLn5uaGV155Bb/97W9nXD0bGRkJd3f3JTMUbA2BQqEQxcXFnA6uSl+p7f8SHzPEKgu09ZNXXaomtJuIx+PB29sba9euxXnnnQcPDw+UlZXh22+/RW1tLcbGxqa8HjltbGwMtbW1+Pbbb1FWVgYPDw+cf/75WLt2Lby8vKbsXRrfFubWSZcPVpRC4uMH98AQu8v1umG0VXFvVb3ZbMbhw4chEomwZs2aJRH+AKC6uhoymQyRkZEO23V1deG3v/0tXnnllRnnCBKyEGgVMFkyrrvuOpjNZnz00UcOh1FGRkawf/9+ZGZmcv44KCuz2Yzi4vH5V5mZmRAKJx+l5koN5b048O+T0A+bAR4L/9xR6FpFGGmZ/EK1/U8b4eY2u5WkDMOgu7sbLS0t6Ovrg5+fHwIDA+Hv7w+JRLLQ38aSpNfr0dPTg66uLvT29sLPzw/h4eHw9/c/qxBUX1yIL155EeYJc06VcUlQxiag9YtPgAkvBZlXXovca3+8oN/HfHD992M6vb29OHLkCDZv3uyw949lWVx99dVwc3PDe++958QKyXK2NH6LCAHwpz/9CUlJSfjwww9x7bXXTtvOOhRcXl6OzZs3QySavDkx1wiFQmRmZuLw4cM4fPgwMjMzOVO39bxfK3m4CWCBkdbJ9UWs8p51+APGe0CDgoIQFBSE0dFRtLe3o6WlBcePH4dKpUJAQAACAgLg4eGxJOZ6LQSWZTE8PIzu7m50d3dDo9HYHovVq1dDKp26h3UmsZk5SG/6IYr/85HtsqH6aihjE6CMS8RQ7elecy490iaTyRb+srKylkz4M5lMOHbsGJKSkmYc+v3ggw9w6NChJTNyQc4N1ANIlpSPPvoIt99+O6qqqhyejcmyLAoLCyGTyZCSkuK8AufJ2tNhsViQnZ3t8hDIMCz+8XAhRjQGAADfjUHAhhEMlEthGLB/IY5Y5Y1L71i9IPdr7fXq7u5GX18fxGKxLQx6e3svmeG/2WIYBgMDA7bQZzAY4Ovri4CAgAXtDW05cQwfP/WI3WXugSHwX7cFLbs/BGMY35bo6kefRvjKlAW5z/mwzvkTCoXIyMhYMuEPAI4dO4aRkRHk5OQ4fPPS09ODpKQk/PWvf8XVV1/txArJckcBkCw511xzDSwWCz7++GOHf1hHR0dx4MABrF69ekmtqLNYLDh69CgMBgOys7NdOh+oo1aNz14ut32uStJDIGYxUGbfC3XZnasQluxz5tUXhMViQV9fny0cWSwW+Pn5QaVSQaVSQalULrk5U0ajEUNDQ9BoNNBoNOjt7YVAILCFXF9f30U5n5dhLHht+43Q64btLg/ccCHMYyPoO1oAiYcCt7/xT5dvCG00GlFYWAiJRIK1a9cuqfOK29vbUVFRgU2bNsHd3X3adizL4qqrroJIJMIHH3zgxAoJoSFgsgT95S9/QVJSEj744ANcd91107Zzd3dHamoqysrKoFKpZhyG4QqBQIC1a9eipKQEBQUFyMnJcdkRVyNag+3/Ig8L3INN6Mmf/Djq9Yu3eGViMGJZFhqNBn19fVCr1WhqasLY2Bjc3d3tAqFKpeJMKDQajdBoNHaBb3R0FO7u7rZaY2JioFKpFn2Ym88X4MJb/h8+f+kZu8v7yw8j9OKrMFRfgwt/fpvLw591nz+ZTLakFnwAgE6nw/Hjx5GWluYw/AHA+++/j/z8fBr6JS5BPYBkSfrkk09w6623zjgUDIyfvTkwMID169cvqV4EhmFQVlaGoaEhZGVluSTAnu4BZOGTMQbTEB9DtZOHI390dyqC4x2fbbpYrAFrYsiaGLCkUikkEgnEYjEkEontQyQSzTtwsSwLk8kEvV5v+zAYDNDr9RgbG8PQ0JCtlonh1NUBtb64EPveeR26wdMbewdmb4JvfCLOv+hil863HBkZweHDh6FUKpGWlrakwp/FYsGhQ4fg7e2N5ORkh227u7uRlJSEN954A1dddZWTKiTkNAqAZMm67rrrYDQa8cknnzh8wTqbP8pcw7IsKisr0d7ejrVr1zp9VbN1DiAj1kGVZED3QRlYs/1jLfcU48e/y+HUeb/WUKjVau3CmfXDYrGAz+fbhUKBQAA+nw8ejwcej2cLHgzDgGVZsCwLhmFgsVjswh7DMBAIBHbh0vqhUChcHvamwzAWdNRUQadRQ67yhF9MHPbvP4BVq1a57Gi1vr4+HD16FKGhoVi5cuWSW/gz2zebLMviyiuvhEQioVW/xGUoAJIlq7+/H0lJSdi5cyduvPFGh211Oh3y8vKQlpaGwMBAJ1W4cFpaWlBZWYmkpKQZ9xNbaPWlXaioOwptgxij7ZMXpVx060pEp/o5tab5MpvNk3rtzGazLehZwx4Au1DI4/EgFAon9SYupcUJjrS0tKCurg5btmxxam85y7Jobm5GVVUVkpOTZzwujYu6urpQVlaGTZs2zdhb/69//Qs7duxAVVUVfHwWZ+4sITM5N/5qkWXJx8cHf/vb33D99dcjMzMTsbGx07aVy+VYvXo1ysvLoVQqZ5ybwzXh4eGQy+U4cuQItFotkpOTnTY0xsi1kKvcMayTADi9h5zcU4zca2KXXPgDxrfdkcvlkMvlri6FU8LCwtDU1ISGhgbExETb9RAGJyQtytxAhmFQWVmJrq4uZGdnw9vbe+Yrcczo6CjKy8uRkpIyY/irq6vDHXfcgffee4/CH3Ep6gEkS96OHTuwb98+FBUVzbhdxrFjx6DVarFu3bolNR/QanR0FEeOHIFQKMTatWsXfXHI2NgY9u7di+zsbHh6eqGrXoMRrQEyhRiBsSpODfuShTEwMIDCggJ07/sC2q522+VyLx9s+ektiM3MWbD7MhgMOHr0KMxmMzIyMpbcGzNgfIpJQUEBlEolVq92vA2SXq9HdnY2zjvvPLz44otOqpCQqVEAJEue0WhEbm4uMjMz8ec//9lhW4vFgvz8/CV1kPyZzGYzysvLodFokJGRAaVSuWj3VVpaCpZlsWbNmkW7D8It9cWFKC4+DNZiQe/hvElfv/yehxckBA4NDaG4uBienp5ITU1dksPoLMuivLwcw8PDyM3NnfFN5S9/+UscPXoUhw4d4uS8ULK8LJ3lVYRMw83NDe+//z7++c9/4tNPP3XYViAQICMjA729vWhsbHRShQtLKBRizZo1CAsLQ35+Pjo7OxflfgYHB9HV1YXExMRFuX3CPQxjwb533sBAeTHkYZEQe09edLT/3TfAMJZ53U9nZycOHTqE8PBw21nYS1FjYyN6e3uRkZExY/j75JNP8K9//Qvvv/8+hT/CCRQAyTkhKioKb775Jm6++WY0Nzc7bCuVSpGRkYGamhr09vY6p8AFxuPxEB8fj9TUVJSXl6O2thYL2ZlvXX0cExOzJIflyNx01FRBN9gP8+gINDUV8E3PntRmeKAfHTVz27eOZVnU1taivLwc6enpiI+PX5K98MD4Ob81NTXIzMyc8Xi+pqYm/OIXv8Bbb73l9EVchEyHAiA5Z2zbtg3/93//h+uuuw4mk8lhWy8vL6xevRolJSXQ6XROqnDhBQUFYf369WhtbUVJSQnM5oXZkLmtrQ0GgwExMTELcntkadBp1Lb/q6uPQyCVwSNi8nNgYrvZMpvNKCkpQWtrK9avX78kV+Nb6XQ6lJSUYPXq1fD0dLz/pdFoxHXXXYfrr7+ejnojnEIBkJxTXnrpJYyNjeHhhx+esW1oaCjCw8NRXFw8Y2DkMoVCgQ0bNsBgMODgwYNQq8/+xZlhWHTUqlF3tButNf2orq5GUlLSkh2aI3MjV50OM6zFgoFjxfBOyQDvjOfBxHazoVarkZeXB4PBgA0bNkChUCxIva5gMplQXFyM8PBwhIaGztj+4YcfhsFgwM6dO51QHSGzR3/dyTlFIpHgww8/REZGBtLS0vB///d/DtsnJiZCq9WipKQEWVlZS3Y4SiwWIycnB6dOnUJBQQGioqIQHx8/q5XODeW9OPRBPUY048e+KWINkPoxGOsRAkvnCGWyAIITkiD38oFusB8AoGtphDI2CZ6JKRisKAEAeHj7IDghaVa3Z7FYUFtbi8bGRsTFxSEmJmZJnexxJpZlUVJSAplMNqu5se+99x7efPNNHDlyZMYdCghxtqX7m0jINOLj4/Hee+9h+/btKC0tddiWx+NhzZo1GB0dRUVFxYLOo3M2Pp+PuLg4bNiwAb29vcjLy5uxN7ChvBdfvX7CFv4EUgbySCMGK93w9RtVaChfmnMkydzw+QJs+ektdpf1lxZBtSIZQpkHAGDzTbfMaj9Aa69fb28vNmzYgLi4uCUf/ioqKjA6Oor09PQZ3yyWlJRg+/bteO+99xAfH++kKgmZPdoGhpyzXnjhBfzxj39ESUkJAgICHLYdHR3FoUOHEBERcU78sWYYBvX19aivr5+2N9B6zJs1/AGAV+oYWBMP6hPjvRVcPOaNLL7xs4LfsPUE+mVugJtMjrSUlBm3gJnY6xcbG4vY2NglHfysamtr0dzcjPXr18+4MKqrqwtr167Fr3/9a9x7771OqpCQs0MBkJyzWJbFT37yE5w6dQoHDhyYcdNkrVaL/Px8JCYmIiIiwjlFLrKhoSGUl5eDYRikpaVBpVLZvtZRq8ZnL5fbPhd7meGdNobugzIwxtMv2D+6OxXB8Wc354ssfRPPChbLPVDT3oXMzEyHp1eo1WqUl5eDz+cjLS1tSc/1m6i5uRnV1dXIzc2d8XvS6/XYtGkT4uLi8O677y7ZaSXk3EcBkJzT9Ho9Nm7ciMTERPz973+f8Y/xwMAAioqKkJaWhqCgICdVubgm9gZGR0cjLi4OAoEAhz6qQ8Xe70964LHwyxnFaKcIuib7PcouuDkRcWsd96CSc199fT3a29uxYcN6dJ6stjsijmVxTvb6AeN7FpaVlc3qmDqWZfGzn/0MNTU1yMvLo3l/hNNoEQg5p0kkEvznP//BmjVr8Ic//AF33323w/be3t5IT09HaWkp3NzczomzOvl8PuLj4xEQEIDy8nJ0dXXBVxpxOvwBkIWYwBOw0DWLJl1fpljc4+bI0hAVFYX62pPY9fzT6DteYrtcFRGD4A3nQyKTY/369Yt6Mo2z9ff3o6ysDOnp6bM6o/jll1/Gt99+i6NHj1L4I5x3brxFI8SBoKAgfPbZZ3j00Ufx1Vdfzdg+MDAQycnJKC4uxtDQkBMqdA6lUokNGzZAwlPiVFclFLEGgM+CJ2ShiDNi6KQEYO17SOWe42f+EtJYUoyWfV9CHp0AvsgNPIEAXqvS4ZWxHp1lxQiSiM6p8Gc9qi45OXlWexZ++eWXeOyxx/DZZ5+dM6MH5NxGPYBkWcjIyMAbb7yBa665Bvv27ZvxbNvw8HDo9XoUFRUhNzcXcrncSZUurqbj/Sj/YAgiD3d4rtRDFmKCSceHaYgHfe/klZ2518TSAhBiOyJudLAfBnU/AnLPg5vSE+axEbR/818YNYM40NWGmIysWa0Q5jqdToeioiLExsYiPDx8xvZHjx7FtddeizfffBNr1651QoWEzB/1AJJl4/rrr8fjjz+OSy65BPX19TO2j4uLQ0hICAoKCjAyMuKEChcXw7A49MH4920aFqC3yB3DjSKIvS0QylhI/c0ATk8JXnVeCKJT/VxULeES6xFxstAIiDwUkAYEQ11zHO1fj4c/YH5HxHHJyMgICgoKEBoaitjY2Bnb19XV4ZJLLsETTzwx476jhHAJ9QCSZeWee+5Bd3c3tm7dioKCAodDOzweD0lJSWBZFgUFBcjNzV3S5+J21WvstnwBAImvBboWIcw6AVSJBnhEGTFUK4ZhUIioVb4uqpRwTW9vL0K2/hBCqQyDJ8rgpvSEe2AIhmrtA99cjojjktHRURQUFCAoKAiJiYkzLhrr6urC1q1b8fOf/3zG+cWEcA0FQLLsPPfcc+jp6cHFF1+MvLw8h/OWeDweVq5caQuB69atW7IhcEQ7OfyJlBYMHJeDNfEw2imCPNwI77QxWEZEcPejod/lTqPRoLq6GoO6MYy0NUNTewKsxQK+mxjhl10D96BQjHa22dqf7RFxXGINfwEBAVi5cuWM4W9oaAgXXXQRNm7ciOeee85JVRKycGgImCw7fD4fb731FoKCgvCjH/0Ier3eYXsej4fk5GT4+/sjPz9/yQ4H263m5bFQJuihrReDNY2/0LEWHoYbxejOkyMw1AcFBfkoKSlZst8vmbuRkRGUlJQgPz8fSqUS519wPkzdHWAtFgAAYzRgsKIUPmlZwPfbvZzNEXFcMzIygvz8fPj7+yM5OXnG8KfX6/HDH/4QISEhePPNN2mvP7IkUQAky5JIJMJHH32EsbEx/PjHP4bl+xe26VhDYGBg4JKdExgYq4JMNR4C5eEmgOFhpM1+2xceD7jgpyuxbksGzjvvPAgEAuzbtw8VFRUzBmWy9On1ehw/fhz79u2DQCDAeeedh6SkJEgk0klHxA2dqgHLMFDFjYe+2R4RxzU6nc42HWQ24c9iseDGG2+EwWDAhx9+CJFo8tZJhCwFtBE0WdYGBgaQm5uLjRs34rXXXpvxjz/LsqiqqkJHRwdycnLg4eHhpEoXRkN5L755uwIBG0YwUC6FYcB+FsjW7SsRk26/8EOr1aKmpgZ9fX0IDw9HVFQUZDKZM8smi2xkZASNjY1oaWmBn58fEhISpnxun3lEnNQ/CIEbLsSKoAAk5OQ6u+x5Gx4eRmFhIYKDg5GUlDSr3//bbrsNhw4dwqFDh2a1NyAhXEUBkCx7bW1t2LBhAy677DL88Y9/nNWLwMmTJ9HU1ISsrCx4eXk5qdKFcfC7IvS0atB75PSQsNxTjNxrYh2u+lWr1WhoaEBXVxf8/PwQFRUFHx8fGv5aoliWRX9/PxobG9Hb24vAwEBER0fD09PxPL6JR8TJVZ7o1I1CLJYgJSXFOYUvkMHBQRw+fBiRkZFYsWLFrH7vf/WrX2HPnj3Iy8tDaGiokyolZHFQACQE42d9bty4EVdeeSVeeumlWYWaxsZGVFdXY+3atfD393dClfOn0WiQn5+PjRs3QdtpwojWAJlifLPn2e73NzY2hqamJrS0tEAsFiMqKgohISEQCmlN2VJgNpvR3t6OxsZGGAwGhIeHIzIyElKpdE63NzIygv379y+pU0C6u7tRUlKCxMREREVFzdieZVncfffd+Oyzz5CXlzervQEJ4ToKgIR8r7GxERs3bsR1112H3//+97MKgR0dHSgvL8eqVasQFhbmhCrnzrqS2cvLC4mJifO+PYvFYgsSY2NjCAkJQUREBBQKxQJUSxba0NAQWlpa0N7eDqlUagvuAsH85+1VVVVBrVZj3bp1nO8Rbm1tRUVFBVJTUxEcHDxje5Zlcd999+GDDz5AXl7erAIjIUsBBUBCJjh16hQ2bdqEa6+9Fi+++OKsXsz6+vpw5MgRxMXFISYmhrMvgB0dHaisrMR55523oBPXWZbF4OAgWlpa0NnZCYVCgfDwcAQHB1OvoIuZzWZ0dHSgpaUFWq0WQUFBCA8Ph5eX14I+T00mE/bu3YuVK5PADqltw8PBCUmcWRjCsixOnTqFuro6ZGRkwNd35n0uWZbFjh078NFHH2H//v2IiYlxQqWEOAcFQELO0NDQgM2bN+OKK67AH/7wh1m9UGo0Ghw+fBghISGzmkzubGazGfv27cOKFSsWtafSZDKhra0NLS0tGB0dRXBwMIKCguDj4wM+nzYdcAaGYdDf34/Ozk60t7dDJpMhIiICISEhi7pi9ej+fWjr6UHz5+/btouRe/lgy09vQWxmzqLd72xYF2+1t7cjKysLKpVqVte566678N///hf79++nnj9yzqEASMgUmpqasHnzZlx66aX485//PKvwYj0/1NPTEykpKZzq/aqtrUV3dzc2bNjglHDKsiw0Gg1aW1vR3d0Ns9kMPz8/BAQEwN/fH25ubotew3JiNBrR09OD7u5u9Pb2QigUIiAgAGFhYVCpVIv+M68vLsTnLz2DkK0/wkhHC9Qnyu2+fvk9D7ssBJrNZhw7dgxqtRo5OTmzWsHOMAz+3//7f/jiiy+wf/9+RERELH6hhDgZBUBCptHS0oItW7YgJycHf//732fVe2IwGHDkyBFYLBZkZmbOeWL9QhobG8PevXuRk5PjkhXLLMtiaGgI3d3d6O7uhlarhZeXFwICAhAQEAC5XO70ms4FOp3O9pgODg5CoVDYHlOlUum0XmiGseDNO2+GbrAfEh8/BG2+BC3/+wiWsdN7ZXp4++AXr/zN6cPBY2NjKC4uhkAgQEZGBsRi8YzXMRqN+PnPf47Dhw9j7969tOCDnLMoABLiQHd3Ny6++GL4+/vj448/nlVYsVgsqKioQE9PDzIyMly+TUxpaSkAID093aV1WI2NjdmCS39/P9zd3W3BZaHnpp1LGIaBWq22PXajo6Pw8fGxPXauerPRVlWBD5982Pa5f85mgGXRU3TArt01jz2D0KRVTqtrcHAQR44cgb+/P1avXj3rXvyrr74avb29+PLLL5fM6n5C5oI7Y1SEcFBAQADy8vJwxRVX4LzzzsOePXvg4+Pj8DoCgQApKSloampCYWGhS1cIDwwMoKurC+edd55L7n8qUqkUkZGRiIyMhMlkQl9fH7q7u3HkyBEAgJ+fH3x8fKBUKqFQKJbt3EGGYaDVajE0NIT+/n709vYCAPz9/ZGQkAA/Pz9OTDPQadR2n/eXH0H4D7ZB4uMHfX/vtO0Wk3Wlb2JiIiIjI2e9mOvSSy+FQqHAgQMHaDU7Oee5/q8HIRynUCjwxRdf4Mc//jHWrVuHb775ZsZhIR6Ph6ioKMjlcpSUlECr1Tp9cQjLsqisrERsbCwnhqKnIhKJEBQUhKCgILAsa+vham9vx4kTJ8AwDBQKBVQqFZRKJVQq1TkZCq1hT6PRYGhoCBqNBlqtFnw+HyqVCp6ensjMzISnpyfnekjlKvuNoy1jI1DXHIdPeg7av/5s2naLgWEYVFdXo7W1FRkZGfDzm35j84mam5uxdetWpKSk4B//+MeshooJWepoCJiQWbJYLLjrrrvwn//8B1999RWSk5NndT2dTofi4mK4u7sjPT3daQsgWlpaUFtbazvTd6lhWRYjIyN2oUij0YBhGHh4eEClUtmCoUKhWDLfo8VisfXsWb+n4eFhW9ib+H3JZDLOBb4zTZwDaMUTCBD2g20YrCjFcFO9U+YAGo1GlJaWYnR0FJmZmbOeW1pRUYGLLroIV111Ff74xz+ec28uCJkOBUBCzgLLsnjmmWfw4osv4r///S82bNgwq+uZTCaUlZVhaGgIa9asWfR5gdZ92ZKTk2e12e1SwbIsRkdHbcHJGg7NZjM8PDwgkUggkUggFott/5942WKHRIvFAoPBAL1eb/cx8bLh4WEIhUJbj6b1w93dnfNhbzrWVcATycOi4JOejZbdH+KyX923qKuABwcHUVJSAqVSibS0tFlvd3Pw4EH88Ic/xH333YeHHnpoyT7+hMwFBUBC5uCtt97CXXfdhVdffRU33XTTrK7DsiwaGhpw8uRJxMfHL+qm0UvpZIb5sobC4eHhScFrYvgCxoeczwyFbm5u4PF44PF44PP5tv9bHzeWZW0fDMPY/m80GieFPZPJBADThlCJRAIPD48lHfamU19ciH3vvGHXExh20RUIDA1F7vkXLsp9Wjd3rq2tRUJCAqKiomb9uL7zzju488478ac//Qk333zzotRHCJdRACRkjvbu3YtrrrkGP/3pT/H888/PekK+Wq1GSUkJ5HI50tLSFny+kU6nw/79+7Fhw4YlczbrYmNZ1hbWpgpt04U8ANOGw6nCpPXfcy3czRbDWNBRU2U7CUQeFIKCgkJs3rx5VvvvnQ2DwYCysjLodDqsWbMGnp6zm2NoNptx//33491338VHH32ELVu2LGhdhCwVFAAJmYeGhgZcfvnlCA0Nxfvvvz+rEwaA8SHaY8eOYXBwEOnp6TOuLD4bxcXFEIvFSElJWbDbJGSujh07BoPBgMzMzAW7zf7+fpSUlMDb2xspKSmzHvJVq9W47rrr0N7ejs8//xzR0dELVhMhSw3NdiVkHqKjo1FUVASRSITMzEzU1tbO6noikQhr1qxBXFwcDh8+jNraWizEe7He3l709/cjISFh3rdFyEJISEhAf38/+vr65n1bLMvi5MmTOHz4MFasWIE1a9bMOvzV1tYiKysLYrEYRUVFFP7IskcBkJB5UigU+Oyzz3DVVVchMzMTX3755ayux+PxEBkZifXr16O9vR2HDh3C8PDwnOtgGAYnTpxAfHw8bWNBOEMsFiM+Ph6VlZVgGGbOtzM8PIxDhw6ho6MD69evR0RExKyH2r/88ktkZmbi6quvxmeffUZ7/BECCoCELAiBQIBnnnkGr732GrZt24YXXnhh1j16SqUSmzZtgpeXF/Ly8nDq1Kk59QY2NzeDYRg6tJ5wTlRUFBiGQUtLy1lfl2VZ1NfXIy8vD15eXti0adOs57ayLIsXXngB27Ztw2uvvYbf/e53tM0LId+jOYCELLCSkhJcddVVSElJwd///nd4e3vP+roDAwMoLy+Hm5sbUlNT4eHhMavrGY1GfPfdd0hPT6fjqwgndXd3o6ysDOeff/6s98IcHh5GeXk5jEYj0tLSzmr7pIGBAfzsZz/D8ePH8cknn2DNmjVzLZ2QcxK9FSJkga1Zswbl5eXg8XhISUlBQUHBrK/r7e09695AhmHRUatG3dFulBYdh6enJ4U/wln+/v7w9PTEyZMnZ2xr3d7F2uu3efPmswp/+fn5SElJgUAgQHl5OYU/QqZAPYCELBKWZfHKK6/gwQcfxCOPPIIHHnjgrIafrL2B1hW9E3sDT5X2IO/fddCPmCCUW+CfMwpthQrrfpiA6NTZHX9FiLMNDw/jwIED2LBhPbTtrbbtYoITkmynhEzs9UtNTT2rHnSGYfD888/j6aefxnPPPYdf/vKXy3ZLHkJmQgGQkEVWWlqKa6+9FtHR0fjHP/5xVr10ZrMZJ0+eRFNTE6KiohAXF4cjnzfj2Ldt37dg4bN2DKZhPoZOSgAAF926kkIg4axD336DrtZmtH3zue0yuZcPNv7kF7AoPNHY2IjIyEisWLFi1ntrAkBPTw9+/OMfo7GxER988AHS09MXo3xCzhk0BEzIIktPT0dZWRk8PT2RkpKCffv2zfq6QqEQK1euxMaNG6FWq/HNV9+itrIRwPj7NomfBSIFA+2p06t+8z+sB8PQ+zrCPfXFhSh5968QypVwDw47/QUPBaqaW9HZ0oKNGzdi5cqVZxX+9u7di5SUFHh7e6OsrIzCHyGzQAGQECdQKBR477338OSTT+Kyyy7Djh07MDY2dlbXz87OgbraDaoEA3zWjkHoYYFqhR7aOjew5tPDXDq1AV31mkX4LgiZO4axYN87b4AxGTFQUQKftCyIVF4I2nIpfNKy0V9ejKb/fQi5fPYnhoyOjmLHjh24/PLL8eSTT+Lf//43bfFCyCxRACTESXg8HrZv347S0lIUFBQgJSUFhYWFs75+96khDDXx0X1IBtMwH/45o+AJWYx2Tu4pGdEaFrJ0Quato6bKdk7wcEsD+CI3hF10BQzqfrTs/hC6lgYMD/Sjo6ZqVrdXWFho+x0qLS3F9u3bab4fIWeBAiAhTrZixQoUFBTg5ptvxgUXXIB77713Vr2B1lDHmnkYbnQDywAWAx8BG0YhCzMCvNPDvjIFbQRNuEWnUQM8HhQxCQj/wTZYxkbBWizQ1FSANZvs2zkwNjaGHTt24IILLsD27duRn5+PFStWLHb5hJxzKAAS4gICgQD3338/SkpKcOjQIaSmpqKoqMjhdSaGOmWcEfp+IXoL3KGuFkMeboL/+hFIA0yQyIUIjFUt8ndAyOyxLAujQISwH2yDKj4JfUcL0PblpxjtaofXKvstWuQqz2lvp6ioyLa1UklJCe677z4IBILFLp+QcxIFQEJcKCEhAQUFBfj5z3+O888/H/fdd9+0vYGBsSrIVGKIFBZIg0wYOikGwIO+R4SefHcMN7pBmWBAyBYj+vvnf+4qIfPFsix6e3uRl5eH7qFhjDU3oPWLTzDS3gwA6C8vhkdEDMSePgAAD28fBCckTbqdsbEx3HfffTj//PNx8803o6CggM67JmSeKAAS4mJCoRD3338/jh49ioMHD2LVqlX46quvJrXj83nIvSYGqkQ9dE1usIxN+PVleRhtd4O/MB5RseEoKSlBQUEB1GrHw2mELBa1Wo3CwkKUlJQgJCQE559/PrIv2ApM2HnMPDIMzclK+KRnAwA233SLbT9Aq6+++gqrVq3CwYMHUVJSgvvvv596/QhZALQPICEcYrFY8Ne//hW/+c1vsGXLFrz88ssIDw+3fb29vR3Hj1Wgr1CBkUGj7XKpXIQN/xePmPTx/f9MJhPq6+vR2NgIX19fxMbGntVJCoTM1eDgIOrr69HX14eoqCjExsZCJBLZvl5fXIh977xhWxDCEwoRcfl1CPP3w5pNW2ztmpubcffdd+PAgQN4+umncdttt1HwI2QBUQAkhIN6e3vx4IMP4oMPPsDDDz+Me++9FwKBAHv37kViYiKCg0PQVa/BiNYAmUKMwFgV+PzJKyD1ej0aGhrQ1NQET09PxMbGwtfXl1ZLkgXFsiz6+vpQX18PtVqNyMhIREdHQyKRTNmeYSzjq4K/PwmEkStx8uRJnHfeeTCbzXjxxRfx7LPP4rrrrsOzzz4LPz/a2JyQhUYBkBAOKyoqwh133AGdTof7778f8fHxWL9+/VkHOKPRiKamJjQ2NkIqlSIuLg6BgYEUBMm8sCyLrq4u1NXVYWxsDFFRUYiMjISbm9tZ387BgwdRW1uLF154AR4eHvjLX/6C7OzsRaqcEEIBkBCOs1gseP311/Hwww8jNzcXf/rTnxAVFTWn2zKbzWhpacGpU6cgFAoRExODkJAQGlojZ8VisaC9vR319fVgGAbR0dEIDw8/q9M7JmpsbMSvfvUr5Ofn45lnnsGtt95Kz0lCFhkFQEKWiN7eXjz00EP497//je3bt+ORRx6Z89AYwzBoa2vDqVOnYDKZEB4ejoiICEil0gWumpxLxsbG0NzcjObmZri5uSEmJgahoaHg8+e2nrCnpwdPP/003nrrLdxwww149tln4evru8BVE0KmQgGQkCXmxIkT+M1vfoN9+/bhnnvuwY4dO+Z8/JV17lZTUxN6e3sREBCAiIgI+Pj40PAwATD+HOnv70dzczO6u7vh5+eHyMjIec0l1Wq12LlzJ1566SVs2bIFzzzzDJKSJm//QghZPBQACVmiCgoK8OCDD+LkyZN45JFHcNttt0EsnvsJICMjI2hubkZraytEIhEiIyMRGhp61vO5yLnBaDSitbUVzc3NMJlMCAsLQ0REBGSy2Z/VeyaDwYDXXnsNv/vd77BixQo899xzWLdu3QJWTQiZLQqAhCxhLMtiz549eOihh6DT6fDkk0/i+uuvn9f8KYvFgq6uLjQ3N0OtViMgIAAhISHw9/ef81AfWRoYhkFPTw/a29vR3d0NT09PREREIDAwcN7PqV27duGxxx6DQqHAs88+i0suuYR6mQlxIQqAhJwDLBYL/v3vf+PRRx+FRCLBAw88gBtuuGHevXfDw8Nob29He3s7TCYTgoODERISAi8vL3rxPkewLIvBwUG0t7ejo6MDIpEIISEhCAkJgYeHx7xu22g0YteuXXj++eeh1+vx1FNPzfsNCiFkYVAAJOQcYn3Bfe655zA2NoYdO3bgF7/4xbyG7YDJIUEoFNpCwlznHxLX0mq1tnBvNpsXNNyPjIzgrbfewosvvgiZTLZgb0gIIQuHAiAh5yCLxYL//Oc/ePbZZ9Ha2oq77roLd955Jzw9Ped922cOE8pkMgQEBCAgIACenp7UM8hRLMtCrVajq6sLPT09GBkZWfDhfbVajVdeeQV//OMfERERgYceegg/+tGPqMePEA6iAEjIOYxlWXz77bd49tlnUVpaittuuw2//vWvERQUtCC3bzKZ0NfXZwsVPB4PAQEB8Pf3h5+f35z3hSMLw2w2o7e3F93d3ejp6QHLsvD390dgYCB8fX3tjmibj87OTvzhD3/Aa6+9hjVr1uDhhx/G+eefT28GCOEwCoCELBOHDx/Gs88+i6+++gpXXXUVfvnLXyI7O3vBXqQZhoFarUZ3dze6urowNjYGX19f+Pn5wcfHBx4eHhQIFhnLshgeHkZ/fz96enrQ398Pd3d3ux7ahVrIw7IsioqK8Oc//xmffvopLrroIjz00EPIyspakNsnhCwuCoCELDOnTp3CX/7yF7z99tuIjo7GnXfeieuuuw7u7u4Lej/Dw8Po7u5GX18fBgcHIRAI4OPjA29vbwqEC2Ri4BsYGEB/fz8sFgu8vLzg6+uLgICAeS/kONPo6Cjef/99vPLKK2hsbMTPf/5z3HHHHYiJiVnQ+yGELC4KgOSc9dOf/hTvvvvupMvr6+sX5MXqnXfewa9//WtoNJp539ZCePbZZ/Hwww/jrrvuwh/+8IcZ2+t0OuzatQt/+ctf0Nraip/85Ce49dZbF2VDXoZhoNFo0N/fj/7+/kmBUKVSQalU0lyxGVgsFgwNDUGj0UwKfD4+PvDx8YFKpVqU7Xqqqqrw+uuv4x//+AfCwsJw55134oYbboBcLnd4vU2bNiEvL2/S5SaTaUGmCDz++OP47LPPcOzYsXnf1lxN9bcmMzMThw8fdlFFhMyMJuiQc9pFF12Et99+2+4yLh41ZTKZ5jUf6+jRo3jjjTewatWqWV9HLpfj1ltvxS233IKioiK8/vrrWLNmDdasWYOf/OQnuPrqqxdk0QgA8Pl8eHl5wcvLC3FxcXaBsKenB7W1tTCZTPDw8IBSqYRKpYJKpYJCoVi28wjNZjO0Wi00Gg00Gg2GhoYwPDwMkUgElUoFb29vREdHL1rgA8YXdXz88cd49913UVpaimuuuQZffvklsrKyzqr3dvv27XjyySftLuPaz5VlWVgsljnXdebfGlrxTLiOdnUl5zSxWGyb/2T9sPYy7d69G+np6ZBIJIiKisITTzwBs9lsu+5LL72E5ORkyGQyhIaG4o477oBOpwMAHDhwAD/72c8wNDQEHo8HHo+Hxx9/HADA4/Hw2Wef2dWhUqnwzjvvAACam5vB4/Hw4YcfYtOmTZBIJPjXv/4FAHj77beRkJAAiUSCFStW4NVXX53xe9TpdLjhhhvw5ptvzimw8Xg85OTk4N1330VHRwe2bduGN998EwEBAbjyyivx6aefwmAwnPXtOmINhHFxccjOzsZFF12E888/H/Hx8ZBKpejp6UFxcTG++OIL7Nu3DyUlJTh58iTa29uhVqthMpkWtB5XMplMUKvVaGtrw8mTJ1FSUoJ9+/Zhz549KC4uRk9PD6RSKeLj43H++efjoosuQnZ2NuLi4uDl5bXg4U+v1+PTTz/FlVdeiYCAALz55pu45ppr0NHRgXfffXdO80YnzkO0fljN9Jx/4IEHEBcXB3d3d0RFReHRRx+1/fzfeecdPPHEEzh+/Ljt9/Cdd96x/Y5N7BXUaDTg8Xg4cOAAgPHfYR6Ph6+//hpr1qyBWCzGoUOHwLIsfv/73yMqKgpSqRSrV6/Gxx9/POP3eObfGi8vr7N6jAhxNm69BSPESb7++mvceOON+NOf/oT169ejoaEBt9xyCwDgt7/9LYDxkPKnP/0JERERaGpqwh133IH7778fr776KnJycvCHP/wBjz32GGprawFgxqGwMz3wwAPYuXMn3n77bYjFYrz55pv47W9/i1deeQWpqakoLy/H9u3bIZPJcNNNN017O3feeScuvfRSnH/++Xj66afn+IiM8/Lywq9+9Sv86le/Ql1dHXbt2oX77rsPN998M66++mrceOONWL9+/YKHDh6PB3d3d7i7u9tWKLMsC71eD41Gg+HhYeh0OvT19UGn08FoNEIsFkMmk0Eul0Mmk0Eikdh9iEQil88xZFkWJpMJer3e7mNkZAQ6nQ4jIyMwGAxwc3OzfR8KhQLBwcFQqVSQSCRO+R4YhsHBgwexa9cufPTRR/Dx8cENN9yA5557DnFxcYt2v7N5znt4eOCdd95BUFAQKisrsX37dnh4eOD+++/HtddeixMnTuCrr77Cd999BwBQKpXo6emZdQ33338/XnzxRURFRUGlUuGRRx7Bp59+itdeew2xsbE4ePAgbrzxRvj6+mLjxo3T3s6BAwfg5+cHlUqFjRs34ne/+x38/Pzm9wARsogoAJJz2v/+9z+7YHbxxRfjo48+wu9+9zs8+OCDtheZqKgoPPXUU7j//vttAfDXv/617XqRkZF46qmncPvtt+PVV1+Fm5sblEqlbduTufj1r3+NK6+80vb5U089hZ07d9oui4yMRHV1NV5//fVpA+D777+PsrIyHD16dE41OBIXF4cnnngCjz/+OIqLi/Gvf/0LV199NaRSKbZt24bLL78c69atW7ShPB6PB6lUCqlUisDAQLuvGY1GW4DS6XTQarXo7e21BSyLxQI+nw+JRAKxWGz7VyAQQCgUTvqwXm4NtmeGLutUaYZhYDabYbFYYDabJ31YLBYYDAbo9XrbvwzDQCAQ2IVTmUwGHx8fW4B1xXCh2WxGQUEBPv/8c3z00UcYGxvDddddh6+++gqZmZkLGjxfffVVvPXWW7bPb731VuzcuXNWz/lHHnnEdr2IiAjs2LEDH3zwAe6//35IpVLI5XIIhcI5/x4++eSTuOCCCwCMb2D90ksvYd++fcjOzgYw/rchPz8fr7/++rQB8OKL76aLewAACc9JREFUL8a2bdsQHh6OpqYmPProo9iyZQtKS0vndT43IYuJAiA5p23evBmvvfaa7XPriRilpaU4evQofve739m+ZrFYoNfrMTo6Cnd3d+zfvx/PPPMMqqurodVqYTabbb038z1ZAwDWrFlj+39fXx/a2tpw8803Y/v27bbLzWYzlErllNdva2vDXXfdhW+++QYSiWTe9UyHx+MhKysLWVlZePnll/HNN9/gk08+wbZt22A2m3HppZfisssuw0UXXeS0U0Hc3NxscwqnYjKZbAHM+mEymWA2mzE2NjZlcDObzWAYBsB44LOGPuvQIjDeKzwxMJ754ebmNqk3UiwWL9h+e/M1NDSEr7/+Gp9//jm++OILiEQi/OAHP8Brr72GCy+8cNHqvOGGG/Cb3/zG9rlKpZr1c/7jjz/GH/7wB5w6dQo6nQ5ms3lBn2cTfw+rq6uh1+ttgdDKaDQiNTV12tu49tprbf9fuXIl1qxZg/DwcOzZs8fuTR4hXEIBkJzTZDLZlCt+GYbBE088MeUfZ4lEgpaWFlxyySW47bbb8NRTT8HLywv5+fm4+eabZ5x/xuPxcObi+qmuMzFEWoPHm2++iczMTLt2062MLS0tRW9vL9LT022XWSwWHDx4EK+88goMBsOCr6oViUS49NJLcemll8JiseDIkSPYvXs3nnzySdx4443YuHEjLr/8clx22WWIiIhY0Ps+2zpFItFZD8ufi5qbm7F79258/vnnyMvLQ3x8PC677DJ88cUXyMjIWLQFJBMplcpJv4fWYVpHz/nDhw/juuuuwxNPPIGtW7dCqVTi/fffx86dOx3en/V7mvh7ON3v7VS/h3v27EFwcLBdu7PpyQsMDER4eDjq6+tnfR1CnI0CIFmW0tLSUFtbO+12MCUlJTCbzdi5c6ftxeTDDz+0a+Pm5gaLxTLpur6+vujq6rJ9Xl9fj9HRUYf1+Pv7Izg4GI2Njbjhhhtm9T2cd955qKystLvsZz/7GVasWIEHHnhg0bdUEQgEyM7ORnZ2Np555hk0NjZi9+7d+O9//4t77rkHkZGR2LRpk+1joU4fIY51dHQgLy8PBw4cwIEDB9DU1ISNGzfisssuw+uvv46oqChXlwhgds/5goIChIeH2/UetrS02LWZ6vfQutK/q6vL1nM3m21iEhMTIRaL0dra6nC+30wGBgbQ1tY2aeoCIVxCAZAsS4899hh+8IMfIDQ0FNu2bQOfz0dFRQUqKyvx9NNPIzo6GmazGX/+859x2WWXoaCgAH/961/tbiMiIgI6nQ579+7F6tWrbYsYtmzZgldeeQVZWVlgGAYPPPDArIbWHn/8cfzqV7+CQqHAxRdfDIPBgJKSEqjVatxzzz2T2nt4eGDlypV2l8lkMnh7e0+63BmioqJw11134a677sLQ0BDy8/Nx4MABvPzyy/jxj3+M6OhobNq0CZs3b8bGjRspEC6Qzs5OW9g7cOAAGhoakJaWhk2bNuHll19Gbm7utNMIXG2m53xMTAxaW1vx/vvvY+3atdizZw/+85//2N2GdZHWsWPHEBISAg8PD0ilUmRlZeG5555DREQE+vv77eYSTsfDwwP33nsv7r77bjAMg9zcXGi1WhQWFkIul085F1en0+Hxxx/HVVddhcDAQDQ3N+Phhx+Gj48PrrjiigV7rAhZcCwh56ibbrqJ/eEPfzjt17/66is2JyeHlUqlrEKhYDMyMtg33njD9vWXXnqJDQwMZKVSKbt161b2H//4BwuAVavVtja33XYb6+3tzQJgf/vb37Isy7IdHR3shRdeyMpkMjY2Npb94osvWKVSyb799tssy7JsU1MTC4AtLy+fVNOuXbvYlJQU1s3NjfX09GQ3bNjAfvrpp7P+njdu3Mjedddds27vLGq1mt29eze7Y8cONj09neXz+WxsbCx7/fXXszt37mQPHDjADg0NubpMzhsaGmIPHDjA7ty5k73++uvZ2NhYls/ns+np6eyOHTvY3bt3sxqNxtVl2pnpOTnTc/6+++5jvb29Wblczl577bXsyy+/zCqVStvX9Xo9e9VVV7EqlYoFYPs9q66uZrOyslipVMqmpKSw33zzDQuA3b9/P8uyLLt///5Jv88sy7IMw7B//OMf2fj4eFYkErG+vr7s1q1b2by8vCnrHx0dZS+88ELW19eXFYlEbFhYGHvTTTexra2tc3m4CHEaOgmEEOJ0Go0GBQUFKC0ttX10dnYiNjYW6enpto+UlBSoVCpXl+sSGo0G5eXlKCsrsz1G9fX1CAoKsnuM1q1bt2wfI0LI3FEAJIRwQk9Pjy3oWENPW1sbAgICEBcXN+kjKipqyW+xYTAY0NDQgLq6OtTX16Ours720d3djdDQUFvQS0tLQ3p6Ovz9/V1dNiHkHEABkBDCWYODg3ahaOKHwWBAeHg4YmJiEBQUhMDAQNu/Ez+kUqlLah8bG0NXV5fdR2dnp+3fU6dOoaWlBWKxeMqAaz3pgxBCFgMFQELIksMwDDo7O1FbW4uGhga7cGX96O7uhsVigUqlgr+/PxQKBeRyOTw8PODh4WH7v/VfmUxm2wza+mG9L+uH2WzGyMiI7WSSif9a/6/VatHT0wONRgOBQICAgAC7QGoNqTExMYiLi0NQUJBTtmIhhJCJKAASQs5JFosF/f396OrqQk9Pz6Sgdub/R0ZGYLFY7AIfALtAKBAIIJPJ7ILjVP/39/dHYGAgfH19KdwRQjiJAiAhhBBCyDJDb00JIYQQQpYZCoCEEEIIIcsMBUBCCCGEkGWGAiAhhBBCyDJDAZAQQgghZJmhAEgIIYQQssxQACSEEEIIWWYoABJCCCGELDMUAAkhhBBClhkKgIQQQgghywwFQEIIIYSQZYYCICGEEELIMkMBkBBCCCFkmaEASAghhBCyzFAAJIQQQghZZigAEkIIIYQsMxQACSGEEEKWGQqAhBBCCCHLDAVAQgghhJBlhgIgIYQQQsgyQwGQEEIIIWSZoQBICCGEELLMUAAkhBBCCFlmKAASQgghhCwzFAAJIYQQQpYZCoCEEEIIIcsMBUBCCCGEkGWGAiAhhBBCyDJDAZAQQgghZJmhAEgIIYQQssxQACSEEEIIWWYoABJCCCGELDMUAAkhhBBClhkKgIQQQgghywwFQEIIIYSQZYYCICGEEELIMkMBkBBCCCFkmaEASAghhBCyzFAAJIQQQghZZigAEkIIIYQsMxQACSGEEEKWGQqAhBBCCCHLDAVAQgghhJBlhgIgIYQQQsgyQwGQEEIIIWSZoQBICCGEELLMUAAkhBBCCFlmKAASQgghhCwzFAAJIYQQQpYZCoCEEEIIIcsMBUBCCCGEkGXm/wPyGQ6P0c0ozgAAAABJRU5ErkJggg==;" parent="1" vertex="1">
          <mxGeometry x="80" y="80" width="640" height="480" as="geometry" />
        </mxCell>
        <mxCell id="jPGc2D4rUtxydF4NHdEW-2" value="Accept" style="rounded=0;whiteSpace=wrap;html=1;fillColor=#d5e8d4;strokeColor=#82b366;" parent="1" vertex="1">
          <mxGeometry x="80" y="580" width="310" height="60" as="geometry" />
        </mxCell>
        <mxCell id="jPGc2D4rUtxydF4NHdEW-3" value="Reject" style="rounded=0;whiteSpace=wrap;html=1;fillColor=#f8cecc;strokeColor=#b85450;" parent="1" vertex="1">
          <mxGeometry x="410" y="580" width="310" height="60" as="geometry" />
        </mxCell>
      </root>
    </mxGraphModel>
  </diagram>
</mxfile>
